{
DisplayStrings = (
/ruble
);
copyright = "Digitized data copyright (C) 2010-2011, Google Corporation.";
customParameters = (
{
name = license;
value = "Licensed under the Apache License, Version 2.0";
},
{
name = licenseURL;
value = "http://www.apache.org/licenses/LICENSE-2.0";
},
{
name = vendorID;
value = 1ASC;
},
{
name = glyphOrder;
value = (
    ".notdef",
    uni0000,
    uni000D,
    "uni000D.3",
    space,
    exclam,
    quotedbl,
    numbersign,
    dollar,
    percent,
    ampersand,
    quotesingle,
    parenleft,
    parenright,
    asterisk,
    plus,
    comma,
    hyphen,
    period,
    slash,
    zero,
    one,
    two,
    three,
    four,
    five,
    six,
    seven,
    eight,
    nine,
    colon,
    semicolon,
    less,
    equal,
    greater,
    question,
    at,
    A,
    B,
    C,
    D,
    E,
    F,
    G,
    H,
    I,
    J,
    K,
    L,
    M,
    N,
    O,
    P,
    Q,
    R,
    S,
    T,
    U,
    V,
    W,
    X,
    Y,
    Z,
    bracketleft,
    backslash,
    bracketright,
    asciicircum,
    underscore,
    grave,
    a,
    b,
    c,
    d,
    e,
    f,
    g,
    h,
    i,
    j,
    k,
    l,
    m,
    n,
    o,
    p,
    q,
    r,
    s,
    t,
    u,
    v,
    w,
    x,
    y,
    z,
    braceleft,
    bar,
    braceright,
    asciitilde,
    uni00A0,
    exclamdown,
    cent,
    sterling,
    currency,
    yen,
    brokenbar,
    section,
    dieresis,
    copyright,
    ordfeminine,
    guillemotleft,
    logicalnot,
    uni00AD,
    registered,
    overscore,
    degree,
    plusminus,
    twosuperior,
    threesuperior,
    acute,
    mu,
    paragraph,
    periodcentered,
    cedilla,
    onesuperior,
    ordmasculine,
    guillemotright,
    onequarter,
    onehalf,
    threequarters,
    questiondown,
    Agrave,
    Aacute,
    Acircumflex,
    Atilde,
    Adieresis,
    Aring,
    AE,
    Ccedilla,
    Egrave,
    Eacute,
    Ecircumflex,
    Edieresis,
    Igrave,
    Iacute,
    Icircumflex,

glyphs = (
{
glyphname = .notdef;
layers = (
{
layerId = "F819D8FE-9E94-402B-BBDD-25FA288DB24B";
name = Bold;
paths = (
{
closed = 1;
nodes = (
"193 1462 LINE",
"1034 1462 LINE",
"1034 0 LINE",
"193 0 LINE"
);
},
{
closed = 1;
nodes = (
"297 104 LINE",
"930 104 LINE",
"930 1358 LINE",
"297 1358 LINE"
);
}
);
width = 1229;
}
);
},
{
glyphname = exclam;
layers = (
{
layerId = "F819D8FE-9E94-402B-BBDD-25FA288DB24B";
name = Bold;
paths = (
{
closed = 1;
nodes = (
"416 485 LINE",
"172 485 LINE",
"121 1462 LINE",
"467 1462 LINE"
);
},
{
closed = 1;
nodes = (
"117 255 OFFCURVE",
"178 313 OFFCURVE",
"293 313 CURVE SMOOTH",
"404 313 OFFCURVE",
"467 252 OFFCURVE",
"467 143 CURVE SMOOTH",
"467 38 OFFCURVE",
"402 -27 OFFCURVE",
"293 -27 CURVE SMOOTH",
"181 -27 OFFCURVE",
"117 35 OFFCURVE",
"117 143 CURVE SMOOTH"
);
}
);
width = 586;
}
);
unicode = 0021;
},
{
glyphname = quotedbl;
layers = (
{
layerId = "F819D8FE-9E94-402B-BBDD-25FA288DB24B";
name = Bold;
paths = (
{
closed = 1;
nodes = (
"412 1462 LINE",
"371 934 LINE",
"174 934 LINE",
"133 1462 LINE"
);
},
{
closed = 1;
nodes = (
"834 1462 LINE",
"793 934 LINE",
"596 934 LINE",
"555 1462 LINE"
);
}
);
width = 967;
}
);
unicode = 0022;
},
{
glyphname = numbersign;
layers = (
{
layerId = "F819D8FE-9E94-402B-BBDD-25FA288DB24B";
name = Bold;
paths = (
{
closed = 1;
nodes = (
"999 844 LINE",
"952 612 LINE",
"1210 612 LINE",
"1210 406 LINE",
"913 406 LINE",
"836 0 LINE",
"616 0 LINE",
"694 406 LINE",
"500 406 LINE",
"424 0 LINE",
"209 0 LINE",
"283 406 LINE",
"45 406 LINE",
"45 612 LINE",
"322 612 LINE",
"369 844 LINE",
"117 844 LINE",
"117 1053 LINE",
"406 1053 LINE",
"483 1460 LINE",
"702 1460 LINE",
"625 1053 LINE",
"823 1053 LINE",
"901 1460 LINE",
"1116 1460 LINE",
"1038 1053 LINE",
"1278 1053 LINE",
"1278 844 LINE"
);
},
{
closed = 1;
nodes = (
"539 612 LINE",
"735 612 LINE",
"782 844 LINE",
"586 844 LINE"
);
}
);
width = 1323;
}
);
unicode = 0023;
},
{
glyphname = dollar;
layers = (
{
layerId = "F819D8FE-9E94-402B-BBDD-25FA288DB24B";
name = Bold;
paths = (
{
closed = 1;
nodes = (
"1092 245 OFFCURVE",
"931 111 OFFCURVE",
"655 86 CURVE",
"655 -119 LINE",
"518 -119 LINE",
"518 82 LINE",
"355 85 OFFCURVE",
"213 114 OFFCURVE",
"90 168 CURVE",
"90 432 LINE",
"206 375 OFFCURVE",
"390 325 OFFCURVE",
"518 317 CURVE",
"518 627 LINE",
"451 653 LINE SMOOTH",
"187 757 OFFCURVE",
"88 869 OFFCURVE",
"88 1049 CURVE SMOOTH",
"88 1242 OFFCURVE",
"247 1374 OFFCURVE",
"518 1401 CURVE",
"518 1554 LINE",
"655 1554 LINE",
"655 1405 LINE",
"808 1398 OFFCURVE",
"946 1368 OFFCURVE",
"1069 1313 CURVE",
"975 1079 LINE",
"871 1122 OFFCURVE",
"764 1148 OFFCURVE",
"655 1157 CURVE",
"655 862 LINE",
"785 812 OFFCURVE",
"878 769 OFFCURVE",
"933 732 CURVE SMOOTH",
"1043 659 OFFCURVE",
"1092 574 OFFCURVE",
"1092 457 CURVE SMOOTH"
);
},
{
closed = 1;
nodes = (
"791 498 OFFCURVE",
"746 532 OFFCURVE",
"655 573 CURVE",
"655 324 LINE",
"746 339 OFFCURVE",
"791 379 OFFCURVE",
"791 442 CURVE SMOOTH"
);
},
{
closed = 1;
nodes = (
"389 990 OFFCURVE",
"427 958 OFFCURVE",
"518 918 CURVE",
"518 1153 LINE",
"432 1140 OFFCURVE",
"389 1106 OFFCURVE",
"389 1049 CURVE SMOOTH"
);
}
);
width = 1169;
}
);
unicode = 0024;
},
{
glyphname = percent;
layers = (
{
layerId = "F819D8FE-9E94-402B-BBDD-25FA288DB24B";
name = Bold;
paths = (
{
closed = 1;
nodes = (
"315 939 OFFCURVE",
"323 876 OFFCURVE",
"338 835 CURVE SMOOTH",
"353 793 OFFCURVE",
"377 772 OFFCURVE",
"410 772 CURVE SMOOTH",
"474 772 OFFCURVE",
"506 856 OFFCURVE",
"506 1024 CURVE SMOOTH",
"506 1191 OFFCURVE",
"474 1274 OFFCURVE",
"410 1274 CURVE SMOOTH",
"377 1274 OFFCURVE",
"353 1254 OFFCURVE",
"338 1213 CURVE SMOOTH",
"323 1172 OFFCURVE",
"315 1109 OFFCURVE",
"315 1024 CURVE SMOOTH"
);
},
{
closed = 1;
nodes = (
"758 719 OFFCURVE",
"637 565 OFFCURVE",
"408 565 CURVE SMOOTH",
"188 565 OFFCURVE",
"63 727 OFFCURVE",
"63 1026 CURVE SMOOTH",
"63 1331 OFFCURVE",
"178 1483 OFFCURVE",
"408 1483 CURVE SMOOTH",
"633 1483 OFFCURVE",
"758 1319 OFFCURVE",
"758 1026 CURVE SMOOTH"
);
},
{
closed = 1;
nodes = (
"1446 1462 LINE",
"635 0 LINE",
"395 0 LINE",
"1206 1462 LINE"
);
},
{
closed = 1;
nodes = (
"1339 355 OFFCURVE",
"1347 292 OFFCURVE",
"1362 251 CURVE SMOOTH",
"1377 209 OFFCURVE",
"1401 188 OFFCURVE",
"1434 188 CURVE SMOOTH",
"1498 188 OFFCURVE",
"1530 272 OFFCURVE",
"1530 440 CURVE SMOOTH",
"1530 607 OFFCURVE",
"1498 690 OFFCURVE",
"1434 690 CURVE SMOOTH",
"1401 690 OFFCURVE",
"1377 670 OFFCURVE",
"1362 629 CURVE SMOOTH",
"1347 588 OFFCURVE",
"1339 525 OFFCURVE",
"1339 440 CURVE SMOOTH"
);
},
{
closed = 1;
nodes = (
"1782 137 OFFCURVE",
"1661 -18 OFFCURVE",
"1432 -18 CURVE SMOOTH",
"1212 -18 OFFCURVE",
"1087 145 OFFCURVE",
"1087 442 CURVE SMOOTH",
"1087 747 OFFCURVE",
"1202 899 OFFCURVE",
"1432 899 CURVE SMOOTH",
"1657 899 OFFCURVE",
"1782 735 OFFCURVE",
"1782 442 CURVE SMOOTH"
);
}
);
width = 1845;
}
);
unicode = 0025;
},
{
glyphname = ampersand;
layers = (
{
layerId = "F819D8FE-9E94-402B-BBDD-25FA288DB24B";
name = Bold;
paths = (
{
closed = 1;
nodes = (
"1536 0 LINE",
"1159 0 LINE",
"1044 113 LINE",
"917 24 OFFCURVE",
"773 -20 OFFCURVE",
"612 -20 CURVE SMOOTH",
"287 -20 OFFCURVE",
"82 140 OFFCURVE",
"82 395 CURVE SMOOTH",
"82 578 OFFCURVE",
"154 697 OFFCURVE",
"350 809 CURVE",
"250 924 OFFCURVE",
"207 1021 OFFCURVE",
"207 1145 CURVE SMOOTH",
"207 1348 OFFCURVE",
"375 1483 OFFCURVE",
"635 1483 CURVE SMOOTH",
"883 1483 OFFCURVE",
"1044 1358 OFFCURVE",
"1044 1165 CURVE SMOOTH",
"1044 1006 OFFCURVE",
"957 879 OFFCURVE",
"752 760 CURVE",
"1036 483 LINE",
"1083 561 OFFCURVE",
"1124 661 OFFCURVE",
"1159 784 CURVE",
"1477 784 LINE",
"1429 604 OFFCURVE",
"1342 425 OFFCURVE",
"1235 293 CURVE"
);
},
{
closed = 1;
nodes = (
"403 309 OFFCURVE",
"498 236 OFFCURVE",
"633 236 CURVE SMOOTH",
"717 236 OFFCURVE",
"793 256 OFFCURVE",
"860 297 CURVE",
"528 627 LINE",
"451 568 OFFCURVE",
"403 508 OFFCURVE",
"403 424 CURVE SMOOTH"
);
},
{
closed = 1;
nodes = (
"762 1204 OFFCURVE",
"709 1247 OFFCURVE",
"633 1247 CURVE SMOOTH",
"544 1247 OFFCURVE",
"489 1203 OFFCURVE",
"489 1124 CURVE SMOOTH",
"489 1065 OFFCURVE",
"521 1001 OFFCURVE",
"584 930 CURVE",
"699 994 OFFCURVE",
"762 1050 OFFCURVE",
"762 1133 CURVE SMOOTH"
);
}
);
width = 1536;
}
);
unicode = 0026;
},
{
glyphname = quotesingle;
layers = (
{
layerId = "F819D8FE-9E94-402B-BBDD-25FA288DB24B";
name = Bold;
paths = (
{
closed = 1;
nodes = (
"412 1462 LINE",
"371 934 LINE",
"174 934 LINE",
"133 1462 LINE"
);
}
);
width = 545;
}
);
unicode = 0027;
},
{
glyphname = parenleft;
layers = (
{
layerId = "F819D8FE-9E94-402B-BBDD-25FA288DB24B";
name = Bold;
paths = (
{
closed = 1;
nodes = (
"82 914 OFFCURVE",
"188 1230 OFFCURVE",
"383 1462 CURVE",
"633 1462 LINE",
"445 1205 OFFCURVE",
"348 888 OFFCURVE",
"348 563 CURVE SMOOTH",
"348 236 OFFCURVE",
"450 -77 OFFCURVE",
"631 -324 CURVE",
"383 -324 LINE",
"187 -97 OFFCURVE",
"82 213 OFFCURVE",
"82 561 CURVE SMOOTH"
);
}
);
width = 694;
}
);
unicode = 0028;
},
{
glyphname = parenright;
layers = (
{
layerId = "F819D8FE-9E94-402B-BBDD-25FA288DB24B";
name = Bold;
paths = (
{
closed = 1;
nodes = (
"612 210 OFFCURVE",
"506 -100 OFFCURVE",
"311 -324 CURVE",
"63 -324 LINE",
"243 -79 OFFCURVE",
"346 235 OFFCURVE",
"346 563 CURVE SMOOTH",
"346 888 OFFCURVE",
"249 1205 OFFCURVE",
"61 1462 CURVE",
"311 1462 LINE",
"507 1229 OFFCURVE",
"612 912 OFFCURVE",
"612 561 CURVE SMOOTH"
);
}
);
width = 694;
}
);
unicode = 0029;
},
{
glyphname = asterisk;
layers = (
{
layerId = "F819D8FE-9E94-402B-BBDD-25FA288DB24B";
name = Bold;
paths = (
{
closed = 1;
nodes = (
"688 1556 LINE",
"647 1188 LINE",
"1020 1292 LINE",
"1053 1040 LINE",
"713 1016 LINE",
"936 719 LINE",
"709 598 LINE",
"553 911 LINE",
"416 600 LINE",
"180 719 LINE",
"401 1016 LINE",
"63 1042 LINE",
"102 1292 LINE",
"467 1188 LINE",
"426 1556 LINE"
);
}
);
width = 1116;
}
);
unicode = 002A;
},
{
glyphname = plus;
layers = (
{
layerId = "F819D8FE-9E94-402B-BBDD-25FA288DB24B";
name = Bold;
paths = (
{
closed = 1;
nodes = (
"475 612 LINE",
"88 612 LINE",
"88 831 LINE",
"475 831 LINE",
"475 1221 LINE",
"694 1221 LINE",
"694 831 LINE",
"1081 831 LINE",
"1081 612 LINE",
"694 612 LINE",
"694 227 LINE",
"475 227 LINE"
);
}
);
width = 1169;
}
);
unicode = 002B;
},
{
glyphname = comma;
layers = (
{
layerId = "F819D8FE-9E94-402B-BBDD-25FA288DB24B";
name = Bold;
paths = (
{
closed = 1;
nodes = (
"459 215 LINE",
"424 80 OFFCURVE",
"366 -79 OFFCURVE",
"283 -264 CURVE",
"63 -264 LINE",
"106 -87 OFFCURVE",
"140 81 OFFCURVE",
"164 238 CURVE",
"444 238 LINE"
);
}
);
width = 594;
}
);
unicode = 002C;
},
{
glyphname = hyphen;
layers = (
{
layerId = "F819D8FE-9E94-402B-BBDD-25FA288DB24B";
name = Bold;
paths = (
{
closed = 1;
nodes = (
"61 424 LINE",
"61 674 LINE",
"598 674 LINE",
"598 424 LINE"
);
}
);
width = 659;
}
);
unicode = 002D;
},
{
glyphname = period;
layers = (
{
layerId = "F819D8FE-9E94-402B-BBDD-25FA288DB24B";
name = Bold;
paths = (
{
closed = 1;
nodes = (
"117 255 OFFCURVE",
"178 313 OFFCURVE",
"293 313 CURVE SMOOTH",
"404 313 OFFCURVE",
"467 252 OFFCURVE",
"467 143 CURVE SMOOTH",
"467 38 OFFCURVE",
"402 -27 OFFCURVE",
"293 -27 CURVE SMOOTH",
"181 -27 OFFCURVE",
"117 35 OFFCURVE",
"117 143 CURVE SMOOTH"
);
}
);
width = 584;
}
);
unicode = 002E;
},
{
glyphname = slash;
layers = (
{
layerId = "F819D8FE-9E94-402B-BBDD-25FA288DB24B";
name = Bold;
paths = (
{
closed = 1;
nodes = (
"836 1462 LINE",
"291 0 LINE",
"14 0 LINE",
"559 1462 LINE"
);
}
);
width = 846;
}
);
unicode = 002F;
},
{
glyphname = zero;
layers = (
{
layerId = "F819D8FE-9E94-402B-BBDD-25FA288DB24B";
name = Bold;
paths = (
{
closed = 1;
nodes = (
"1096 220 OFFCURVE",
"932 -20 OFFCURVE",
"584 -20 CURVE SMOOTH",
"247 -20 OFFCURVE",
"74 236 OFFCURVE",
"74 731 CURVE SMOOTH",
"74 1247 OFFCURVE",
"237 1485 OFFCURVE",
"584 1485 CURVE SMOOTH",
"921 1485 OFFCURVE",
"1096 1224 OFFCURVE",
"1096 731 CURVE SMOOTH"
);
},
{
closed = 1;
nodes = (
"381 552 OFFCURVE",
"397 423 OFFCURVE",
"428 346 CURVE SMOOTH",
"459 268 OFFCURVE",
"511 229 OFFCURVE",
"584 229 CURVE SMOOTH",
"656 229 OFFCURVE",
"708 268 OFFCURVE",
"740 347 CURVE SMOOTH",
"772 426 OFFCURVE",
"788 554 OFFCURVE",
"788 731 CURVE SMOOTH",
"788 910 OFFCURVE",
"772 1039 OFFCURVE",
"740 1118 CURVE SMOOTH",
"707 1196 OFFCURVE",
"655 1235 OFFCURVE",
"584 1235 CURVE SMOOTH",
"511 1235 OFFCURVE",
"459 1196 OFFCURVE",
"428 1118 CURVE SMOOTH",
"397 1039 OFFCURVE",
"381 910 OFFCURVE",
"381 731 CURVE SMOOTH"
);
}
);
width = 1169;
}
);
unicode = 0030;
},
{
glyphname = one;
layers = (
{
layerId = "F819D8FE-9E94-402B-BBDD-25FA288DB24B";
name = Bold;
paths = (
{
closed = 1;
nodes = (
"846 0 LINE",
"537 0 LINE",
"537 846 LINE",
"540 985 LINE",
"545 1137 LINE",
"494 1086 OFFCURVE",
"458 1052 OFFCURVE",
"438 1036 CURVE SMOOTH",
"270 901 LINE",
"121 1087 LINE",
"592 1462 LINE",
"846 1462 LINE"
);
}
);
width = 1169;
}
);
unicode = 0031;
},
{
glyphname = two;
layers = (
{
layerId = "F819D8FE-9E94-402B-BBDD-25FA288DB24B";
name = Bold;
paths = (
{
closed = 1;
nodes = (
"1104 0 LINE",
"82 0 LINE",
"82 215 LINE",
"449 586 LINE SMOOTH",
"558 697 OFFCURVE",
"629 775 OFFCURVE",
"662 818 CURVE SMOOTH",
"729 904 OFFCURVE",
"756 972 OFFCURVE",
"756 1051 CURVE SMOOTH",
"756 1168 OFFCURVE",
"686 1225 OFFCURVE",
"578 1225 CURVE SMOOTH",
"465 1225 OFFCURVE",
"362 1171 OFFCURVE",
"246 1075 CURVE",
"78 1274 LINE",
"222 1397 OFFCURVE",
"300 1435 OFFCURVE",
"412 1463 CURVE SMOOTH",
"468 1476 OFFCURVE",
"531 1483 OFFCURVE",
"600 1483 CURVE SMOOTH",
"783 1483 OFFCURVE",
"928 1413 OFFCURVE",
"1005 1293 CURVE SMOOTH",
"1044 1233 OFFCURVE",
"1063 1164 OFFCURVE",
"1063 1087 CURVE SMOOTH",
"1063 952 OFFCURVE",
"1017 840 OFFCURVE",
"918 716 CURVE SMOOTH",
"868 654 OFFCURVE",
"780 566 OFFCURVE",
"655 451 CURVE SMOOTH",
"467 274 LINE",
"467 260 LINE",
"1104 260 LINE"
);
}
);
width = 1169;
}
);
unicode = 0032;
},
{
glyphname = three;
layers = (
{
layerId = "F819D8FE-9E94-402B-BBDD-25FA288DB24B";
name = Bold;
paths = (
{
closed = 1;
nodes = (
"1047 952 OFFCURVE",
"931 818 OFFCURVE",
"731 770 CURVE",
"731 764 LINE",
"967 735 OFFCURVE",
"1090 619 OFFCURVE",
"1090 426 CURVE SMOOTH",
"1090 145 OFFCURVE",
"879 -20 OFFCURVE",
"500 -20 CURVE SMOOTH",
"341 -20 OFFCURVE",
"201 6 OFFCURVE",
"78 59 CURVE",
"78 322 LINE",
"191 265 OFFCURVE",
"334 225 OFFCURVE",
"467 225 CURVE SMOOTH",
"671 225 OFFCURVE",
"766 291 OFFCURVE",
"766 444 CURVE SMOOTH",
"766 581 OFFCURVE",
"659 633 OFFCURVE",
"414 633 CURVE SMOOTH",
"303 633 LINE",
"303 870 LINE",
"416 870 LINE SMOOTH",
"643 870 OFFCURVE",
"743 923 OFFCURVE",
"743 1067 CURVE SMOOTH",
"743 1178 OFFCURVE",
"674 1233 OFFCURVE",
"535 1233 CURVE SMOOTH",
"439 1233 OFFCURVE",
"344 1205 OFFCURVE",
"223 1126 CURVE",
"80 1339 LINE",
"213 1435 OFFCURVE",
"372 1483 OFFCURVE",
"557 1483 CURVE SMOOTH",
"860 1483 OFFCURVE",
"1047 1354 OFFCURVE",
"1047 1135 CURVE SMOOTH"
);
}
);
width = 1169;
}
);
unicode = 0033;
},
{
glyphname = four;
layers = (
{
layerId = "F819D8FE-9E94-402B-BBDD-25FA288DB24B";
name = Bold;
paths = (
{
closed = 1;
nodes = (
"1137 303 LINE",
"961 303 LINE",
"961 0 LINE",
"659 0 LINE",
"659 303 LINE",
"35 303 LINE",
"35 518 LINE",
"676 1462 LINE",
"961 1462 LINE",
"961 543 LINE",
"1137 543 LINE"
);
},
{
closed = 1;
nodes = (
"659 543 LINE",
"659 791 LINE SMOOTH",
"659 874 OFFCURVE",
"668 1083 OFFCURVE",
"672 1108 CURVE",
"664 1108 LINE",
"639 1053 OFFCURVE",
"610 1000 OFFCURVE",
"575 948 CURVE SMOOTH",
"307 543 LINE"
);
}
);
width = 1169;
}
);
unicode = 0034;
},
{
glyphname = five;
layers = (
{
layerId = "F819D8FE-9E94-402B-BBDD-25FA288DB24B";
name = Bold;
paths = (
{
closed = 1;
nodes = (
"897 934 OFFCURVE",
"1077 765 OFFCURVE",
"1077 489 CURVE SMOOTH",
"1077 162 OFFCURVE",
"869 -20 OFFCURVE",
"494 -20 CURVE SMOOTH",
"331 -20 OFFCURVE",
"200 6 OFFCURVE",
"100 59 CURVE",
"100 326 LINE",
"205 270 OFFCURVE",
"358 231 OFFCURVE",
"483 231 CURVE SMOOTH",
"672 231 OFFCURVE",
"766 308 OFFCURVE",
"766 463 CURVE SMOOTH",
"766 610 OFFCURVE",
"668 684 OFFCURVE",
"473 684 CURVE SMOOTH",
"402 684 OFFCURVE",
"305 667 OFFCURVE",
"252 651 CURVE",
"129 717 LINE",
"184 1462 LINE",
"977 1462 LINE",
"977 1200 LINE",
"455 1200 LINE",
"428 913 LINE",
"463 920 LINE SMOOTH",
"504 929 OFFCURVE",
"554 934 OFFCURVE",
"614 934 CURVE SMOOTH"
);
}
);
width = 1169;
}
);
unicode = 0035;
},
{
glyphname = six;
layers = (
{
layerId = "F819D8FE-9E94-402B-BBDD-25FA288DB24B";
name = Bold;
paths = (
{
closed = 1;
nodes = (
"72 1200 OFFCURVE",
"317 1479 OFFCURVE",
"805 1479 CURVE SMOOTH",
"888 1479 OFFCURVE",
"954 1474 OFFCURVE",
"1001 1464 CURVE",
"1001 1217 LINE",
"942 1230 OFFCURVE",
"883 1237 OFFCURVE",
"825 1237 CURVE SMOOTH",
"613 1237 OFFCURVE",
"482 1172 OFFCURVE",
"415 1047 CURVE SMOOTH",
"382 984 OFFCURVE",
"362 895 OFFCURVE",
"356 780 CURVE",
"369 780 LINE",
"435 893 OFFCURVE",
"541 950 OFFCURVE",
"686 950 CURVE SMOOTH",
"947 950 OFFCURVE",
"1104 776 OFFCURVE",
"1104 487 CURVE SMOOTH",
"1104 175 OFFCURVE",
"918 -20 OFFCURVE",
"606 -20 CURVE SMOOTH",
"390 -20 OFFCURVE",
"225 82 OFFCURVE",
"138 274 CURVE SMOOTH",
"94 370 OFFCURVE",
"72 486 OFFCURVE",
"72 621 CURVE SMOOTH"
);
},
{
closed = 1;
nodes = (
"732 227 OFFCURVE",
"805 319 OFFCURVE",
"805 483 CURVE SMOOTH",
"805 626 OFFCURVE",
"739 713 OFFCURVE",
"606 713 CURVE SMOOTH",
"481 713 OFFCURVE",
"379 618 OFFCURVE",
"379 510 CURVE SMOOTH",
"379 351 OFFCURVE",
"472 227 OFFCURVE",
"600 227 CURVE SMOOTH"
);
}
);
width = 1169;
}
);
unicode = 0036;
},
{
glyphname = seven;
layers = (
{
layerId = "F819D8FE-9E94-402B-BBDD-25FA288DB24B";
name = Bold;
paths = (
{
closed = 1;
nodes = (
"227 0 LINE",
"776 1200 LINE",
"55 1200 LINE",
"55 1460 LINE",
"1104 1460 LINE",
"1104 1266 LINE",
"551 0 LINE"
);
}
);
width = 1169;
}
);
unicode = 0037;
},
{
glyphname = eight;
layers = (
{
layerId = "F819D8FE-9E94-402B-BBDD-25FA288DB24B";
name = Bold;
paths = (
{
closed = 1;
nodes = (
"866 1481 OFFCURVE",
"1053 1344 OFFCURVE",
"1053 1128 CURVE SMOOTH",
"1053 979 OFFCURVE",
"975 864 OFFCURVE",
"791 772 CURVE",
"1010 655 OFFCURVE",
"1098 531 OFFCURVE",
"1098 379 CURVE SMOOTH",
"1098 139 OFFCURVE",
"893 -20 OFFCURVE",
"586 -20 CURVE SMOOTH",
"266 -20 OFFCURVE",
"72 122 OFFCURVE",
"72 371 CURVE SMOOTH",
"72 538 OFFCURVE",
"156 665 OFFCURVE",
"352 764 CURVE",
"185 869 OFFCURVE",
"117 987 OFFCURVE",
"117 1130 CURVE SMOOTH",
"117 1339 OFFCURVE",
"307 1481 OFFCURVE",
"586 1481 CURVE SMOOTH"
);
},
{
closed = 1;
nodes = (
"358 274 OFFCURVE",
"443 207 OFFCURVE",
"582 207 CURVE SMOOTH",
"735 207 OFFCURVE",
"811 279 OFFCURVE",
"811 387 CURVE SMOOTH",
"811 476 OFFCURVE",
"740 549 OFFCURVE",
"571 637 CURVE",
"429 572 OFFCURVE",
"358 489 OFFCURVE",
"358 389 CURVE SMOOTH"
);
},
{
closed = 1;
nodes = (
"479 1255 OFFCURVE",
"408 1197 OFFCURVE",
"408 1106 CURVE SMOOTH",
"408 1026 OFFCURVE",
"451 968 OFFCURVE",
"586 901 CURVE",
"717 962 OFFCURVE",
"762 1022 OFFCURVE",
"762 1106 CURVE SMOOTH",
"762 1198 OFFCURVE",
"688 1255 OFFCURVE",
"584 1255 CURVE SMOOTH"
);
}
);
width = 1169;
}
);
unicode = 0038;
},
{
glyphname = nine;
layers = (
{
layerId = "F819D8FE-9E94-402B-BBDD-25FA288DB24B";
name = Bold;
paths = (
{
closed = 1;
nodes = (
"1098 262 OFFCURVE",
"857 -20 OFFCURVE",
"365 -20 CURVE SMOOTH",
"278 -20 OFFCURVE",
"213 -15 OFFCURVE",
"168 -6 CURVE",
"168 242 LINE",
"224 228 OFFCURVE",
"283 221 OFFCURVE",
"344 221 CURVE SMOOTH",
"551 221 OFFCURVE",
"681 280 OFFCURVE",
"752 410 CURVE SMOOTH",
"787 475 OFFCURVE",
"808 564 OFFCURVE",
"813 678 CURVE",
"801 678 LINE",
"724 553 OFFCURVE",
"629 508 OFFCURVE",
"477 508 CURVE SMOOTH",
"222 508 OFFCURVE",
"66 680 OFFCURVE",
"66 971 CURVE SMOOTH",
"66 1284 OFFCURVE",
"256 1479 OFFCURVE",
"563 1479 CURVE SMOOTH",
"779 1479 OFFCURVE",
"946 1375 OFFCURVE",
"1033 1183 CURVE SMOOTH",
"1076 1086 OFFCURVE",
"1098 971 OFFCURVE",
"1098 838 CURVE SMOOTH"
);
},
{
closed = 1;
nodes = (
"441 1231 OFFCURVE",
"365 1140 OFFCURVE",
"365 975 CURVE SMOOTH",
"365 834 OFFCURVE",
"430 745 OFFCURVE",
"563 745 CURVE SMOOTH",
"688 745 OFFCURVE",
"791 841 OFFCURVE",
"791 948 CURVE SMOOTH",
"791 1107 OFFCURVE",
"698 1231 OFFCURVE",
"569 1231 CURVE SMOOTH"
);
}
);
width = 1169;
}
);
unicode = 0039;
},
{
glyphname = colon;
layers = (
{
layerId = "F819D8FE-9E94-402B-BBDD-25FA288DB24B";
name = Bold;
paths = (
{
closed = 1;
nodes = (
"117 255 OFFCURVE",
"178 313 OFFCURVE",
"293 313 CURVE SMOOTH",
"404 313 OFFCURVE",
"467 252 OFFCURVE",
"467 143 CURVE SMOOTH",
"467 38 OFFCURVE",
"402 -27 OFFCURVE",
"293 -27 CURVE SMOOTH",
"181 -27 OFFCURVE",
"117 35 OFFCURVE",
"117 143 CURVE SMOOTH"
);
},
{
closed = 1;
nodes = (
"117 1081 OFFCURVE",
"178 1139 OFFCURVE",
"293 1139 CURVE SMOOTH",
"404 1139 OFFCURVE",
"467 1078 OFFCURVE",
"467 969 CURVE SMOOTH",
"467 861 OFFCURVE",
"401 799 OFFCURVE",
"293 799 CURVE SMOOTH",
"181 799 OFFCURVE",
"117 860 OFFCURVE",
"117 969 CURVE SMOOTH"
);
}
);
width = 584;
}
);
unicode = 003A;
},
{
glyphname = semicolon;
layers = (
{
layerId = "F819D8FE-9E94-402B-BBDD-25FA288DB24B";
name = Bold;
paths = (
{
closed = 1;
nodes = (
"444 238 LINE",
"459 215 LINE",
"424 80 OFFCURVE",
"366 -79 OFFCURVE",
"283 -264 CURVE",
"63 -264 LINE",
"106 -87 OFFCURVE",
"140 81 OFFCURVE",
"164 238 CURVE"
);
},
{
closed = 1;
nodes = (
"117 1081 OFFCURVE",
"178 1139 OFFCURVE",
"293 1139 CURVE SMOOTH",
"404 1139 OFFCURVE",
"467 1078 OFFCURVE",
"467 969 CURVE SMOOTH",
"467 861 OFFCURVE",
"401 799 OFFCURVE",
"293 799 CURVE SMOOTH",
"181 799 OFFCURVE",
"117 860 OFFCURVE",
"117 969 CURVE SMOOTH"
);
}
);
width = 594;
}
);
unicode = 003B;
},
{
glyphname = less;
layers = (
{
layerId = "F819D8FE-9E94-402B-BBDD-25FA288DB24B";
name = Bold;
paths = (
{
closed = 1;
nodes = (
"1081 203 LINE",
"88 641 LINE",
"88 784 LINE",
"1081 1280 LINE",
"1081 1040 LINE",
"397 723 LINE",
"1081 442 LINE"
);
}
);
width = 1169;
}
);
unicode = 003C;
},
{
glyphname = equal;
layers = (
{
layerId = "F819D8FE-9E94-402B-BBDD-25FA288DB24B";
name = Bold;
paths = (
{
closed = 1;
nodes = (
"88 805 LINE",
"88 1024 LINE",
"1081 1024 LINE",
"1081 805 LINE"
);
},
{
closed = 1;
nodes = (
"88 418 LINE",
"88 637 LINE",
"1081 637 LINE",
"1081 418 LINE"
);
}
);
width = 1169;
}
);
unicode = 003D;
},
{
glyphname = greater;
layers = (
{
layerId = "F819D8FE-9E94-402B-BBDD-25FA288DB24B";
name = Bold;
paths = (
{
closed = 1;
nodes = (
"88 442 LINE",
"772 723 LINE",
"88 1040 LINE",
"88 1280 LINE",
"1081 784 LINE",
"1081 641 LINE",
"88 203 LINE"
);
}
);
width = 1169;
}
);
unicode = 003E;
},
{
glyphname = question;
layers = (
{
layerId = "F819D8FE-9E94-402B-BBDD-25FA288DB24B";
name = Bold;
paths = (
{
closed = 1;
nodes = (
"276 485 LINE",
"276 559 LINE SMOOTH",
"276 687 OFFCURVE",
"322 770 OFFCURVE",
"467 877 CURVE SMOOTH",
"607 977 OFFCURVE",
"639 1027 OFFCURVE",
"639 1104 CURVE SMOOTH",
"639 1191 OFFCURVE",
"572 1237 OFFCURVE",
"457 1237 CURVE SMOOTH",
"357 1237 OFFCURVE",
"243 1204 OFFCURVE",
"115 1139 CURVE",
"6 1358 LINE",
"155 1441 OFFCURVE",
"312 1483 OFFCURVE",
"479 1483 CURVE SMOOTH",
"754 1483 OFFCURVE",
"928 1340 OFFCURVE",
"928 1120 CURVE SMOOTH",
"928 973 OFFCURVE",
"875 883 OFFCURVE",
"688 750 CURVE SMOOTH",
"560 655 OFFCURVE",
"541 625 OFFCURVE",
"541 545 CURVE SMOOTH",
"541 485 LINE"
);
},
{
closed = 1;
nodes = (
"244 255 OFFCURVE",
"305 313 OFFCURVE",
"420 313 CURVE SMOOTH",
"531 313 OFFCURVE",
"594 252 OFFCURVE",
"594 143 CURVE SMOOTH",
"594 38 OFFCURVE",
"529 -27 OFFCURVE",
"420 -27 CURVE SMOOTH",
"308 -27 OFFCURVE",
"244 35 OFFCURVE",
"244 143 CURVE SMOOTH"
);
}
);
width = 977;
}
);
unicode = 003F;
},
{
glyphname = at;
layers = (
{
layerId = "F819D8FE-9E94-402B-BBDD-25FA288DB24B";
name = Bold;
paths = (
{
closed = 1;
nodes = (
"1735 560 OFFCURVE",
"1671 392 OFFCURVE",
"1559 301 CURVE SMOOTH",
"1503 256 OFFCURVE",
"1438 233 OFFCURVE",
"1364 233 CURVE SMOOTH",
"1265 233 OFFCURVE",
"1184 285 OFFCURVE",
"1151 362 CURVE",
"1135 362 LINE",
"1063 276 OFFCURVE",
"971 233 OFFCURVE",
"860 233 CURVE SMOOTH",
"624 233 OFFCURVE",
"479 384 OFFCURVE",
"479 631 CURVE SMOOTH",
"479 912 OFFCURVE",
"675 1100 OFFCURVE",
"963 1100 CURVE SMOOTH",
"1078 1100 OFFCURVE",
"1234 1075 OFFCURVE",
"1323 1044 CURVE",
"1300 555 LINE",
"1300 462 OFFCURVE",
"1325 416 OFFCURVE",
"1376 416 CURVE SMOOTH",
"1419 416 OFFCURVE",
"1453 447 OFFCURVE",
"1478 510 CURVE SMOOTH",
"1503 572 OFFCURVE",
"1516 653 OFFCURVE",
"1516 754 CURVE SMOOTH",
"1516 969 OFFCURVE",
"1423 1140 OFFCURVE",
"1261 1227 CURVE SMOOTH",
"1180 1270 OFFCURVE",
"1087 1292 OFFCURVE",
"983 1292 CURVE SMOOTH",
"714 1292 OFFCURVE",
"510 1178 OFFCURVE",
"404 970 CURVE SMOOTH",
"351 865 OFFCURVE",
"324 745 OFFCURVE",
"324 608 CURVE SMOOTH",
"324 240 OFFCURVE",
"526 37 OFFCURVE",
"899 37 CURVE SMOOTH",
"1040 37 OFFCURVE",
"1218 69 OFFCURVE",
"1382 129 CURVE",
"1382 -63 LINE",
"1239 -124 OFFCURVE",
"1081 -154 OFFCURVE",
"907 -154 CURVE SMOOTH",
"400 -154 OFFCURVE",
"102 127 OFFCURVE",
"102 602 CURVE SMOOTH",
"102 931 OFFCURVE",
"252 1214 OFFCURVE",
"520 1367 CURVE SMOOTH",
"653 1443 OFFCURVE",
"807 1481 OFFCURVE",
"981 1481 CURVE SMOOTH",
"1274 1481 OFFCURVE",
"1516 1356 OFFCURVE",
"1641 1135 CURVE SMOOTH",
"1704 1024 OFFCURVE",
"1735 897 OFFCURVE",
"1735 752 CURVE SMOOTH"
);
},
{
closed = 1;
nodes = (
"711 486 OFFCURVE",
"768 416 OFFCURVE",
"883 416 CURVE SMOOTH",
"1003 416 OFFCURVE",
"1064 495 OFFCURVE",
"1077 686 CURVE SMOOTH",
"1090 907 LINE",
"1056 914 OFFCURVE",
"1018 918 OFFCURVE",
"975 918 CURVE SMOOTH",
"808 918 OFFCURVE",
"711 807 OFFCURVE",
"711 627 CURVE SMOOTH"
);
}
);
width = 1837;
}
);
unicode = 0040;
},
{
glyphname = A;
layers = (
{
layerId = "F819D8FE-9E94-402B-BBDD-25FA288DB24B";
name = Bold;
paths = (
{
closed = 1;
nodes = (
"1079 0 LINE",
"973 348 LINE",
"440 348 LINE",
"334 0 LINE",
"0 0 LINE",
"516 1468 LINE",
"895 1468 LINE",
"1413 0 LINE"
);
},
{
closed = 1;
nodes = (
"899 608 LINE",
"801 923 OFFCURVE",
"746 1102 OFFCURVE",
"734 1143 CURVE SMOOTH",
"721 1184 OFFCURVE",
"712 1217 OFFCURVE",
"707 1241 CURVE",
"685 1156 OFFCURVE",
"622 945 OFFCURVE",
"518 608 CURVE"
);
}
);
width = 1413;
}
);
unicode = 0041;
},
{
glyphname = B;
layers = (
{
layerId = "F819D8FE-9E94-402B-BBDD-25FA288DB24B";
name = Bold;
paths = (
{
closed = 1;
nodes = (
"184 1462 LINE",
"639 1462 LINE SMOOTH",
"1054 1462 OFFCURVE",
"1231 1349 OFFCURVE",
"1231 1092 CURVE SMOOTH",
"1231 917 OFFCURVE",
"1142 799 OFFCURVE",
"1006 776 CURVE",
"1006 766 LINE",
"1191 725 OFFCURVE",
"1268 612 OFFCURVE",
"1268 424 CURVE SMOOTH",
"1268 157 OFFCURVE",
"1062 0 OFFCURVE",
"731 0 CURVE SMOOTH",
"184 0 LINE"
);
},
{
closed = 1;
nodes = (
"494 883 LINE",
"674 883 LINE SMOOTH",
"842 883 OFFCURVE",
"913 931 OFFCURVE",
"913 1051 CURVE SMOOTH",
"913 1163 OFFCURVE",
"834 1208 OFFCURVE",
"657 1208 CURVE SMOOTH",
"494 1208 LINE"
);
},
{
closed = 1;
nodes = (
"494 637 LINE",
"494 256 LINE",
"696 256 LINE SMOOTH",
"867 256 OFFCURVE",
"946 320 OFFCURVE",
"946 455 CURVE SMOOTH",
"946 576 OFFCURVE",
"859 637 OFFCURVE",
"686 637 CURVE SMOOTH"
);
}
);
width = 1376;
}
);
unicode = 0042;
},
{
glyphname = C;
layers = (
{
layerId = "F819D8FE-9E94-402B-BBDD-25FA288DB24B";
name = Bold;
paths = (
{
closed = 1;
nodes = (
"572 1225 OFFCURVE",
"438 1040 OFFCURVE",
"438 727 CURVE SMOOTH",
"438 401 OFFCURVE",
"560 238 OFFCURVE",
"805 238 CURVE SMOOTH",
"908 238 OFFCURVE",
"1032 264 OFFCURVE",
"1178 315 CURVE",
"1178 55 LINE",
"1058 5 OFFCURVE",
"924 -20 OFFCURVE",
"776 -20 CURVE SMOOTH",
"351 -20 OFFCURVE",
"119 246 OFFCURVE",
"119 729 CURVE SMOOTH",
"119 1033 OFFCURVE",
"233 1270 OFFCURVE",
"441 1392 CURVE SMOOTH",
"544 1453 OFFCURVE",
"666 1483 OFFCURVE",
"805 1483 CURVE SMOOTH",
"947 1483 OFFCURVE",
"1090 1449 OFFCURVE",
"1233 1380 CURVE",
"1133 1128 LINE",
"1024 1180 OFFCURVE",
"912 1225 OFFCURVE",
"805 1225 CURVE SMOOTH"
);
}
);
width = 1305;
}
);
unicode = 0043;
},
{
glyphname = D;
layers = (
{
layerId = "F819D8FE-9E94-402B-BBDD-25FA288DB24B";
name = Bold;
paths = (
{
closed = 1;
nodes = (
"1397 264 OFFCURVE",
"1115 0 OFFCURVE",
"598 0 CURVE SMOOTH",
"184 0 LINE",
"184 1462 LINE",
"643 1462 LINE SMOOTH",
"1120 1462 OFFCURVE",
"1397 1197 OFFCURVE",
"1397 745 CURVE SMOOTH"
);
},
{
closed = 1;
nodes = (
"1075 1051 OFFCURVE",
"936 1208 OFFCURVE",
"659 1208 CURVE SMOOTH",
"494 1208 LINE",
"494 256 LINE",
"627 256 LINE SMOOTH",
"926 256 OFFCURVE",
"1075 416 OFFCURVE",
"1075 737 CURVE SMOOTH"
);
}
);
width = 1516;
}
);
unicode = 0044;
},
{
glyphname = E;
layers = (
{
layerId = "F819D8FE-9E94-402B-BBDD-25FA288DB24B";
name = Bold;
paths = (
{
closed = 1;
nodes = (
"1026 0 LINE",
"184 0 LINE",
"184 1462 LINE",
"1026 1462 LINE",
"1026 1208 LINE",
"494 1208 LINE",
"494 887 LINE",
"989 887 LINE",
"989 633 LINE",
"494 633 LINE",
"494 256 LINE",
"1026 256 LINE"
);
}
);
width = 1147;
}
);
unicode = 0045;
},
{
glyphname = F;
layers = (
{
layerId = "F819D8FE-9E94-402B-BBDD-25FA288DB24B";
name = Bold;
paths = (
{
closed = 1;
nodes = (
"489 0 LINE",
"184 0 LINE",
"184 1462 LINE",
"1022 1462 LINE",
"1022 1208 LINE",
"489 1208 LINE",
"489 831 LINE",
"985 831 LINE",
"985 578 LINE",
"489 578 LINE"
);
}
);
width = 1124;
}
);
unicode = 0046;
},
{
glyphname = G;
layers = (
{
layerId = "F819D8FE-9E94-402B-BBDD-25FA288DB24B";
name = Bold;
paths = (
{
closed = 1;
nodes = (
"739 821 LINE",
"1319 821 LINE",
"1319 63 LINE",
"1131 2 OFFCURVE",
"972 -20 OFFCURVE",
"799 -20 CURVE SMOOTH",
"358 -20 OFFCURVE",
"119 248 OFFCURVE",
"119 733 CURVE SMOOTH",
"119 1205 OFFCURVE",
"404 1483 OFFCURVE",
"883 1483 CURVE SMOOTH",
"1033 1483 OFFCURVE",
"1178 1453 OFFCURVE",
"1317 1393 CURVE",
"1214 1145 LINE",
"1107 1198 OFFCURVE",
"996 1225 OFFCURVE",
"881 1225 CURVE SMOOTH",
"613 1225 OFFCURVE",
"438 1031 OFFCURVE",
"438 727 CURVE SMOOTH",
"438 410 OFFCURVE",
"571 238 OFFCURVE",
"819 238 CURVE SMOOTH",
"884 238 OFFCURVE",
"949 245 OFFCURVE",
"1016 258 CURVE",
"1016 563 LINE",
"739 563 LINE"
);
}
);
width = 1483;
}
);
unicode = 0047;
},
{
glyphname = H;
layers = (
{
layerId = "F819D8FE-9E94-402B-BBDD-25FA288DB24B";
name = Bold;
paths = (
{
closed = 1;
nodes = (
"1382 0 LINE",
"1073 0 LINE",
"1073 631 LINE",
"494 631 LINE",
"494 0 LINE",
"184 0 LINE",
"184 1462 LINE",
"494 1462 LINE",
"494 889 LINE",
"1073 889 LINE",
"1073 1462 LINE",
"1382 1462 LINE"
);
}
);
width = 1567;
}
);
unicode = 0048;
},
{
glyphname = I;
layers = (
{
layerId = "F819D8FE-9E94-402B-BBDD-25FA288DB24B";
name = Bold;
paths = (
{
closed = 1;
nodes = (
"184 0 LINE",
"184 1462 LINE",
"494 1462 LINE",
"494 0 LINE"
);
}
);
width = 678;
}
);
unicode = 0049;
},
{
glyphname = J;
layers = (
{
layerId = "F819D8FE-9E94-402B-BBDD-25FA288DB24B";
name = Bold;
paths = (
{
closed = 1;
nodes = (
"-39 -430 OFFCURVE",
"-100 -423 OFFCURVE",
"-152 -408 CURVE",
"-152 -150 LINE",
"-99 -163 OFFCURVE",
"-50 -170 OFFCURVE",
"-6 -170 CURVE SMOOTH",
"130 -170 OFFCURVE",
"184 -88 OFFCURVE",
"184 92 CURVE SMOOTH",
"184 1462 LINE",
"494 1462 LINE",
"494 94 LINE SMOOTH",
"494 -247 OFFCURVE",
"336 -430 OFFCURVE",
"31 -430 CURVE SMOOTH"
);
}
);
width = 678;
}
);
unicode = 004A;
},
{
glyphname = K;
layers = (
{
layerId = "F819D8FE-9E94-402B-BBDD-25FA288DB24B";
name = Bold;
paths = (
{
closed = 1;
nodes = (
"1360 0 LINE",
"1008 0 LINE",
"625 616 LINE",
"494 522 LINE",
"494 0 LINE",
"184 0 LINE",
"184 1462 LINE",
"494 1462 LINE",
"494 793 LINE",
"616 965 LINE",
"1012 1462 LINE",
"1356 1462 LINE",
"846 815 LINE"
);
}
);
width = 1360;
}
);
unicode = 004B;
},
{
glyphname = L;
layers = (
{
layerId = "F819D8FE-9E94-402B-BBDD-25FA288DB24B";
name = Bold;
paths = (
{
closed = 1;
nodes = (
"184 0 LINE",
"184 1462 LINE",
"494 1462 LINE",
"494 256 LINE",
"1087 256 LINE",
"1087 0 LINE"
);
}
);
width = 1157;
}
);
unicode = 004C;
},
{
glyphname = M;
layers = (
{
layerId = "F819D8FE-9E94-402B-BBDD-25FA288DB24B";
name = Bold;
paths = (
{
closed = 1;
nodes = (
"803 0 LINE",
"451 1147 LINE",
"442 1147 LINE",
"455 914 OFFCURVE",
"461 758 OFFCURVE",
"461 680 CURVE SMOOTH",
"461 0 LINE",
"184 0 LINE",
"184 1462 LINE",
"606 1462 LINE",
"952 344 LINE",
"958 344 LINE",
"1325 1462 LINE",
"1747 1462 LINE",
"1747 0 LINE",
"1458 0 LINE",
"1458 692 LINE SMOOTH",
"1458 725 OFFCURVE",
"1459 762 OFFCURVE",
"1460 805 CURVE SMOOTH",
"1461 848 OFFCURVE",
"1465 961 OFFCURVE",
"1473 1145 CURVE",
"1464 1145 LINE",
"1087 0 LINE"
);
}
);
width = 1931;
}
);
unicode = 004D;
},
{
glyphname = N;
layers = (
{
layerId = "F819D8FE-9E94-402B-BBDD-25FA288DB24B";
name = Bold;
paths = (
{
closed = 1;
nodes = (
"1481 0 LINE",
"1087 0 LINE",
"451 1106 LINE",
"442 1106 LINE",
"455 911 OFFCURVE",
"461 771 OFFCURVE",
"461 688 CURVE SMOOTH",
"461 0 LINE",
"184 0 LINE",
"184 1462 LINE",
"575 1462 LINE",
"1210 367 LINE",
"1217 367 LINE",
"1207 557 OFFCURVE",
"1202 691 OFFCURVE",
"1202 770 CURVE SMOOTH",
"1202 1462 LINE",
"1481 1462 LINE"
);
}
);
width = 1665;
}
);
unicode = 004E;
},
{
glyphname = O;
layers = (
{
layerId = "F819D8FE-9E94-402B-BBDD-25FA288DB24B";
name = Bold;
paths = (
{
closed = 1;
nodes = (
"1511 249 OFFCURVE",
"1263 -20 OFFCURVE",
"815 -20 CURVE SMOOTH",
"367 -20 OFFCURVE",
"119 248 OFFCURVE",
"119 735 CURVE SMOOTH",
"119 1222 OFFCURVE",
"368 1485 OFFCURVE",
"817 1485 CURVE SMOOTH",
"1266 1485 OFFCURVE",
"1511 1218 OFFCURVE",
"1511 733 CURVE SMOOTH"
);
},
{
closed = 1;
nodes = (
"444 406 OFFCURVE",
"568 240 OFFCURVE",
"815 240 CURVE SMOOTH",
"1062 240 OFFCURVE",
"1186 404 OFFCURVE",
"1186 733 CURVE SMOOTH",
"1186 1062 OFFCURVE",
"1063 1227 OFFCURVE",
"817 1227 CURVE SMOOTH",
"570 1227 OFFCURVE",
"444 1060 OFFCURVE",
"444 733 CURVE SMOOTH"
);
}
);
width = 1630;
}
);
unicode = 004F;
},
{
glyphname = P;
layers = (
{
layerId = "F819D8FE-9E94-402B-BBDD-25FA288DB24B";
name = Bold;
paths = (
{
closed = 1;
nodes = (
"494 774 LINE",
"596 774 LINE SMOOTH",
"787 774 OFFCURVE",
"881 851 OFFCURVE",
"881 995 CURVE SMOOTH",
"881 1140 OFFCURVE",
"804 1208 OFFCURVE",
"635 1208 CURVE SMOOTH",
"494 1208 LINE"
);
},
{
closed = 1;
nodes = (
"1194 691 OFFCURVE",
"990 520 OFFCURVE",
"627 520 CURVE SMOOTH",
"494 520 LINE",
"494 0 LINE",
"184 0 LINE",
"184 1462 LINE",
"651 1462 LINE SMOOTH",
"1006 1462 OFFCURVE",
"1194 1309 OFFCURVE",
"1194 1006 CURVE SMOOTH"
);
}
);
width = 1286;
}
);
unicode = 0050;
},
{
glyphname = Q;
layers = (
{
layerId = "F819D8FE-9E94-402B-BBDD-25FA288DB24B";
name = Bold;
paths = (
{
closed = 1;
nodes = (
"1511 389 OFFCURVE",
"1387 153 OFFCURVE",
"1151 45 CURVE",
"1503 -348 LINE",
"1106 -348 LINE",
"838 -20 LINE",
"815 -20 LINE SMOOTH",
"367 -20 OFFCURVE",
"119 248 OFFCURVE",
"119 735 CURVE SMOOTH",
"119 1222 OFFCURVE",
"368 1485 OFFCURVE",
"817 1485 CURVE SMOOTH",
"1266 1485 OFFCURVE",
"1511 1218 OFFCURVE",
"1511 733 CURVE SMOOTH"
);
},
{
closed = 1;
nodes = (
"444 406 OFFCURVE",
"568 240 OFFCURVE",
"815 240 CURVE SMOOTH",
"1062 240 OFFCURVE",
"1186 404 OFFCURVE",
"1186 733 CURVE SMOOTH",
"1186 1062 OFFCURVE",
"1063 1227 OFFCURVE",
"817 1227 CURVE SMOOTH",
"570 1227 OFFCURVE",
"444 1060 OFFCURVE",
"444 733 CURVE SMOOTH"
);
}
);
width = 1630;
}
);
unicode = 0051;
},
{
glyphname = R;
layers = (
{
layerId = "F819D8FE-9E94-402B-BBDD-25FA288DB24B";
name = Bold;
paths = (
{
closed = 1;
nodes = (
"494 813 LINE",
"594 813 LINE SMOOTH",
"790 813 OFFCURVE",
"881 876 OFFCURVE",
"881 1016 CURVE SMOOTH",
"881 1155 OFFCURVE",
"788 1208 OFFCURVE",
"588 1208 CURVE SMOOTH",
"494 1208 LINE"
);
},
{
closed = 1;
nodes = (
"494 561 LINE",
"494 0 LINE",
"184 0 LINE",
"184 1462 LINE",
"610 1462 LINE SMOOTH",
"1007 1462 OFFCURVE",
"1194 1319 OFFCURVE",
"1194 1024 CURVE SMOOTH",
"1194 852 OFFCURVE",
"1095 713 OFFCURVE",
"922 637 CURVE",
"1142 308 OFFCURVE",
"1285 96 OFFCURVE",
"1352 0 CURVE",
"1008 0 LINE",
"659 561 LINE"
);
}
);
width = 1352;
}
);
unicode = 0052;
},
{
glyphname = S;
layers = (
{
layerId = "F819D8FE-9E94-402B-BBDD-25FA288DB24B";
name = Bold;
paths = (
{
closed = 1;
nodes = (
"1047 142 OFFCURVE",
"847 -20 OFFCURVE",
"508 -20 CURVE SMOOTH",
"352 -20 OFFCURVE",
"214 9 OFFCURVE",
"94 68 CURVE",
"94 356 LINE",
"291 268 OFFCURVE",
"419 236 OFFCURVE",
"532 236 CURVE SMOOTH",
"668 236 OFFCURVE",
"743 288 OFFCURVE",
"743 391 CURVE SMOOTH",
"743 448 OFFCURVE",
"711 491 OFFCURVE",
"649 532 CURVE SMOOTH",
"618 553 OFFCURVE",
"554 586 OFFCURVE",
"459 631 CURVE SMOOTH",
"280 715 OFFCURVE",
"204 784 OFFCURVE",
"151 887 CURVE SMOOTH",
"124 938 OFFCURVE",
"111 998 OFFCURVE",
"111 1067 CURVE SMOOTH",
"111 1326 OFFCURVE",
"297 1483 OFFCURVE",
"606 1483 CURVE SMOOTH",
"758 1483 OFFCURVE",
"889 1445 OFFCURVE",
"1040 1380 CURVE",
"940 1139 LINE",
"784 1203 OFFCURVE",
"695 1225 OFFCURVE",
"596 1225 CURVE SMOOTH",
"479 1225 OFFCURVE",
"414 1165 OFFCURVE",
"414 1077 CURVE SMOOTH",
"414 1022 OFFCURVE",
"438 985 OFFCURVE",
"494 947 CURVE SMOOTH",
"521 928 OFFCURVE",
"587 893 OFFCURVE",
"690 844 CURVE SMOOTH",
"963 713 OFFCURVE",
"1047 597 OFFCURVE",
"1047 406 CURVE SMOOTH"
);
}
);
width = 1128;
}
);
unicode = 0053;
},
{
glyphname = T;
layers = (
{
layerId = "F819D8FE-9E94-402B-BBDD-25FA288DB24B";
name = Bold;
paths = (
{
closed = 1;
nodes = (
"748 0 LINE",
"438 0 LINE",
"438 1204 LINE",
"41 1204 LINE",
"41 1462 LINE",
"1145 1462 LINE",
"1145 1204 LINE",
"748 1204 LINE"
);
}
);
width = 1186;
}
);
unicode = 0054;
},
{
glyphname = U;
layers = (
{
layerId = "F819D8FE-9E94-402B-BBDD-25FA288DB24B";
name = Bold;
paths = (
{
closed = 1;
nodes = (
"1374 1462 LINE",
"1374 516 LINE SMOOTH",
"1374 300 OFFCURVE",
"1275 132 OFFCURVE",
"1092 45 CURVE SMOOTH",
"1001 2 OFFCURVE",
"893 -20 OFFCURVE",
"768 -20 CURVE SMOOTH",
"392 -20 OFFCURVE",
"174 185 OFFCURVE",
"174 520 CURVE SMOOTH",
"174 1462 LINE",
"483 1462 LINE",
"483 567 LINE SMOOTH",
"483 342 OFFCURVE",
"567 240 OFFCURVE",
"776 240 CURVE SMOOTH",
"979 240 OFFCURVE",
"1065 342 OFFCURVE",
"1065 569 CURVE SMOOTH",
"1065 1462 LINE"
);
}
);
width = 1548;
}
);
unicode = 0055;
},
{
glyphname = V;
layers = (
{
layerId = "F819D8FE-9E94-402B-BBDD-25FA288DB24B";
name = Bold;
paths = (
{
closed = 1;
nodes = (
"1018 1462 LINE",
"1331 1462 LINE",
"834 0 LINE",
"496 0 LINE",
"0 1462 LINE",
"313 1462 LINE",
"588 592 LINE SMOOTH",
"619 489 OFFCURVE",
"658 323 OFFCURVE",
"666 270 CURVE",
"673 331 OFFCURVE",
"698 439 OFFCURVE",
"741 592 CURVE SMOOTH"
);
}
);
width = 1331;
}
);
unicode = 0056;
},
{
glyphname = W;
layers = (
{
layerId = "F819D8FE-9E94-402B-BBDD-25FA288DB24B";
name = Bold;
paths = (
{
closed = 1;
nodes = (
"1608 0 LINE",
"1255 0 LINE",
"1057 768 LINE SMOOTH",
"1042 823 OFFCURVE",
"994 1051 OFFCURVE",
"989 1110 CURVE",
"981 1038 OFFCURVE",
"939 834 OFFCURVE",
"922 766 CURVE SMOOTH",
"725 0 LINE",
"373 0 LINE",
"0 1462 LINE",
"305 1462 LINE",
"492 664 LINE SMOOTH",
"525 517 OFFCURVE",
"548 389 OFFCURVE",
"563 281 CURVE",
"571 357 OFFCURVE",
"606 555 OFFCURVE",
"631 643 CURVE SMOOTH",
"844 1462 LINE",
"1137 1462 LINE",
"1350 643 LINE SMOOTH",
"1369 570 OFFCURVE",
"1402 389 OFFCURVE",
"1417 281 CURVE",
"1430 385 OFFCURVE",
"1465 568 OFFCURVE",
"1489 664 CURVE SMOOTH",
"1675 1462 LINE",
"1980 1462 LINE"
);
}
);
width = 1980;
}
);
unicode = 0057;
},
{
glyphname = X;
layers = (
{
layerId = "F819D8FE-9E94-402B-BBDD-25FA288DB24B";
name = Bold;
paths = (
{
closed = 1;
nodes = (
"1366 0 LINE",
"1012 0 LINE",
"672 553 LINE",
"332 0 LINE",
"0 0 LINE",
"485 754 LINE",
"31 1462 LINE",
"373 1462 LINE",
"688 936 LINE",
"997 1462 LINE",
"1331 1462 LINE",
"872 737 LINE"
);
}
);
width = 1366;
}
);
unicode = 0058;
},
{
glyphname = Y;
layers = (
{
layerId = "F819D8FE-9E94-402B-BBDD-25FA288DB24B";
name = Bold;
paths = (
{
closed = 1;
nodes = (
"639 860 LINE",
"944 1462 LINE",
"1278 1462 LINE",
"793 569 LINE",
"793 0 LINE",
"485 0 LINE",
"485 559 LINE",
"0 1462 LINE",
"336 1462 LINE"
);
}
);
width = 1278;
}
);
unicode = 0059;
},
{
glyphname = Z;
layers = (
{
layerId = "F819D8FE-9E94-402B-BBDD-25FA288DB24B";
name = Bold;
paths = (
{
closed = 1;
nodes = (
"1137 0 LINE",
"49 0 LINE",
"49 201 LINE",
"750 1206 LINE",
"68 1206 LINE",
"68 1462 LINE",
"1118 1462 LINE",
"1118 1262 LINE",
"418 256 LINE",
"1137 256 LINE"
);
}
);
width = 1186;
}
);
unicode = 005A;
},
{
glyphname = bracketleft;
layers = (
{
layerId = "F819D8FE-9E94-402B-BBDD-25FA288DB24B";
name = Bold;
paths = (
{
closed = 1;
nodes = (
"627 -324 LINE",
"143 -324 LINE",
"143 1462 LINE",
"627 1462 LINE",
"627 1251 LINE",
"403 1251 LINE",
"403 -113 LINE",
"627 -113 LINE"
);
}
);
width = 678;
}
);
unicode = 005B;
},
{
glyphname = backslash;
layers = (
{
layerId = "F819D8FE-9E94-402B-BBDD-25FA288DB24B";
name = Bold;
paths = (
{
closed = 1;
nodes = (
"289 1462 LINE",
"834 0 LINE",
"557 0 LINE",
"12 1462 LINE"
);
}
);
width = 846;
}
);
unicode = 005C;
},
{
glyphname = bracketright;
layers = (
{
layerId = "F819D8FE-9E94-402B-BBDD-25FA288DB24B";
name = Bold;
paths = (
{
closed = 1;
nodes = (
"51 -113 LINE",
"274 -113 LINE",
"274 1251 LINE",
"51 1251 LINE",
"51 1462 LINE",
"535 1462 LINE",
"535 -324 LINE",
"51 -324 LINE"
);
}
);
width = 678;
}
);
unicode = 005D;
},
{
glyphname = asciicircum;
layers = (
{
layerId = "F819D8FE-9E94-402B-BBDD-25FA288DB24B";
name = Bold;
paths = (
{
closed = 1;
nodes = (
"8 520 LINE",
"446 1470 LINE",
"590 1470 LINE",
"1085 520 LINE",
"846 520 LINE",
"524 1163 LINE",
"244 520 LINE"
);
}
);
width = 1090;
}
);
unicode = 005E;
},
{
glyphname = underscore;
layers = (
{
layerId = "F819D8FE-9E94-402B-BBDD-25FA288DB24B";
name = Bold;
paths = (
{
closed = 1;
nodes = (
"846 -324 LINE",
"-4 -324 LINE",
"-4 -184 LINE",
"846 -184 LINE"
);
}
);
width = 842;
}
);
unicode = 005F;
},
{
glyphname = grave;
layers = (
{
layerId = "F819D8FE-9E94-402B-BBDD-25FA288DB24B";
name = Bold;
paths = (
{
closed = 1;
nodes = (
"707 1241 LINE",
"623 1300 OFFCURVE",
"423 1460 OFFCURVE",
"332 1548 CURVE",
"332 1569 LINE",
"674 1569 LINE",
"716 1502 OFFCURVE",
"794 1401 OFFCURVE",
"909 1268 CURVE",
"909 1241 LINE"
);
}
);
width = 1243;
}
);
unicode = 0060;
},
{
glyphname = a;
layers = (
{
layerId = "F819D8FE-9E94-402B-BBDD-25FA288DB24B";
name = Bold;
paths = (
{
closed = 1;
nodes = (
"870 0 LINE",
"811 152 LINE",
"803 152 LINE",
"700 23 OFFCURVE",
"607 -20 OFFCURVE",
"432 -20 CURVE SMOOTH",
"217 -20 OFFCURVE",
"86 107 OFFCURVE",
"86 334 CURVE SMOOTH",
"86 571 OFFCURVE",
"251 678 OFFCURVE",
"586 690 CURVE SMOOTH",
"780 696 LINE",
"780 745 LINE SMOOTH",
"780 858 OFFCURVE",
"722 915 OFFCURVE",
"606 915 CURVE SMOOTH",
"517 915 OFFCURVE",
"412 888 OFFCURVE",
"291 834 CURVE",
"190 1040 LINE",
"319 1107 OFFCURVE",
"461 1141 OFFCURVE",
"618 1141 CURVE SMOOTH",
"918 1141 OFFCURVE",
"1083 1012 OFFCURVE",
"1083 745 CURVE SMOOTH",
"1083 0 LINE"
);
},
{
closed = 1;
nodes = (
"780 518 LINE",
"662 514 LINE SMOOTH",
"485 509 OFFCURVE",
"399 452 OFFCURVE",
"399 332 CURVE SMOOTH",
"399 246 OFFCURVE",
"448 203 OFFCURVE",
"547 203 CURVE SMOOTH",
"688 203 OFFCURVE",
"780 291 OFFCURVE",
"780 426 CURVE SMOOTH"
);
}
);
width = 1237;
}
);
unicode = 0061;
},
{
glyphname = b;
layers = (
{
layerId = "F819D8FE-9E94-402B-BBDD-25FA288DB24B";
name = Bold;
paths = (
{
closed = 1;
nodes = (
"1046 1139 OFFCURVE",
"1204 920 OFFCURVE",
"1204 561 CURVE SMOOTH",
"1204 192 OFFCURVE",
"1039 -20 OFFCURVE",
"774 -20 CURVE SMOOTH",
"643 -20 OFFCURVE",
"540 28 OFFCURVE",
"465 123 CURVE",
"444 123 LINE",
"393 0 LINE",
"160 0 LINE",
"160 1556 LINE",
"465 1556 LINE",
"465 1194 LINE SMOOTH",
"465 1148 OFFCURVE",
"461 1074 OFFCURVE",
"453 973 CURVE",
"465 973 LINE",
"536 1084 OFFCURVE",
"642 1139 OFFCURVE",
"782 1139 CURVE SMOOTH"
);
},
{
closed = 1;
nodes = (
"533 895 OFFCURVE",
"468 809 OFFCURVE",
"465 596 CURVE SMOOTH",
"465 563 LINE SMOOTH",
"465 323 OFFCURVE",
"533 227 OFFCURVE",
"688 227 CURVE SMOOTH",
"813 227 OFFCURVE",
"893 345 OFFCURVE",
"893 565 CURVE SMOOTH",
"893 785 OFFCURVE",
"813 895 OFFCURVE",
"684 895 CURVE SMOOTH"
);
}
);
width = 1296;
}
);
unicode = 0062;
},
{
glyphname = c;
layers = (
{
layerId = "F819D8FE-9E94-402B-BBDD-25FA288DB24B";
name = Bold;
paths = (
{
closed = 1;
nodes = (
"266 -20 OFFCURVE",
"92 171 OFFCURVE",
"92 553 CURVE SMOOTH",
"92 933 OFFCURVE",
"288 1139 OFFCURVE",
"641 1139 CURVE SMOOTH",
"770 1139 OFFCURVE",
"886 1114 OFFCURVE",
"989 1063 CURVE",
"899 827 LINE",
"803 866 OFFCURVE",
"724 893 OFFCURVE",
"641 893 CURVE SMOOTH",
"482 893 OFFCURVE",
"403 780 OFFCURVE",
"403 555 CURVE SMOOTH",
"403 336 OFFCURVE",
"482 227 OFFCURVE",
"641 227 CURVE SMOOTH",
"758 227 OFFCURVE",
"854 257 OFFCURVE",
"954 324 CURVE",
"954 63 LINE",
"855 0 OFFCURVE",
"767 -20 OFFCURVE",
"614 -20 CURVE SMOOTH"
);
}
);
width = 1053;
}
);
unicode = 0063;
},
{
glyphname = d;
layers = (
{
layerId = "F819D8FE-9E94-402B-BBDD-25FA288DB24B";
name = Bold;
paths = (
{
closed = 1;
nodes = (
"251 -20 OFFCURVE",
"92 196 OFFCURVE",
"92 557 CURVE SMOOTH",
"92 924 OFFCURVE",
"254 1139 OFFCURVE",
"522 1139 CURVE SMOOTH",
"663 1139 OFFCURVE",
"770 1084 OFFCURVE",
"844 975 CURVE",
"854 975 LINE",
"839 1058 OFFCURVE",
"831 1133 OFFCURVE",
"831 1198 CURVE SMOOTH",
"831 1556 LINE",
"1137 1556 LINE",
"1137 0 LINE",
"903 0 LINE",
"844 145 LINE",
"831 145 LINE",
"762 35 OFFCURVE",
"656 -20 OFFCURVE",
"514 -20 CURVE SMOOTH"
);
},
{
closed = 1;
nodes = (
"777 223 OFFCURVE",
"845 305 OFFCURVE",
"852 522 CURVE SMOOTH",
"852 555 LINE SMOOTH",
"852 795 OFFCURVE",
"783 891 OFFCURVE",
"616 891 CURVE SMOOTH",
"480 891 OFFCURVE",
"401 773 OFFCURVE",
"401 553 CURVE SMOOTH",
"401 333 OFFCURVE",
"480 223 OFFCURVE",
"621 223 CURVE SMOOTH"
);
}
);
width = 1296;
}
);
unicode = 0064;
},
{
glyphname = e;
layers = (
{
layerId = "F819D8FE-9E94-402B-BBDD-25FA288DB24B";
name = Bold;
paths = (
{
closed = 1;
nodes = (
"494 922 OFFCURVE",
"419 837 OFFCURVE",
"408 686 CURVE",
"836 686 LINE",
"833 837 OFFCURVE",
"752 922 OFFCURVE",
"623 922 CURVE SMOOTH"
);
},
{
closed = 1;
nodes = (
"306 -20 OFFCURVE",
"92 187 OFFCURVE",
"92 551 CURVE SMOOTH",
"92 926 OFFCURVE",
"290 1139 OFFCURVE",
"621 1139 CURVE SMOOTH",
"937 1139 OFFCURVE",
"1122 948 OFFCURVE",
"1122 631 CURVE SMOOTH",
"1122 483 LINE",
"401 483 LINE",
"408 310 OFFCURVE",
"507 207 OFFCURVE",
"680 207 CURVE SMOOTH",
"815 207 OFFCURVE",
"928 234 OFFCURVE",
"1059 295 CURVE",
"1059 59 LINE",
"952 6 OFFCURVE",
"841 -20 OFFCURVE",
"666 -20 CURVE SMOOTH"
);
}
);
width = 1210;
}
);
unicode = 0065;
},
{
glyphname = f;
layers = (
{
layerId = "F819D8FE-9E94-402B-BBDD-25FA288DB24B";
name = Bold;
paths = (
{
closed = 1;
nodes = (
"778 889 LINE",
"514 889 LINE",
"514 0 LINE",
"209 0 LINE",
"209 889 LINE",
"41 889 LINE",
"41 1036 LINE",
"209 1118 LINE",
"209 1200 LINE SMOOTH",
"209 1455 OFFCURVE",
"328 1567 OFFCURVE",
"604 1567 CURVE SMOOTH",
"709 1567 OFFCURVE",
"803 1551 OFFCURVE",
"885 1520 CURVE",
"807 1296 LINE",
"746 1315 OFFCURVE",
"689 1325 OFFCURVE",
"637 1325 CURVE SMOOTH",
"550 1325 OFFCURVE",
"514 1268 OFFCURVE",
"514 1188 CURVE SMOOTH",
"514 1118 LINE",
"778 1118 LINE"
);
}
);
width = 793;
}
);
unicode = 0066;
},
{
glyphname = g;
layers = (
{
layerId = "F819D8FE-9E94-402B-BBDD-25FA288DB24B";
name = Bold;
paths = (
{
closed = 1;
nodes = (
"1133 1118 LINE",
"1133 963 LINE",
"958 918 LINE",
"990 868 OFFCURVE",
"1006 812 OFFCURVE",
"1006 750 CURVE SMOOTH",
"1006 510 OFFCURVE",
"829 369 OFFCURVE",
"532 369 CURVE",
"477 372 LINE",
"432 377 LINE",
"401 353 OFFCURVE",
"385 326 OFFCURVE",
"385 297 CURVE SMOOTH",
"385 253 OFFCURVE",
"441 231 OFFCURVE",
"553 231 CURVE SMOOTH",
"743 231 LINE SMOOTH",
"988 231 OFFCURVE",
"1120 124 OFFCURVE",
"1120 -80 CURVE SMOOTH",
"1120 -341 OFFCURVE",
"895 -492 OFFCURVE",
"487 -492 CURVE SMOOTH",
"175 -492 OFFCURVE",
"6 -378 OFFCURVE",
"6 -182 CURVE SMOOTH",
"6 -47 OFFCURVE",
"91 45 OFFCURVE",
"254 84 CURVE",
"191 111 OFFCURVE",
"137 178 OFFCURVE",
"137 246 CURVE SMOOTH",
"137 331 OFFCURVE",
"188 381 OFFCURVE",
"281 436 CURVE",
"164 487 OFFCURVE",
"90 604 OFFCURVE",
"90 756 CURVE SMOOTH",
"90 1000 OFFCURVE",
"254 1139 OFFCURVE",
"549 1139 CURVE SMOOTH",
"612 1139 OFFCURVE",
"719 1123 OFFCURVE",
"743 1118 CURVE"
);
},
{
closed = 1;
nodes = (
"270 -242 OFFCURVE",
"355 -293 OFFCURVE",
"500 -293 CURVE SMOOTH",
"719 -293 OFFCURVE",
"850 -229 OFFCURVE",
"850 -125 CURVE SMOOTH",
"850 -41 OFFCURVE",
"778 -14 OFFCURVE",
"625 -14 CURVE SMOOTH",
"467 -14 LINE SMOOTH",
"355 -14 OFFCURVE",
"270 -71 OFFCURVE",
"270 -158 CURVE SMOOTH"
);
},
{
closed = 1;
nodes = (
"381 631 OFFCURVE",
"436 555 OFFCURVE",
"549 555 CURVE SMOOTH",
"664 555 OFFCURVE",
"715 631 OFFCURVE",
"715 752 CURVE SMOOTH",
"715 887 OFFCURVE",
"660 954 OFFCURVE",
"549 954 CURVE SMOOTH",
"437 954 OFFCURVE",
"381 887 OFFCURVE",
"381 752 CURVE SMOOTH"
);
}
);
width = 1157;
}
);
unicode = 0067;
},
{
glyphname = h;
layers = (
{
layerId = "F819D8FE-9E94-402B-BBDD-25FA288DB24B";
name = Bold;
paths = (
{
closed = 1;
nodes = (
"1192 0 LINE",
"887 0 LINE",
"887 653 LINE SMOOTH",
"887 814 OFFCURVE",
"827 895 OFFCURVE",
"707 895 CURVE SMOOTH",
"536 895 OFFCURVE",
"465 786 OFFCURVE",
"465 526 CURVE SMOOTH",
"465 0 LINE",
"160 0 LINE",
"160 1556 LINE",
"465 1556 LINE",
"465 1239 LINE SMOOTH",
"465 1214 OFFCURVE",
"463 1156 OFFCURVE",
"458 1065 CURVE SMOOTH",
"451 975 LINE",
"467 975 LINE",
"535 1084 OFFCURVE",
"643 1139 OFFCURVE",
"791 1139 CURVE SMOOTH",
"1054 1139 OFFCURVE",
"1192 993 OFFCURVE",
"1192 729 CURVE SMOOTH"
);
}
);
width = 1346;
}
);
unicode = 0068;
},
{
glyphname = i;
layers = (
{
layerId = "F819D8FE-9E94-402B-BBDD-25FA288DB24B";
name = Bold;
paths = (
{
closed = 1;
nodes = (
"147 1506 OFFCURVE",
"202 1556 OFFCURVE",
"313 1556 CURVE SMOOTH",
"424 1556 OFFCURVE",
"479 1506 OFFCURVE",
"479 1407 CURVE SMOOTH",
"479 1312 OFFCURVE",
"424 1257 OFFCURVE",
"313 1257 CURVE SMOOTH",
"202 1257 OFFCURVE",
"147 1307 OFFCURVE",
"147 1407 CURVE SMOOTH"
);
},
{
closed = 1;
nodes = (
"465 0 LINE",
"160 0 LINE",
"160 1118 LINE",
"465 1118 LINE"
);
}
);
width = 625;
}
);
unicode = 0069;
},
{
glyphname = j;
layers = (
{
layerId = "F819D8FE-9E94-402B-BBDD-25FA288DB24B";
name = Bold;
paths = (
{
closed = 1;
nodes = (
"-8 -492 OFFCURVE",
"-75 -484 OFFCURVE",
"-131 -467 CURVE",
"-131 -227 LINE",
"-84 -240 OFFCURVE",
"-37 -246 OFFCURVE",
"12 -246 CURVE SMOOTH",
"115 -246 OFFCURVE",
"160 -188 OFFCURVE",
"160 -76 CURVE SMOOTH",
"160 1118 LINE",
"465 1118 LINE",
"465 -121 LINE SMOOTH",
"465 -358 OFFCURVE",
"322 -492 OFFCURVE",
"70 -492 CURVE SMOOTH"
);
},
{
closed = 1;
nodes = (
"147 1506 OFFCURVE",
"202 1556 OFFCURVE",
"313 1556 CURVE SMOOTH",
"424 1556 OFFCURVE",
"479 1506 OFFCURVE",
"479 1407 CURVE SMOOTH",
"479 1312 OFFCURVE",
"424 1257 OFFCURVE",
"313 1257 CURVE SMOOTH",
"202 1257 OFFCURVE",
"147 1307 OFFCURVE",
"147 1407 CURVE SMOOTH"
);
}
);
width = 625;
}
);
unicode = 006A;
},
{
glyphname = k;
layers = (
{
layerId = "F819D8FE-9E94-402B-BBDD-25FA288DB24B";
name = Bold;
paths = (
{
closed = 1;
nodes = (
"453 608 LINE",
"586 778 LINE",
"899 1118 LINE",
"1243 1118 LINE",
"799 633 LINE",
"1270 0 LINE",
"918 0 LINE",
"596 453 LINE",
"465 348 LINE",
"465 0 LINE",
"160 0 LINE",
"160 1556 LINE",
"465 1556 LINE",
"465 862 LINE",
"449 608 LINE"
);
}
);
width = 1270;
}
);
unicode = 006B;
},
{
glyphname = l;
layers = (
{
layerId = "F819D8FE-9E94-402B-BBDD-25FA288DB24B";
name = Bold;
paths = (
{
closed = 1;
nodes = (
"465 0 LINE",
"160 0 LINE",
"160 1556 LINE",
"465 1556 LINE"
);
}
);
width = 625;
}
);
unicode = 006C;
},
{
glyphname = m;
layers = (
{
layerId = "F819D8FE-9E94-402B-BBDD-25FA288DB24B";
name = Bold;
paths = (
{
closed = 1;
nodes = (
"1161 0 LINE",
"856 0 LINE",
"856 653 LINE SMOOTH",
"856 814 OFFCURVE",
"804 895 OFFCURVE",
"688 895 CURVE SMOOTH",
"532 895 OFFCURVE",
"465 789 OFFCURVE",
"465 526 CURVE SMOOTH",
"465 0 LINE",
"160 0 LINE",
"160 1118 LINE",
"393 1118 LINE",
"434 975 LINE",
"451 975 LINE",
"511 1078 OFFCURVE",
"629 1139 OFFCURVE",
"776 1139 CURVE SMOOTH",
"943 1139 OFFCURVE",
"1057 1084 OFFCURVE",
"1116 975 CURVE",
"1143 975 LINE",
"1203 1079 OFFCURVE",
"1326 1139 OFFCURVE",
"1473 1139 CURVE SMOOTH",
"1726 1139 OFFCURVE",
"1858 1016 OFFCURVE",
"1858 729 CURVE SMOOTH",
"1858 0 LINE",
"1552 0 LINE",
"1552 653 LINE SMOOTH",
"1552 814 OFFCURVE",
"1500 895 OFFCURVE",
"1384 895 CURVE SMOOTH",
"1235 895 OFFCURVE",
"1161 793 OFFCURVE",
"1161 561 CURVE SMOOTH"
);
}
);
width = 2011;
}
);
unicode = 006D;
},
{
glyphname = n;
layers = (
{
layerId = "F819D8FE-9E94-402B-BBDD-25FA288DB24B";
name = Bold;
paths = (
{
closed = 1;
nodes = (
"1192 0 LINE",
"887 0 LINE",
"887 653 LINE SMOOTH",
"887 814 OFFCURVE",
"832 895 OFFCURVE",
"707 895 CURVE SMOOTH",
"536 895 OFFCURVE",
"465 790 OFFCURVE",
"465 526 CURVE SMOOTH",
"465 0 LINE",
"160 0 LINE",
"160 1118 LINE",
"393 1118 LINE",
"434 975 LINE",
"451 975 LINE",
"519 1083 OFFCURVE",
"643 1139 OFFCURVE",
"795 1139 CURVE SMOOTH",
"1055 1139 OFFCURVE",
"1192 994 OFFCURVE",
"1192 729 CURVE SMOOTH"
);
}
);
width = 1346;
}
);
unicode = 006E;
},
{
glyphname = o;
layers = (
{
layerId = "F819D8FE-9E94-402B-BBDD-25FA288DB24B";
name = Bold;
paths = (
{
closed = 1;
nodes = (
"403 340 OFFCURVE",
"471 225 OFFCURVE",
"635 225 CURVE SMOOTH",
"798 225 OFFCURVE",
"864 338 OFFCURVE",
"864 561 CURVE SMOOTH",
"864 782 OFFCURVE",
"797 893 OFFCURVE",
"633 893 CURVE SMOOTH",
"470 893 OFFCURVE",
"403 784 OFFCURVE",
"403 561 CURVE SMOOTH"
);
},
{
closed = 1;
nodes = (
"1176 197 OFFCURVE",
"974 -20 OFFCURVE",
"631 -20 CURVE SMOOTH",
"416 -20 OFFCURVE",
"246 77 OFFCURVE",
"158 253 CURVE SMOOTH",
"114 341 OFFCURVE",
"92 444 OFFCURVE",
"92 561 CURVE SMOOTH",
"92 926 OFFCURVE",
"292 1139 OFFCURVE",
"637 1139 CURVE SMOOTH",
"852 1139 OFFCURVE",
"1022 1043 OFFCURVE",
"1110 868 CURVE SMOOTH",
"1154 781 OFFCURVE",
"1176 678 OFFCURVE",
"1176 561 CURVE SMOOTH"
);
}
);
width = 1268;
}
);
unicode = 006F;
},
{
glyphname = p;
layers = (
{
layerId = "F819D8FE-9E94-402B-BBDD-25FA288DB24B";
name = Bold;
paths = (
{
closed = 1;
nodes = (
"643 -20 OFFCURVE",
"540 28 OFFCURVE",
"465 123 CURVE",
"449 123 LINE",
"460 30 OFFCURVE",
"465 -24 OFFCURVE",
"465 -39 CURVE SMOOTH",
"465 -492 LINE",
"160 -492 LINE",
"160 1118 LINE",
"408 1118 LINE",
"451 973 LINE",
"465 973 LINE",
"536 1084 OFFCURVE",
"642 1139 OFFCURVE",
"782 1139 CURVE SMOOTH",
"1046 1139 OFFCURVE",
"1204 924 OFFCURVE",
"1204 561 CURVE SMOOTH",
"1204 322 OFFCURVE",
"1131 141 OFFCURVE",
"1002 49 CURVE SMOOTH",
"937 3 OFFCURVE",
"861 -20 OFFCURVE",
"774 -20 CURVE SMOOTH"
);
},
{
closed = 1;
nodes = (
"533 895 OFFCURVE",
"468 809 OFFCURVE",
"465 596 CURVE SMOOTH",
"465 563 LINE SMOOTH",
"465 323 OFFCURVE",
"533 227 OFFCURVE",
"688 227 CURVE SMOOTH",
"825 227 OFFCURVE",
"893 340 OFFCURVE",
"893 565 CURVE SMOOTH",
"893 785 OFFCURVE",
"828 895 OFFCURVE",
"684 895 CURVE SMOOTH"
);
}
);
width = 1296;
}
);
unicode = 0070;
},
{
glyphname = q;
layers = (
{
layerId = "F819D8FE-9E94-402B-BBDD-25FA288DB24B";
name = Bold;
paths = (
{
closed = 1;
nodes = (
"778 219 OFFCURVE",
"845 297 OFFCURVE",
"852 518 CURVE SMOOTH",
"852 555 LINE SMOOTH",
"852 795 OFFCURVE",
"782 891 OFFCURVE",
"618 891 CURVE SMOOTH",
"475 891 OFFCURVE",
"403 778 OFFCURVE",
"403 553 CURVE SMOOTH",
"403 329 OFFCURVE",
"472 219 OFFCURVE",
"623 219 CURVE SMOOTH"
);
},
{
closed = 1;
nodes = (
"250 -20 OFFCURVE",
"92 194 OFFCURVE",
"92 557 CURVE SMOOTH",
"92 922 OFFCURVE",
"255 1139 OFFCURVE",
"520 1139 CURVE SMOOTH",
"661 1139 OFFCURVE",
"764 1087 OFFCURVE",
"844 975 CURVE",
"852 975 LINE",
"879 1118 LINE",
"1137 1118 LINE",
"1137 -492 LINE",
"831 -492 LINE",
"831 -23 LINE SMOOTH",
"831 18 OFFCURVE",
"835 74 OFFCURVE",
"844 145 CURVE",
"831 145 LINE",
"766 37 OFFCURVE",
"655 -20 OFFCURVE",
"514 -20 CURVE SMOOTH"
);
}
);
width = 1296;
}
);
unicode = 0071;
},
{
glyphname = r;
layers = (
{
layerId = "F819D8FE-9E94-402B-BBDD-25FA288DB24B";
name = Bold;
paths = (
{
closed = 1;
nodes = (
"825 1139 OFFCURVE",
"860 1136 OFFCURVE",
"887 1130 CURVE",
"864 844 LINE",
"839 851 OFFCURVE",
"809 854 OFFCURVE",
"774 854 CURVE SMOOTH",
"579 854 OFFCURVE",
"465 749 OFFCURVE",
"465 569 CURVE SMOOTH",
"465 0 LINE",
"160 0 LINE",
"160 1118 LINE",
"391 1118 LINE",
"436 930 LINE",
"451 930 LINE",
"520 1055 OFFCURVE",
"645 1139 OFFCURVE",
"784 1139 CURVE SMOOTH"
);
}
);
width = 930;
}
);
unicode = 0072;
},
{
glyphname = s;
layers = (
{
layerId = "F819D8FE-9E94-402B-BBDD-25FA288DB24B";
name = Bold;
paths = (
{
closed = 1;
nodes = (
"940 103 OFFCURVE",
"780 -20 OFFCURVE",
"463 -20 CURVE SMOOTH",
"300 -20 OFFCURVE",
"194 2 OFFCURVE",
"94 45 CURVE",
"94 297 LINE",
"207 244 OFFCURVE",
"365 203 OFFCURVE",
"473 203 CURVE SMOOTH",
"584 203 OFFCURVE",
"639 235 OFFCURVE",
"639 299 CURVE SMOOTH",
"639 347 OFFCURVE",
"613 371 OFFCURVE",
"541 409 CURVE SMOOTH",
"505 428 OFFCURVE",
"457 450 OFFCURVE",
"397 475 CURVE SMOOTH",
"225 547 OFFCURVE",
"156 601 OFFCURVE",
"120 681 CURVE SMOOTH",
"101 720 OFFCURVE",
"92 769 OFFCURVE",
"92 827 CURVE SMOOTH",
"92 1026 OFFCURVE",
"252 1139 OFFCURVE",
"535 1139 CURVE SMOOTH",
"670 1139 OFFCURVE",
"801 1110 OFFCURVE",
"928 1051 CURVE",
"836 831 LINE",
"724 879 OFFCURVE",
"631 913 OFFCURVE",
"530 913 CURVE SMOOTH",
"440 913 OFFCURVE",
"395 889 OFFCURVE",
"395 840 CURVE SMOOTH",
"395 813 OFFCURVE",
"410 789 OFFCURVE",
"439 769 CURVE SMOOTH",
"468 749 OFFCURVE",
"531 719 OFFCURVE",
"629 680 CURVE SMOOTH",
"804 609 OFFCURVE",
"872 555 OFFCURVE",
"911 475 CURVE SMOOTH",
"930 435 OFFCURVE",
"940 387 OFFCURVE",
"940 332 CURVE SMOOTH"
);
}
);
width = 1018;
}
);
unicode = 0073;
},
{
glyphname = t;
layers = (
{
layerId = "F819D8FE-9E94-402B-BBDD-25FA288DB24B";
name = Bold;
paths = (
{
closed = 1;
nodes = (
"684 223 OFFCURVE",
"748 235 OFFCURVE",
"823 258 CURVE",
"823 31 LINE",
"747 -3 OFFCURVE",
"654 -20 OFFCURVE",
"543 -20 CURVE SMOOTH",
"299 -20 OFFCURVE",
"193 103 OFFCURVE",
"193 350 CURVE SMOOTH",
"193 889 LINE",
"47 889 LINE",
"47 1018 LINE",
"215 1120 LINE",
"303 1356 LINE",
"498 1356 LINE",
"498 1118 LINE",
"811 1118 LINE",
"811 889 LINE",
"498 889 LINE",
"498 350 LINE SMOOTH",
"498 263 OFFCURVE",
"551 223 OFFCURVE",
"631 223 CURVE SMOOTH"
);
}
);
width = 889;
}
);
unicode = 0074;
},
{
glyphname = u;
layers = (
{
layerId = "F819D8FE-9E94-402B-BBDD-25FA288DB24B";
name = Bold;
paths = (
{
closed = 1;
nodes = (
"952 0 LINE",
"911 143 LINE",
"895 143 LINE",
"830 39 OFFCURVE",
"704 -20 OFFCURVE",
"551 -20 CURVE SMOOTH",
"288 -20 OFFCURVE",
"154 125 OFFCURVE",
"154 389 CURVE SMOOTH",
"154 1118 LINE",
"459 1118 LINE",
"459 465 LINE SMOOTH",
"459 304 OFFCURVE",
"514 223 OFFCURVE",
"639 223 CURVE SMOOTH",
"810 223 OFFCURVE",
"881 328 OFFCURVE",
"881 592 CURVE SMOOTH",
"881 1118 LINE",
"1186 1118 LINE",
"1186 0 LINE"
);
}
);
width = 1346;
}
);
unicode = 0075;
},
{
glyphname = v;
layers = (
{
layerId = "F819D8FE-9E94-402B-BBDD-25FA288DB24B";
name = Bold;
paths = (
{
closed = 1;
nodes = (
"426 0 LINE",
"0 1118 LINE",
"319 1118 LINE",
"535 481 LINE",
"559 400 OFFCURVE",
"574 324 OFFCURVE",
"580 252 CURVE",
"586 252 LINE",
"589 316 OFFCURVE",
"604 392 OFFCURVE",
"631 481 CURVE SMOOTH",
"846 1118 LINE",
"1165 1118 LINE",
"739 0 LINE"
);
}
);
width = 1165;
}
);
unicode = 0076;
},
{
glyphname = w;
layers = (
{
layerId = "F819D8FE-9E94-402B-BBDD-25FA288DB24B";
name = Bold;
paths = (
{
closed = 1;
nodes = (
"1079 0 LINE",
"993 391 LINE",
"877 885 LINE",
"870 885 LINE",
"666 0 LINE",
"338 0 LINE",
"20 1118 LINE",
"324 1118 LINE",
"453 623 LINE SMOOTH",
"474 534 OFFCURVE",
"495 412 OFFCURVE",
"516 256 CURVE",
"522 256 LINE",
"525 307 OFFCURVE",
"536 387 OFFCURVE",
"557 497 CURVE SMOOTH",
"573 582 LINE",
"711 1118 LINE",
"1047 1118 LINE",
"1178 582 LINE",
"1181 567 OFFCURVE",
"1185 546 OFFCURVE",
"1191 517 CURVE SMOOTH",
"1202 460 OFFCURVE",
"1213 393 OFFCURVE",
"1222 331 CURVE SMOOTH",
"1226 300 OFFCURVE",
"1228 275 OFFCURVE",
"1229 256 CURVE",
"1235 256 LINE",
"1247 352 OFFCURVE",
"1287 564 OFFCURVE",
"1300 623 CURVE",
"1434 1118 LINE",
"1733 1118 LINE",
"1411 0 LINE"
);
}
);
width = 1753;
}
);
unicode = 0077;
},
{
glyphname = x;
layers = (
{
layerId = "F819D8FE-9E94-402B-BBDD-25FA288DB24B";
name = Bold;
paths = (
{
closed = 1;
nodes = (
"389 571 LINE",
"29 1118 LINE",
"375 1118 LINE",
"592 762 LINE",
"811 1118 LINE",
"1157 1118 LINE",
"793 571 LINE",
"1174 0 LINE",
"827 0 LINE",
"592 383 LINE",
"356 0 LINE",
"10 0 LINE"
);
}
);
width = 1184;
}
);
unicode = 0078;
},
{
glyphname = y;
layers = (
{
layerId = "F819D8FE-9E94-402B-BBDD-25FA288DB24B";
name = Bold;
paths = (
{
closed = 1;
nodes = (
"0 1118 LINE",
"334 1118 LINE",
"545 489 LINE SMOOTH",
"563 434 OFFCURVE",
"575 370 OFFCURVE",
"582 295 CURVE",
"588 295 LINE",
"595 364 OFFCURVE",
"610 428 OFFCURVE",
"631 489 CURVE SMOOTH",
"838 1118 LINE",
"1165 1118 LINE",
"692 -143 LINE SMOOTH",
"605 -376 OFFCURVE",
"440 -492 OFFCURVE",
"225 -492 CURVE SMOOTH",
"172 -492 OFFCURVE",
"121 -486 OFFCURVE",
"70 -475 CURVE",
"70 -233 LINE",
"107 -242 OFFCURVE",
"147 -246 OFFCURVE",
"190 -246 CURVE SMOOTH",
"298 -246 OFFCURVE",
"381 -180 OFFCURVE",
"426 -47 CURVE SMOOTH",
"444 8 LINE"
);
}
);
width = 1165;
}
);
unicode = 0079;
},
{
glyphname = z;
layers = (
{
layerId = "F819D8FE-9E94-402B-BBDD-25FA288DB24B";
name = Bold;
paths = (
{
closed = 1;
nodes = (
"938 0 LINE",
"55 0 LINE",
"55 180 LINE",
"573 885 LINE",
"86 885 LINE",
"86 1118 LINE",
"920 1118 LINE",
"920 920 LINE",
"416 233 LINE",
"938 233 LINE"
);
}
);
width = 999;
}
);
unicode = 007A;
},
{
glyphname = braceleft;
layers = (
{
layerId = "F819D8FE-9E94-402B-BBDD-25FA288DB24B";
name = Bold;
paths = (
{
closed = 1;
nodes = (
"287 270 LINE SMOOTH",
"287 386 OFFCURVE",
"198 449 OFFCURVE",
"31 449 CURVE",
"31 688 LINE",
"199 688 OFFCURVE",
"287 749 OFFCURVE",
"287 858 CURVE SMOOTH",
"287 866 LINE",
"287 1184 LINE SMOOTH",
"287 1388 OFFCURVE",
"400 1462 OFFCURVE",
"725 1462 CURVE",
"725 1237 LINE",
"593 1233 OFFCURVE",
"551 1187 OFFCURVE",
"551 1096 CURVE SMOOTH",
"551 797 LINE SMOOTH",
"547 672 OFFCURVE",
"469 598 OFFCURVE",
"317 575 CURVE",
"317 563 LINE",
"473 540 OFFCURVE",
"551 469 OFFCURVE",
"551 351 CURVE SMOOTH",
"551 342 LINE",
"551 43 LINE SMOOTH",
"551 -48 OFFCURVE",
"592 -94 OFFCURVE",
"725 -98 CURVE",
"725 -324 LINE",
"400 -324 OFFCURVE",
"287 -250 OFFCURVE",
"287 -45 CURVE SMOOTH"
);
}
);
width = 807;
}
);
unicode = 007B;
},
{
glyphname = bar;
layers = (
{
layerId = "F819D8FE-9E94-402B-BBDD-25FA288DB24B";
name = Bold;
paths = (
{
closed = 1;
nodes = (
"455 1550 LINE",
"674 1550 LINE",
"674 -465 LINE",
"455 -465 LINE"
);
}
);
width = 1128;
}
);
unicode = 007C;
},
{
glyphname = braceright;
layers = (
{
layerId = "F819D8FE-9E94-402B-BBDD-25FA288DB24B";
name = Bold;
paths = (
{
closed = 1;
nodes = (
"520 -45 LINE SMOOTH",
"520 -194 OFFCURVE",
"470 -262 OFFCURVE",
"344 -297 CURVE SMOOTH",
"281 -315 OFFCURVE",
"193 -324 OFFCURVE",
"82 -324 CURVE",
"82 -98 LINE",
"214 -95 OFFCURVE",
"256 -52 OFFCURVE",
"256 43 CURVE SMOOTH",
"256 342 LINE",
"256 353 LINE SMOOTH",
"256 468 OFFCURVE",
"336 540 OFFCURVE",
"489 563 CURVE",
"489 575 LINE",
"338 598 OFFCURVE",
"260 672 OFFCURVE",
"256 797 CURVE",
"256 1096 LINE SMOOTH",
"256 1189 OFFCURVE",
"215 1233 OFFCURVE",
"82 1237 CURVE",
"82 1462 LINE",
"305 1462 OFFCURVE",
"426 1428 OFFCURVE",
"480 1352 CURVE SMOOTH",
"507 1313 OFFCURVE",
"520 1257 OFFCURVE",
"520 1184 CURVE SMOOTH",
"520 866 LINE",
"520 856 LINE SMOOTH",
"520 744 OFFCURVE",
"599 688 OFFCURVE",
"776 688 CURVE",
"776 449 LINE",
"609 449 OFFCURVE",
"520 399 OFFCURVE",
"520 270 CURVE SMOOTH"
);
}
);
width = 807;
}
);
unicode = 007D;
},
{
glyphname = asciitilde;
layers = (
{
layerId = "F819D8FE-9E94-402B-BBDD-25FA288DB24B";
name = Bold;
paths = (
{
closed = 1;
nodes = (
"249 672 OFFCURVE",
"160 623 OFFCURVE",
"88 551 CURVE",
"88 782 LINE",
"157 855 OFFCURVE",
"242 891 OFFCURVE",
"344 891 CURVE SMOOTH",
"441 891 OFFCURVE",
"521 870 OFFCURVE",
"621 827 CURVE SMOOTH",
"707 790 OFFCURVE",
"783 772 OFFCURVE",
"848 772 CURVE SMOOTH",
"919 772 OFFCURVE",
"1009 817 OFFCURVE",
"1081 893 CURVE",
"1081 662 LINE",
"1014 589 OFFCURVE",
"928 553 OFFCURVE",
"825 553 CURVE SMOOTH",
"737 553 OFFCURVE",
"669 567 OFFCURVE",
"549 616 CURVE SMOOTH",
"462 653 OFFCURVE",
"386 672 OFFCURVE",
"322 672 CURVE SMOOTH"
);
}
);
width = 1169;
}
);
unicode = 007E;
},
{
glyphname = exclamdown;
layers = (
{
layerId = "F819D8FE-9E94-402B-BBDD-25FA288DB24B";
name = Bold;
paths = (
{
closed = 1;
nodes = (
"168 606 LINE",
"412 606 LINE",
"463 -369 LINE",
"117 -369 LINE"
);
},
{
closed = 1;
nodes = (
"467 836 OFFCURVE",
"406 778 OFFCURVE",
"291 778 CURVE SMOOTH",
"180 778 OFFCURVE",
"117 839 OFFCURVE",
"117 948 CURVE SMOOTH",
"117 1056 OFFCURVE",
"183 1118 OFFCURVE",
"291 1118 CURVE SMOOTH",
"403 1118 OFFCURVE",
"467 1057 OFFCURVE",
"467 948 CURVE SMOOTH"
);
}
);
width = 586;
}
);
unicode = 00A1;
},
{
glyphname = cent;
layers = (
{
layerId = "F819D8FE-9E94-402B-BBDD-25FA288DB24B";
name = Bold;
paths = (
{
closed = 1;
nodes = (
"563 176 LINE",
"283 215 OFFCURVE",
"143 404 OFFCURVE",
"143 741 CURVE SMOOTH",
"143 1089 OFFCURVE",
"282 1276 OFFCURVE",
"563 1317 CURVE",
"563 1483 LINE",
"741 1483 LINE",
"741 1325 LINE",
"852 1319 OFFCURVE",
"951 1294 OFFCURVE",
"1040 1251 CURVE",
"950 1016 LINE",
"854 1055 OFFCURVE",
"775 1081 OFFCURVE",
"692 1081 CURVE SMOOTH",
"531 1081 OFFCURVE",
"455 971 OFFCURVE",
"455 743 CURVE SMOOTH",
"455 525 OFFCURVE",
"534 416 OFFCURVE",
"692 416 CURVE SMOOTH",
"801 416 OFFCURVE",
"873 432 OFFCURVE",
"1006 492 CURVE",
"1006 238 LINE",
"921 197 OFFCURVE",
"833 174 OFFCURVE",
"741 168 CURVE",
"741 -20 LINE",
"563 -20 LINE"
);
}
);
width = 1169;
}
);
unicode = 00A2;
},
{
glyphname = sterling;
layers = (
{
layerId = "F819D8FE-9E94-402B-BBDD-25FA288DB24B";
name = Bold;
paths = (
{
closed = 1;
nodes = (
"830 1483 OFFCURVE",
"960 1456 OFFCURVE",
"1090 1401 CURVE",
"997 1171 LINE",
"892 1214 OFFCURVE",
"802 1235 OFFCURVE",
"725 1235 CURVE SMOOTH",
"621 1235 OFFCURVE",
"563 1174 OFFCURVE",
"563 1063 CURVE SMOOTH",
"563 870 LINE",
"938 870 LINE",
"938 651 LINE",
"563 651 LINE",
"563 508 LINE SMOOTH",
"563 395 OFFCURVE",
"513 312 OFFCURVE",
"412 260 CURVE",
"1130 260 LINE",
"1130 0 LINE",
"82 0 LINE",
"82 248 LINE",
"219 307 OFFCURVE",
"262 373 OFFCURVE",
"262 506 CURVE SMOOTH",
"262 651 LINE",
"84 651 LINE",
"84 870 LINE",
"262 870 LINE",
"262 1065 LINE SMOOTH",
"262 1333 OFFCURVE",
"421 1483 OFFCURVE",
"700 1483 CURVE SMOOTH"
);
}
);
width = 1169;
}
);
unicode = 00A3;
},
{
glyphname = currency;
layers = (
{
layerId = "F819D8FE-9E94-402B-BBDD-25FA288DB24B";
name = Bold;
paths = (
{
closed = 1;
nodes = (
"188 791 OFFCURVE",
"206 857 OFFCURVE",
"242 920 CURVE",
"113 1047 LINE",
"260 1194 LINE",
"387 1067 LINE",
"448 1102 OFFCURVE",
"513 1120 OFFCURVE",
"584 1120 CURVE SMOOTH",
"654 1120 OFFCURVE",
"719 1102 OFFCURVE",
"780 1065 CURVE",
"907 1194 LINE",
"1057 1051 LINE",
"928 922 LINE",
"963 863 OFFCURVE",
"981 796 OFFCURVE",
"981 723 CURVE SMOOTH",
"981 652 OFFCURVE",
"963 585 OFFCURVE",
"928 524 CURVE",
"1053 399 LINE",
"907 254 LINE",
"780 379 LINE",
"717 345 OFFCURVE",
"651 328 OFFCURVE",
"584 328 CURVE SMOOTH",
"507 328 OFFCURVE",
"441 345 OFFCURVE",
"385 379 CURVE",
"260 256 LINE",
"115 401 LINE",
"242 526 LINE",
"206 588 OFFCURVE",
"188 654 OFFCURVE",
"188 723 CURVE SMOOTH"
);
},
{
closed = 1;
nodes = (
"395 620 OFFCURVE",
"477 535 OFFCURVE",
"584 535 CURVE SMOOTH",
"692 535 OFFCURVE",
"776 619 OFFCURVE",
"776 723 CURVE SMOOTH",
"776 830 OFFCURVE",
"689 913 OFFCURVE",
"584 913 CURVE SMOOTH",
"480 913 OFFCURVE",
"395 827 OFFCURVE",
"395 723 CURVE SMOOTH"
);
}
);
width = 1169;
}
);
unicode = 00A4;
},
{
glyphname = yen;
layers = (
{
layerId = "F819D8FE-9E94-402B-BBDD-25FA288DB24B";
name = Bold;
paths = (
{
closed = 1;
nodes = (
"584 860 LINE",
"848 1462 LINE",
"1161 1462 LINE",
"778 715 LINE",
"973 715 LINE",
"973 537 LINE",
"727 537 LINE",
"727 399 LINE",
"973 399 LINE",
"973 221 LINE",
"727 221 LINE",
"727 0 LINE",
"440 0 LINE",
"440 221 LINE",
"193 221 LINE",
"193 399 LINE",
"440 399 LINE",
"440 537 LINE",
"193 537 LINE",
"193 715 LINE",
"383 715 LINE",
"6 1462 LINE",
"322 1462 LINE"
);
}
);
width = 1169;
}
);
unicode = 00A5;
},
{
glyphname = brokenbar;
layers = (
{
layerId = "F819D8FE-9E94-402B-BBDD-25FA288DB24B";
name = Bold;
paths = (
{
closed = 1;
nodes = (
"455 1550 LINE",
"674 1550 LINE",
"674 735 LINE",
"455 735 LINE"
);
},
{
closed = 1;
nodes = (
"455 350 LINE",
"674 350 LINE",
"674 -465 LINE",
"455 -465 LINE"
);
}
);
width = 1128;
}
);
unicode = 00A6;
},
{
glyphname = section;
layers = (
{
layerId = "F819D8FE-9E94-402B-BBDD-25FA288DB24B";
name = Bold;
paths = (
{
closed = 1;
nodes = (
"121 910 OFFCURVE",
"173 1002 OFFCURVE",
"254 1055 CURVE",
"165 1111 OFFCURVE",
"121 1189 OFFCURVE",
"121 1288 CURVE SMOOTH",
"121 1463 OFFCURVE",
"283 1577 OFFCURVE",
"526 1577 CURVE SMOOTH",
"639 1577 OFFCURVE",
"760 1549 OFFCURVE",
"889 1493 CURVE",
"807 1303 LINE",
"716 1346 OFFCURVE",
"624 1386 OFFCURVE",
"520 1386 CURVE SMOOTH",
"412 1386 OFFCURVE",
"365 1356 OFFCURVE",
"365 1292 CURVE SMOOTH",
"365 1259 OFFCURVE",
"382 1231 OFFCURVE",
"415 1206 CURVE SMOOTH",
"448 1181 OFFCURVE",
"502 1154 OFFCURVE",
"578 1124 CURVE SMOOTH",
"795 1039 OFFCURVE",
"895 927 OFFCURVE",
"895 782 CURVE SMOOTH",
"895 664 OFFCURVE",
"853 577 OFFCURVE",
"770 522 CURVE",
"853 469 OFFCURVE",
"895 402 OFFCURVE",
"895 303 CURVE SMOOTH",
"895 106 OFFCURVE",
"723 -20 OFFCURVE",
"455 -20 CURVE SMOOTH",
"320 -20 OFFCURVE",
"203 6 OFFCURVE",
"106 59 CURVE",
"106 266 LINE",
"214 211 OFFCURVE",
"362 168 OFFCURVE",
"455 168 CURVE SMOOTH",
"584 168 OFFCURVE",
"649 207 OFFCURVE",
"649 285 CURVE SMOOTH",
"649 337 OFFCURVE",
"627 364 OFFCURVE",
"567 398 CURVE SMOOTH",
"537 415 OFFCURVE",
"495 434 OFFCURVE",
"442 457 CURVE SMOOTH",
"198 556 OFFCURVE",
"121 649 OFFCURVE",
"121 805 CURVE SMOOTH"
);
},
{
closed = 1;
nodes = (
"344 738 OFFCURVE",
"435 671 OFFCURVE",
"590 610 CURVE",
"642 648 OFFCURVE",
"668 697 OFFCURVE",
"668 756 CURVE SMOOTH",
"668 847 OFFCURVE",
"611 902 OFFCURVE",
"434 967 CURVE",
"385 948 OFFCURVE",
"344 890 OFFCURVE",
"344 827 CURVE SMOOTH"
);
}
);
width = 995;
}
);
unicode = 00A7;
},
{
glyphname = dieresis;
layers = (
{
layerId = "F819D8FE-9E94-402B-BBDD-25FA288DB24B";
name = Bold;
paths = (
{
closed = 1;
nodes = (
"279 1492 OFFCURVE",
"333 1540 OFFCURVE",
"418 1540 CURVE SMOOTH",
"506 1540 OFFCURVE",
"559 1486 OFFCURVE",
"559 1405 CURVE SMOOTH",
"559 1325 OFFCURVE",
"505 1272 OFFCURVE",
"418 1272 CURVE SMOOTH",
"333 1272 OFFCURVE",
"279 1321 OFFCURVE",
"279 1405 CURVE SMOOTH"
);
},
{
closed = 1;
nodes = (
"682 1498 OFFCURVE",
"743 1540 OFFCURVE",
"823 1540 CURVE SMOOTH",
"910 1540 OFFCURVE",
"965 1489 OFFCURVE",
"965 1405 CURVE SMOOTH",
"965 1324 OFFCURVE",
"908 1272 OFFCURVE",
"823 1272 CURVE SMOOTH",
"743 1272 OFFCURVE",
"682 1314 OFFCURVE",
"682 1405 CURVE SMOOTH"
);
}
);
width = 1243;
}
);
unicode = 00A8;
},
{
glyphname = copyright;
layers = (
{
layerId = "F819D8FE-9E94-402B-BBDD-25FA288DB24B";
name = Bold;
paths = (
{
closed = 1;
nodes = (
"766 1010 OFFCURVE",
"692 906 OFFCURVE",
"692 731 CURVE SMOOTH",
"692 544 OFFCURVE",
"760 451 OFFCURVE",
"895 451 CURVE SMOOTH",
"971 451 OFFCURVE",
"1065 471 OFFCURVE",
"1141 510 CURVE",
"1141 319 LINE",
"1061 281 OFFCURVE",
"977 262 OFFCURVE",
"889 262 CURVE SMOOTH",
"617 262 OFFCURVE",
"461 438 OFFCURVE",
"461 733 CURVE SMOOTH",
"461 1026 OFFCURVE",
"616 1198 OFFCURVE",
"881 1198 CURVE SMOOTH",
"980 1198 OFFCURVE",
"1082 1172 OFFCURVE",
"1186 1120 CURVE",
"1112 952 LINE",
"1037 991 OFFCURVE",
"964 1010 OFFCURVE",
"895 1010 CURVE SMOOTH"
);
},
{
closed = 1;
nodes = (
"100 998 OFFCURVE",
"242 1247 OFFCURVE",
"475 1382 CURVE SMOOTH",
"592 1449 OFFCURVE",
"717 1483 OFFCURVE",
"852 1483 CURVE SMOOTH",
"1119 1483 OFFCURVE",
"1368 1341 OFFCURVE",
"1503 1108 CURVE SMOOTH",
"1570 991 OFFCURVE",
"1604 866 OFFCURVE",
"1604 731 CURVE SMOOTH",
"1604 468 OFFCURVE",
"1468 223 OFFCURVE",
"1235 84 CURVE SMOOTH",
"1118 15 OFFCURVE",
"991 -20 OFFCURVE",
"852 -20 CURVE SMOOTH",
"576 -20 OFFCURVE",
"328 129 OFFCURVE",
"198 360 CURVE SMOOTH",
"133 475 OFFCURVE",
"100 599 OFFCURVE",
"100 731 CURVE SMOOTH"
);
},
{
closed = 1;
nodes = (
"242 512 OFFCURVE",
"359 311 OFFCURVE",
"548 203 CURVE SMOOTH",
"643 148 OFFCURVE",
"744 121 OFFCURVE",
"852 121 CURVE SMOOTH",
"1071 121 OFFCURVE",
"1272 238 OFFCURVE",
"1381 427 CURVE SMOOTH",
"1435 522 OFFCURVE",
"1462 623 OFFCURVE",
"1462 731 CURVE SMOOTH",
"1462 950 OFFCURVE",
"1345 1151 OFFCURVE",
"1156 1260 CURVE SMOOTH",
"1061 1314 OFFCURVE",
"960 1341 OFFCURVE",
"852 1341 CURVE SMOOTH",
"633 1341 OFFCURVE",
"432 1224 OFFCURVE",
"324 1035 CURVE SMOOTH",
"269 940 OFFCURVE",
"242 839 OFFCURVE",
"242 731 CURVE SMOOTH"
);
}
);
width = 1704;
}
);
unicode = 00A9;
},
{
glyphname = ordfeminine;
layers = (
{
layerId = "F819D8FE-9E94-402B-BBDD-25FA288DB24B";
name = Bold;
paths = (
{
closed = 1;
nodes = (
"561 764 LINE",
"530 874 LINE",
"473 797 OFFCURVE",
"388 752 OFFCURVE",
"289 752 CURVE SMOOTH",
"133 752 OFFCURVE",
"47 834 OFFCURVE",
"47 975 CURVE SMOOTH",
"47 1120 OFFCURVE",
"150 1190 OFFCURVE",
"397 1202 CURVE SMOOTH",
"496 1206 LINE",
"496 1284 OFFCURVE",
"454 1323 OFFCURVE",
"369 1323 CURVE SMOOTH",
"315 1323 OFFCURVE",
"243 1303 OFFCURVE",
"152 1262 CURVE",
"86 1397 LINE",
"174 1440 OFFCURVE",
"278 1479 OFFCURVE",
"410 1479 CURVE SMOOTH",
"593 1479 OFFCURVE",
"696 1381 OFFCURVE",
"696 1206 CURVE SMOOTH",
"696 764 LINE"
);
},
{
closed = 1;
nodes = (
"252 926 OFFCURVE",
"287 903 OFFCURVE",
"330 903 CURVE SMOOTH",
"433 903 OFFCURVE",
"496 964 OFFCURVE",
"496 1051 CURVE SMOOTH",
"496 1087 LINE",
"397 1081 LINE SMOOTH",
"300 1074 OFFCURVE",
"252 1040 OFFCURVE",
"252 977 CURVE SMOOTH"
);
}
);
width = 784;
}
);
unicode = 00AA;
},
{
glyphname = guillemotleft;
layers = (
{
layerId = "F819D8FE-9E94-402B-BBDD-25FA288DB24B";
name = Bold;
paths = (
{
closed = 1;
nodes = (
"82 573 LINE",
"453 1028 LINE",
"672 909 LINE",
"393 561 LINE",
"672 213 LINE",
"453 94 LINE",
"82 547 LINE"
);
},
{
closed = 1;
nodes = (
"588 573 LINE",
"958 1028 LINE",
"1178 909 LINE",
"899 561 LINE",
"1178 213 LINE",
"958 94 LINE",
"588 547 LINE"
);
}
);
width = 1260;
}
);
unicode = 00AB;
},
{
glyphname = logicalnot;
layers = (
{
layerId = "F819D8FE-9E94-402B-BBDD-25FA288DB24B";
name = Bold;
paths = (
{
closed = 1;
nodes = (
"1081 248 LINE",
"862 248 LINE",
"862 612 LINE",
"88 612 LINE",
"88 831 LINE",
"1081 831 LINE"
);
}
);
width = 1169;
}
);
unicode = 00AC;
},
{
glyphname = uni00AD;
layers = (
{
layerId = "F819D8FE-9E94-402B-BBDD-25FA288DB24B";
name = Bold;
paths = (
{
closed = 1;
nodes = (
"61 424 LINE",
"61 674 LINE",
"598 674 LINE",
"598 424 LINE"
);
}
);
width = 659;
}
);
unicode = 00AD;
},
{
glyphname = registered;
layers = (
{
layerId = "F819D8FE-9E94-402B-BBDD-25FA288DB24B";
name = Bold;
paths = (
{
closed = 1;
nodes = (
"1157 792 OFFCURVE",
"1109 714 OFFCURVE",
"1014 672 CURVE",
"1251 272 LINE",
"997 272 LINE",
"819 610 LINE",
"772 610 LINE",
"772 272 LINE",
"543 272 LINE",
"543 1188 LINE",
"807 1188 LINE SMOOTH",
"1048 1188 OFFCURVE",
"1157 1096 OFFCURVE",
"1157 905 CURVE SMOOTH"
);
},
{
closed = 1;
nodes = (
"772 778 LINE",
"803 778 LINE SMOOTH",
"891 778 OFFCURVE",
"926 813 OFFCURVE",
"926 901 CURVE SMOOTH",
"926 988 OFFCURVE",
"893 1020 OFFCURVE",
"801 1020 CURVE SMOOTH",
"772 1020 LINE"
);
},
{
closed = 1;
nodes = (
"100 998 OFFCURVE",
"242 1247 OFFCURVE",
"475 1382 CURVE SMOOTH",
"592 1449 OFFCURVE",
"717 1483 OFFCURVE",
"852 1483 CURVE SMOOTH",
"1119 1483 OFFCURVE",
"1368 1341 OFFCURVE",
"1503 1108 CURVE SMOOTH",
"1570 991 OFFCURVE",
"1604 866 OFFCURVE",
"1604 731 CURVE SMOOTH",
"1604 468 OFFCURVE",
"1468 223 OFFCURVE",
"1235 84 CURVE SMOOTH",
"1118 15 OFFCURVE",
"991 -20 OFFCURVE",
"852 -20 CURVE SMOOTH",
"576 -20 OFFCURVE",
"328 129 OFFCURVE",
"198 360 CURVE SMOOTH",
"133 475 OFFCURVE",
"100 599 OFFCURVE",
"100 731 CURVE SMOOTH"
);
},
{
closed = 1;
nodes = (
"242 512 OFFCURVE",
"359 311 OFFCURVE",
"548 203 CURVE SMOOTH",
"643 148 OFFCURVE",
"744 121 OFFCURVE",
"852 121 CURVE SMOOTH",
"1071 121 OFFCURVE",
"1272 238 OFFCURVE",
"1381 427 CURVE SMOOTH",
"1435 522 OFFCURVE",
"1462 623 OFFCURVE",
"1462 731 CURVE SMOOTH",
"1462 950 OFFCURVE",
"1345 1151 OFFCURVE",
"1156 1260 CURVE SMOOTH",
"1061 1314 OFFCURVE",
"960 1341 OFFCURVE",
"852 1341 CURVE SMOOTH",
"633 1341 OFFCURVE",
"432 1224 OFFCURVE",
"324 1035 CURVE SMOOTH",
"269 940 OFFCURVE",
"242 839 OFFCURVE",
"242 731 CURVE SMOOTH"
);
}
);
width = 1704;
}
);
unicode = 00AE;
},
{
glyphname = overscore;
layers = (
{
layerId = "F819D8FE-9E94-402B-BBDD-25FA288DB24B";
name = Bold;
paths = (
{
closed = 1;
nodes = (
"1030 1556 LINE",
"-6 1556 LINE",
"-6 1757 LINE",
"1030 1757 LINE"
);
}
);
width = 1024;
}
);
unicode = 00AF;
},
{
glyphname = degree;
layers = (
{
layerId = "F819D8FE-9E94-402B-BBDD-25FA288DB24B";
name = Bold;
paths = (
{
closed = 1;
nodes = (
"92 1260 OFFCURVE",
"157 1373 OFFCURVE",
"264 1436 CURVE SMOOTH",
"317 1467 OFFCURVE",
"375 1483 OFFCURVE",
"438 1483 CURVE SMOOTH",
"561 1483 OFFCURVE",
"676 1418 OFFCURVE",
"738 1310 CURVE SMOOTH",
"769 1256 OFFCURVE",
"784 1198 OFFCURVE",
"784 1137 CURVE SMOOTH",
"784 1013 OFFCURVE",
"718 898 OFFCURVE",
"611 838 CURVE SMOOTH",
"558 808 OFFCURVE",
"500 793 OFFCURVE",
"438 793 CURVE SMOOTH",
"245 793 OFFCURVE",
"92 944 OFFCURVE",
"92 1137 CURVE SMOOTH"
);
},
{
closed = 1;
nodes = (
"283 1052 OFFCURVE",
"350 983 OFFCURVE",
"438 983 CURVE SMOOTH",
"526 983 OFFCURVE",
"594 1054 OFFCURVE",
"594 1137 CURVE SMOOTH",
"594 1221 OFFCURVE",
"525 1294 OFFCURVE",
"438 1294 CURVE SMOOTH",
"353 1294 OFFCURVE",
"283 1224 OFFCURVE",
"283 1137 CURVE SMOOTH"
);
}
);
width = 877;
}
);
unicode = 00B0;
},
{
glyphname = plusminus;
layers = (
{
layerId = "F819D8FE-9E94-402B-BBDD-25FA288DB24B";
name = Bold;
paths = (
{
closed = 1;
nodes = (
"475 674 LINE",
"88 674 LINE",
"88 893 LINE",
"475 893 LINE",
"475 1282 LINE",
"694 1282 LINE",
"694 893 LINE",
"1081 893 LINE",
"1081 674 LINE",
"694 674 LINE",
"694 289 LINE",
"475 289 LINE"
);
},
{
closed = 1;
nodes = (
"88 0 LINE",
"88 219 LINE",
"1081 219 LINE",
"1081 0 LINE"
);
}
);
width = 1169;
}
);
unicode = 00B1;
},
{
glyphname = twosuperior;
layers = (
{
layerId = "F819D8FE-9E94-402B-BBDD-25FA288DB24B";
name = Bold;
paths = (
{
closed = 1;
nodes = (
"702 586 LINE",
"55 586 LINE",
"55 754 LINE",
"279 973 LINE SMOOTH",
"347 1040 OFFCURVE",
"391 1088 OFFCURVE",
"410 1118 CURVE SMOOTH",
"429 1147 OFFCURVE",
"438 1179 OFFCURVE",
"438 1212 CURVE SMOOTH",
"438 1263 OFFCURVE",
"403 1290 OFFCURVE",
"350 1290 CURVE SMOOTH",
"296 1290 OFFCURVE",
"236 1261 OFFCURVE",
"170 1202 CURVE",
"47 1354 LINE",
"145 1440 OFFCURVE",
"257 1483 OFFCURVE",
"383 1483 CURVE SMOOTH",
"566 1483 OFFCURVE",
"678 1389 OFFCURVE",
"678 1233 CURVE SMOOTH",
"678 1120 OFFCURVE",
"627 1037 OFFCURVE",
"455 881 CURVE SMOOTH",
"350 786 LINE",
"702 786 LINE"
);
}
);
width = 776;
}
);
unicode = 00B2;
},
{
glyphname = threesuperior;
layers = (
{
layerId = "F819D8FE-9E94-402B-BBDD-25FA288DB24B";
name = Bold;
paths = (
{
closed = 1;
nodes = (
"666 1154 OFFCURVE",
"609 1088 OFFCURVE",
"496 1051 CURVE",
"496 1038 LINE",
"621 1011 OFFCURVE",
"694 934 OFFCURVE",
"694 829 CURVE SMOOTH",
"694 668 OFFCURVE",
"580 569 OFFCURVE",
"332 569 CURVE SMOOTH",
"237 569 OFFCURVE",
"146 592 OFFCURVE",
"59 639 CURVE",
"59 829 LINE",
"158 769 OFFCURVE",
"248 739 OFFCURVE",
"330 739 CURVE SMOOTH",
"425 739 OFFCURVE",
"473 775 OFFCURVE",
"473 846 CURVE SMOOTH",
"473 917 OFFCURVE",
"411 952 OFFCURVE",
"307 952 CURVE SMOOTH",
"195 952 LINE",
"195 1112 LINE",
"287 1112 LINE SMOOTH",
"398 1112 OFFCURVE",
"451 1145 OFFCURVE",
"451 1221 CURVE SMOOTH",
"451 1272 OFFCURVE",
"418 1309 OFFCURVE",
"350 1309 CURVE SMOOTH",
"287 1309 OFFCURVE",
"238 1284 OFFCURVE",
"162 1231 CURVE",
"61 1372 LINE",
"144 1435 OFFCURVE",
"240 1481 OFFCURVE",
"377 1481 CURVE SMOOTH",
"546 1481 OFFCURVE",
"666 1388 OFFCURVE",
"666 1249 CURVE SMOOTH"
);
}
);
width = 776;
}
);
unicode = 00B3;
},
{
glyphname = acute;
layers = (
{
layerId = "F819D8FE-9E94-402B-BBDD-25FA288DB24B";
name = Bold;
paths = (
{
closed = 1;
nodes = (
"332 1241 LINE",
"332 1268 LINE",
"447 1401 OFFCURVE",
"525 1502 OFFCURVE",
"567 1569 CURVE",
"909 1569 LINE",
"909 1548 LINE",
"840 1479 OFFCURVE",
"630 1308 OFFCURVE",
"535 1241 CURVE"
);
}
);
width = 1243;
}
);
unicode = 00B4;
},
{
glyphname = mu;
layers = (
{
layerId = "F819D8FE-9E94-402B-BBDD-25FA288DB24B";
name = Bold;
paths = (
{
closed = 1;
nodes = (
"465 465 LINE SMOOTH",
"465 304 OFFCURVE",
"522 223 OFFCURVE",
"647 223 CURVE SMOOTH",
"815 223 OFFCURVE",
"887 331 OFFCURVE",
"887 592 CURVE SMOOTH",
"887 1118 LINE",
"1192 1118 LINE",
"1192 0 LINE",
"961 0 LINE",
"918 150 LINE",
"903 150 LINE",
"847 37 OFFCURVE",
"770 -20 OFFCURVE",
"653 -20 CURVE SMOOTH",
"570 -20 OFFCURVE",
"498 11 OFFCURVE",
"455 70 CURVE",
"460 -15 LINE",
"465 -172 LINE",
"465 -492 LINE",
"160 -492 LINE",
"160 1118 LINE",
"465 1118 LINE"
);
}
);
width = 1352;
}
);
unicode = 00B5;
},
{
glyphname = paragraph;
layers = (
{
layerId = "F819D8FE-9E94-402B-BBDD-25FA288DB24B";
name = Bold;
paths = (
{
closed = 1;
nodes = (
"1167 -260 LINE",
"1006 -260 LINE",
"1006 1356 LINE",
"840 1356 LINE",
"840 -260 LINE",
"678 -260 LINE",
"678 559 LINE",
"637 547 OFFCURVE",
"588 541 OFFCURVE",
"532 541 CURVE SMOOTH",
"244 541 OFFCURVE",
"113 707 OFFCURVE",
"113 1042 CURVE SMOOTH",
"113 1389 OFFCURVE",
"254 1556 OFFCURVE",
"563 1556 CURVE SMOOTH",
"1167 1556 LINE"
);
}
);
width = 1341;
}
);
unicode = 00B6;
},
{
glyphname = periodcentered;
layers = (
{
layerId = "F819D8FE-9E94-402B-BBDD-25FA288DB24B";
name = Bold;
paths = (
{
closed = 1;
nodes = (
"117 835 OFFCURVE",
"178 893 OFFCURVE",
"293 893 CURVE SMOOTH",
"404 893 OFFCURVE",
"467 832 OFFCURVE",
"467 723 CURVE SMOOTH",
"467 615 OFFCURVE",
"401 553 OFFCURVE",
"293 553 CURVE SMOOTH",
"181 553 OFFCURVE",
"117 614 OFFCURVE",
"117 723 CURVE SMOOTH"
);
}
);
width = 584;
}
);
unicode = 00B7;
},
{
glyphname = cedilla;
layers = (
{
layerId = "F819D8FE-9E94-402B-BBDD-25FA288DB24B";
name = Bold;
paths = (
{
closed = 1;
nodes = (
"418 -421 OFFCURVE",
"320 -492 OFFCURVE",
"109 -492 CURVE SMOOTH",
"57 -492 OFFCURVE",
"8 -485 OFFCURVE",
"-37 -471 CURVE",
"-37 -303 LINE",
"-1 -312 OFFCURVE",
"73 -324 OFFCURVE",
"106 -324 CURVE SMOOTH",
"154 -324 OFFCURVE",
"178 -303 OFFCURVE",
"178 -262 CURVE SMOOTH",
"178 -207 OFFCURVE",
"123 -171 OFFCURVE",
"12 -154 CURVE",
"90 0 LINE",
"283 0 LINE",
"256 -61 LINE",
"355 -93 OFFCURVE",
"418 -165 OFFCURVE",
"418 -250 CURVE SMOOTH"
);
}
);
width = 420;
}
);
unicode = 00B8;
},
{
glyphname = onesuperior;
layers = (
{
layerId = "F819D8FE-9E94-402B-BBDD-25FA288DB24B";
name = Bold;
paths = (
{
closed = 1;
nodes = (
"584 586 LINE",
"346 586 LINE",
"346 1032 LINE",
"349 1144 LINE",
"354 1239 LINE",
"336 1215 OFFCURVE",
"311 1189 OFFCURVE",
"279 1161 CURVE",
"201 1100 LINE",
"92 1227 LINE",
"393 1462 LINE",
"584 1462 LINE"
);
}
);
width = 776;
}
);
unicode = 00B9;
},
{
glyphname = ordmasculine;
layers = (
{
layerId = "F819D8FE-9E94-402B-BBDD-25FA288DB24B";
name = Bold;
paths = (
{
closed = 1;
nodes = (
"737 888 OFFCURVE",
"607 752 OFFCURVE",
"395 752 CURVE SMOOTH",
"191 752 OFFCURVE",
"57 893 OFFCURVE",
"57 1116 CURVE SMOOTH",
"57 1341 OFFCURVE",
"182 1479 OFFCURVE",
"399 1479 CURVE SMOOTH",
"602 1479 OFFCURVE",
"737 1337 OFFCURVE",
"737 1116 CURVE SMOOTH"
);
},
{
closed = 1;
nodes = (
"260 983 OFFCURVE",
"301 915 OFFCURVE",
"397 915 CURVE SMOOTH",
"493 915 OFFCURVE",
"532 983 OFFCURVE",
"532 1116 CURVE SMOOTH",
"532 1249 OFFCURVE",
"493 1315 OFFCURVE",
"397 1315 CURVE SMOOTH",
"301 1315 OFFCURVE",
"260 1249 OFFCURVE",
"260 1116 CURVE SMOOTH"
);
}
);
width = 795;
}
);
unicode = 00BA;
},
{
glyphname = guillemotright;
layers = (
{
layerId = "F819D8FE-9E94-402B-BBDD-25FA288DB24B";
name = Bold;
paths = (
{
closed = 1;
nodes = (
"1178 547 LINE",
"807 94 LINE",
"588 213 LINE",
"866 561 LINE",
"588 909 LINE",
"807 1028 LINE",
"1178 573 LINE"
);
},
{
closed = 1;
nodes = (
"672 547 LINE",
"301 94 LINE",
"82 213 LINE",
"360 561 LINE",
"82 909 LINE",
"301 1028 LINE",
"672 573 LINE"
);
}
);
width = 1260;
}
);
unicode = 00BB;
},
{
glyphname = onequarter;
layers = (
{
layerId = "F819D8FE-9E94-402B-BBDD-25FA288DB24B";
name = Bold;
paths = (
{
closed = 1;
nodes = (
"538 586 LINE",
"300 586 LINE",
"300 1032 LINE",
"303 1144 LINE",
"308 1239 LINE",
"290 1215 OFFCURVE",
"265 1189 OFFCURVE",
"233 1161 CURVE",
"155 1100 LINE",
"46 1227 LINE",
"347 1462 LINE",
"538 1462 LINE"
);
},
{
closed = 1;
nodes = (
"1370 1462 LINE",
"559 0 LINE",
"320 0 LINE",
"1131 1462 LINE"
);
},
{
closed = 1;
nodes = (
"1682 152 LINE",
"1557 152 LINE",
"1557 1 LINE",
"1319 1 LINE",
"1319 152 LINE",
"936 152 LINE",
"936 306 LINE",
"1321 883 LINE",
"1557 883 LINE",
"1557 320 LINE",
"1682 320 LINE"
);
},
{
closed = 1;
nodes = (
"1319 320 LINE",
"1319 484 LINE SMOOTH",
"1319 541 OFFCURVE",
"1321 603 OFFCURVE",
"1325 668 CURVE",
"1313 633 OFFCURVE",
"1268 542 OFFCURVE",
"1248 511 CURVE SMOOTH",
"1121 320 LINE"
);
}
);
width = 1804;
}
);
unicode = 00BC;
},
{
glyphname = onehalf;
layers = (
{
layerId = "F819D8FE-9E94-402B-BBDD-25FA288DB24B";
name = Bold;
paths = (
{
closed = 1;
nodes = (
"538 586 LINE",
"300 586 LINE",
"300 1032 LINE",
"303 1144 LINE",
"308 1239 LINE",
"290 1215 OFFCURVE",
"265 1189 OFFCURVE",
"233 1161 CURVE",
"155 1100 LINE",
"46 1227 LINE",
"347 1462 LINE",
"538 1462 LINE"
);
},
{
closed = 1;
nodes = (
"1370 1462 LINE",
"559 0 LINE",
"320 0 LINE",
"1131 1462 LINE"
);
},
{
closed = 1;
nodes = (
"1716 1 LINE",
"1069 1 LINE",
"1069 169 LINE",
"1293 388 LINE SMOOTH",
"1361 455 OFFCURVE",
"1405 503 OFFCURVE",
"1424 533 CURVE SMOOTH",
"1443 562 OFFCURVE",
"1452 594 OFFCURVE",
"1452 627 CURVE SMOOTH",
"1452 678 OFFCURVE",
"1417 705 OFFCURVE",
"1364 705 CURVE SMOOTH",
"1310 705 OFFCURVE",
"1250 676 OFFCURVE",
"1184 617 CURVE",
"1061 769 LINE",
"1159 855 OFFCURVE",
"1271 898 OFFCURVE",
"1397 898 CURVE SMOOTH",
"1580 898 OFFCURVE",
"1692 804 OFFCURVE",
"1692 648 CURVE SMOOTH",
"1692 535 OFFCURVE",
"1641 452 OFFCURVE",
"1469 296 CURVE SMOOTH",
"1364 201 LINE",
"1716 201 LINE"
);
}
);
width = 1804;
}
);
unicode = 00BD;
},
{
glyphname = threequarters;
layers = (
{
layerId = "F819D8FE-9E94-402B-BBDD-25FA288DB24B";
name = Bold;
paths = (
{
closed = 1;
nodes = (
"697 1154 OFFCURVE",
"640 1088 OFFCURVE",
"527 1051 CURVE",
"527 1038 LINE",
"652 1011 OFFCURVE",
"725 934 OFFCURVE",
"725 829 CURVE SMOOTH",
"725 668 OFFCURVE",
"611 569 OFFCURVE",
"363 569 CURVE SMOOTH",
"268 569 OFFCURVE",
"177 592 OFFCURVE",
"90 639 CURVE",
"90 829 LINE",
"189 769 OFFCURVE",
"279 739 OFFCURVE",
"361 739 CURVE SMOOTH",
"456 739 OFFCURVE",
"504 775 OFFCURVE",
"504 846 CURVE SMOOTH",
"504 917 OFFCURVE",
"442 952 OFFCURVE",
"338 952 CURVE SMOOTH",
"226 952 LINE",
"226 1112 LINE",
"318 1112 LINE SMOOTH",
"429 1112 OFFCURVE",
"482 1145 OFFCURVE",
"482 1221 CURVE SMOOTH",
"482 1272 OFFCURVE",
"449 1309 OFFCURVE",
"381 1309 CURVE SMOOTH",
"318 1309 OFFCURVE",
"269 1284 OFFCURVE",
"193 1231 CURVE",
"92 1372 LINE",
"175 1435 OFFCURVE",
"271 1481 OFFCURVE",
"408 1481 CURVE SMOOTH",
"577 1481 OFFCURVE",
"697 1388 OFFCURVE",
"697 1249 CURVE SMOOTH"
);
},
{
closed = 1;
nodes = (
"1441 1462 LINE",
"630 0 LINE",
"391 0 LINE",
"1202 1462 LINE"
);
},
{
closed = 1;
nodes = (
"1712 152 LINE",
"1587 152 LINE",
"1587 1 LINE",
"1349 1 LINE",
"1349 152 LINE",
"966 152 LINE",
"966 306 LINE",
"1351 883 LINE",
"1587 883 LINE",
"1587 320 LINE",
"1712 320 LINE"
);
},
{
closed = 1;
nodes = (
"1349 320 LINE",
"1349 484 LINE SMOOTH",
"1349 541 OFFCURVE",
"1351 603 OFFCURVE",
"1355 668 CURVE",
"1343 633 OFFCURVE",
"1298 542 OFFCURVE",
"1278 511 CURVE SMOOTH",
"1151 320 LINE"
);
}
);
width = 1804;
}
);
unicode = 00BE;
},
{
glyphname = questiondown;
layers = (
{
layerId = "F819D8FE-9E94-402B-BBDD-25FA288DB24B";
name = Bold;
paths = (
{
closed = 1;
nodes = (
"713 606 LINE",
"713 532 LINE SMOOTH",
"713 401 OFFCURVE",
"660 318 OFFCURVE",
"516 215 CURVE SMOOTH",
"371 111 OFFCURVE",
"350 70 OFFCURVE",
"350 -14 CURVE SMOOTH",
"350 -90 OFFCURVE",
"407 -145 OFFCURVE",
"526 -145 CURVE SMOOTH",
"631 -145 OFFCURVE",
"753 -101 OFFCURVE",
"881 -45 CURVE",
"983 -266 LINE",
"852 -341 OFFCURVE",
"673 -391 OFFCURVE",
"532 -391 CURVE SMOOTH",
"239 -391 OFFCURVE",
"61 -254 OFFCURVE",
"61 -29 CURVE SMOOTH",
"61 115 OFFCURVE",
"110 202 OFFCURVE",
"301 342 CURVE SMOOTH",
"428 435 OFFCURVE",
"449 466 OFFCURVE",
"449 547 CURVE SMOOTH",
"449 606 LINE"
);
},
{
closed = 1;
nodes = (
"745 836 OFFCURVE",
"684 778 OFFCURVE",
"569 778 CURVE SMOOTH",
"458 778 OFFCURVE",
"395 839 OFFCURVE",
"395 948 CURVE SMOOTH",
"395 1056 OFFCURVE",
"461 1118 OFFCURVE",
"569 1118 CURVE SMOOTH",
"681 1118 OFFCURVE",
"745 1057 OFFCURVE",
"745 948 CURVE SMOOTH"
);
}
);
width = 977;
}
);
unicode = 00BF;
},
{
glyphname = Agrave;
layers = (
{
layerId = "F819D8FE-9E94-402B-BBDD-25FA288DB24B";
name = Bold;
paths = (
{
closed = 1;
nodes = (
"1079 0 LINE",
"973 348 LINE",
"440 348 LINE",
"334 0 LINE",
"0 0 LINE",
"516 1468 LINE",
"895 1468 LINE",
"1413 0 LINE"
);
},
{
closed = 1;
nodes = (
"899 608 LINE",
"801 923 OFFCURVE",
"746 1102 OFFCURVE",
"734 1143 CURVE SMOOTH",
"721 1184 OFFCURVE",
"712 1217 OFFCURVE",
"707 1241 CURVE",
"685 1156 OFFCURVE",
"622 945 OFFCURVE",
"518 608 CURVE"
);
},
{
closed = 1;
nodes = (
"713 1579 LINE",
"629 1638 OFFCURVE",
"429 1798 OFFCURVE",
"338 1886 CURVE",
"338 1907 LINE",
"680 1907 LINE",
"722 1840 OFFCURVE",
"800 1739 OFFCURVE",
"915 1606 CURVE",
"915 1579 LINE"
);
}
);
width = 1413;
}
);
unicode = 00C0;
},
{
glyphname = Aacute;
layers = (
{
layerId = "F819D8FE-9E94-402B-BBDD-25FA288DB24B";
name = Bold;
paths = (
{
closed = 1;
nodes = (
"1079 0 LINE",
"973 348 LINE",
"440 348 LINE",
"334 0 LINE",
"0 0 LINE",
"516 1468 LINE",
"895 1468 LINE",
"1413 0 LINE"
);
},
{
closed = 1;
nodes = (
"899 608 LINE",
"801 923 OFFCURVE",
"746 1102 OFFCURVE",
"734 1143 CURVE SMOOTH",
"721 1184 OFFCURVE",
"712 1217 OFFCURVE",
"707 1241 CURVE",
"685 1156 OFFCURVE",
"622 945 OFFCURVE",
"518 608 CURVE"
);
},
{
closed = 1;
nodes = (
"541 1579 LINE",
"541 1606 LINE",
"656 1739 OFFCURVE",
"734 1840 OFFCURVE",
"776 1907 CURVE",
"1118 1907 LINE",
"1118 1886 LINE",
"1049 1817 OFFCURVE",
"839 1646 OFFCURVE",
"744 1579 CURVE"
);
}
);
width = 1413;
}
);
unicode = 00C1;
},
{
glyphname = Acircumflex;
layers = (
{
layerId = "F819D8FE-9E94-402B-BBDD-25FA288DB24B";
name = Bold;
paths = (
{
closed = 1;
nodes = (
"1079 0 LINE",
"973 348 LINE",
"440 348 LINE",
"334 0 LINE",
"0 0 LINE",
"516 1468 LINE",
"895 1468 LINE",
"1413 0 LINE"
);
},
{
closed = 1;
nodes = (
"899 608 LINE",
"801 923 OFFCURVE",
"746 1102 OFFCURVE",
"734 1143 CURVE SMOOTH",
"721 1184 OFFCURVE",
"712 1217 OFFCURVE",
"707 1241 CURVE",
"685 1156 OFFCURVE",
"622 945 OFFCURVE",
"518 608 CURVE"
);
},
{
closed = 1;
nodes = (
"938 1579 LINE",
"833 1641 OFFCURVE",
"755 1700 OFFCURVE",
"704 1755 CURVE",
"652 1701 OFFCURVE",
"576 1642 OFFCURVE",
"475 1579 CURVE",
"272 1579 LINE",
"272 1606 LINE",
"398 1732 OFFCURVE",
"483 1832 OFFCURVE",
"528 1907 CURVE",
"885 1907 LINE",
"926 1838 OFFCURVE",
"1045 1699 OFFCURVE",
"1141 1606 CURVE",
"1141 1579 LINE"
);
}
);
width = 1413;
}
);
unicode = 00C2;
},
{
glyphname = Atilde;
layers = (
{
layerId = "F819D8FE-9E94-402B-BBDD-25FA288DB24B";
name = Bold;
paths = (
{
closed = 1;
nodes = (
"1079 0 LINE",
"973 348 LINE",
"440 348 LINE",
"334 0 LINE",
"0 0 LINE",
"516 1468 LINE",
"895 1468 LINE",
"1413 0 LINE"
);
},
{
closed = 1;
nodes = (
"899 608 LINE",
"801 923 OFFCURVE",
"746 1102 OFFCURVE",
"734 1143 CURVE SMOOTH",
"721 1184 OFFCURVE",
"712 1217 OFFCURVE",
"707 1241 CURVE",
"685 1156 OFFCURVE",
"622 945 OFFCURVE",
"518 608 CURVE"
);
},
{
closed = 1;
nodes = (
"502 1684 OFFCURVE",
"459 1649 OFFCURVE",
"442 1577 CURVE",
"293 1577 LINE",
"308 1770 OFFCURVE",
"408 1886 OFFCURVE",
"565 1886 CURVE SMOOTH",
"620 1886 OFFCURVE",
"672 1860 OFFCURVE",
"724 1834 CURVE SMOOTH",
"775 1808 OFFCURVE",
"824 1782 OFFCURVE",
"872 1782 CURVE SMOOTH",
"913 1782 OFFCURVE",
"956 1816 OFFCURVE",
"973 1888 CURVE",
"1122 1888 LINE",
"1107 1695 OFFCURVE",
"1005 1579 OFFCURVE",
"850 1579 CURVE SMOOTH",
"795 1579 OFFCURVE",
"743 1606 OFFCURVE",
"692 1632 CURVE SMOOTH",
"640 1658 OFFCURVE",
"591 1684 OFFCURVE",
"543 1684 CURVE SMOOTH"
);
}
);
width = 1413;
}
);
unicode = 00C3;
},
{
glyphname = Adieresis;
layers = (
{
layerId = "F819D8FE-9E94-402B-BBDD-25FA288DB24B";
name = Bold;
paths = (
{
closed = 1;
nodes = (
"1079 0 LINE",
"973 348 LINE",
"440 348 LINE",
"334 0 LINE",
"0 0 LINE",
"516 1468 LINE",
"895 1468 LINE",
"1413 0 LINE"
);
},
{
closed = 1;
nodes = (
"899 608 LINE",
"801 923 OFFCURVE",
"746 1102 OFFCURVE",
"734 1143 CURVE SMOOTH",
"721 1184 OFFCURVE",
"712 1217 OFFCURVE",
"707 1241 CURVE",
"685 1156 OFFCURVE",
"622 945 OFFCURVE",
"518 608 CURVE"
);
},
{
closed = 1;
nodes = (
"365 1830 OFFCURVE",
"419 1878 OFFCURVE",
"504 1878 CURVE SMOOTH",
"592 1878 OFFCURVE",
"645 1824 OFFCURVE",
"645 1743 CURVE SMOOTH",
"645 1663 OFFCURVE",
"591 1610 OFFCURVE",
"504 1610 CURVE SMOOTH",
"419 1610 OFFCURVE",
"365 1659 OFFCURVE",
"365 1743 CURVE SMOOTH"
);
},
{
closed = 1;
nodes = (
"768 1836 OFFCURVE",
"829 1878 OFFCURVE",
"909 1878 CURVE SMOOTH",
"996 1878 OFFCURVE",
"1051 1827 OFFCURVE",
"1051 1743 CURVE SMOOTH",
"1051 1662 OFFCURVE",
"994 1610 OFFCURVE",
"909 1610 CURVE SMOOTH",
"829 1610 OFFCURVE",
"768 1652 OFFCURVE",
"768 1743 CURVE SMOOTH"
);
}
);
width = 1413;
}
);
unicode = 00C4;
},
{
glyphname = Aring;
layers = (
{
layerId = "F819D8FE-9E94-402B-BBDD-25FA288DB24B";
name = Bold;
paths = (
{
closed = 1;
nodes = (
"1079 0 LINE",
"973 348 LINE",
"440 348 LINE",
"334 0 LINE",
"0 0 LINE",
"516 1468 LINE",
"895 1468 LINE",
"1413 0 LINE"
);
},
{
closed = 1;
nodes = (
"899 608 LINE",
"801 923 OFFCURVE",
"746 1102 OFFCURVE",
"734 1143 CURVE SMOOTH",
"721 1184 OFFCURVE",
"712 1217 OFFCURVE",
"707 1241 CURVE",
"685 1156 OFFCURVE",
"622 945 OFFCURVE",
"518 608 CURVE"
);
},
{
closed = 1;
nodes = (
"959 1423 OFFCURVE",
"854 1327 OFFCURVE",
"705 1327 CURVE SMOOTH",
"556 1327 OFFCURVE",
"457 1418 OFFCURVE",
"457 1565 CURVE SMOOTH",
"457 1709 OFFCURVE",
"554 1802 OFFCURVE",
"705 1802 CURVE SMOOTH",
"852 1802 OFFCURVE",
"959 1704 OFFCURVE",
"959 1567 CURVE SMOOTH"
);
},
{
closed = 1;
nodes = (
"801 1625 OFFCURVE",
"761 1661 OFFCURVE",
"705 1661 CURVE SMOOTH",
"649 1661 OFFCURVE",
"609 1625 OFFCURVE",
"609 1565 CURVE SMOOTH",
"609 1505 OFFCURVE",
"641 1468 OFFCURVE",
"705 1468 CURVE SMOOTH",
"761 1468 OFFCURVE",
"801 1505 OFFCURVE",
"801 1565 CURVE SMOOTH"
);
}
);
width = 1413;
}
);
unicode = 00C5;
},
{
glyphname = AE;
layers = (
{
layerId = "F819D8FE-9E94-402B-BBDD-25FA288DB24B";
name = Bold;
paths = (
{
closed = 1;
nodes = (
"1829 0 LINE",
"956 0 LINE",
"956 348 LINE",
"465 348 LINE",
"315 0 LINE",
"0 0 LINE",
"655 1462 LINE",
"1829 1462 LINE",
"1829 1208 LINE",
"1266 1208 LINE",
"1266 887 LINE",
"1792 887 LINE",
"1792 633 LINE",
"1266 633 LINE",
"1266 256 LINE",
"1829 256 LINE"
);
},
{
closed = 1;
nodes = (
"578 608 LINE",
"956 608 LINE",
"956 1198 LINE",
"829 1198 LINE"
);
}
);
width = 1950;
}
);
unicode = 00C6;
},
{
glyphname = Ccedilla;
layers = (
{
layerId = "F819D8FE-9E94-402B-BBDD-25FA288DB24B";
name = Bold;
paths = (
{
closed = 1;
nodes = (
"572 1225 OFFCURVE",
"438 1040 OFFCURVE",
"438 727 CURVE SMOOTH",
"438 401 OFFCURVE",
"560 238 OFFCURVE",
"805 238 CURVE SMOOTH",
"908 238 OFFCURVE",
"1032 264 OFFCURVE",
"1178 315 CURVE",
"1178 55 LINE",
"1058 5 OFFCURVE",
"924 -20 OFFCURVE",
"776 -20 CURVE SMOOTH",
"351 -20 OFFCURVE",
"119 246 OFFCURVE",
"119 729 CURVE SMOOTH",
"119 1033 OFFCURVE",
"233 1270 OFFCURVE",
"441 1392 CURVE SMOOTH",
"544 1453 OFFCURVE",
"666 1483 OFFCURVE",
"805 1483 CURVE SMOOTH",
"947 1483 OFFCURVE",
"1090 1449 OFFCURVE",
"1233 1380 CURVE",
"1133 1128 LINE",
"1024 1180 OFFCURVE",
"912 1225 OFFCURVE",
"805 1225 CURVE SMOOTH"
);
},
{
closed = 1;
nodes = (
"959 -421 OFFCURVE",
"861 -492 OFFCURVE",
"650 -492 CURVE SMOOTH",
"598 -492 OFFCURVE",
"549 -485 OFFCURVE",
"504 -471 CURVE",
"504 -303 LINE",
"540 -312 OFFCURVE",
"614 -324 OFFCURVE",
"647 -324 CURVE SMOOTH",
"695 -324 OFFCURVE",
"719 -303 OFFCURVE",
"719 -262 CURVE SMOOTH",
"719 -207 OFFCURVE",
"664 -171 OFFCURVE",
"553 -154 CURVE",
"631 0 LINE",
"824 0 LINE",
"797 -61 LINE",
"896 -93 OFFCURVE",
"959 -165 OFFCURVE",
"959 -250 CURVE SMOOTH"
);
}
);
width = 1305;
}
);
unicode = 00C7;
},
{
glyphname = Egrave;
layers = (
{
layerId = "F819D8FE-9E94-402B-BBDD-25FA288DB24B";
name = Bold;
paths = (
{
closed = 1;
nodes = (
"1026 0 LINE",
"184 0 LINE",
"184 1462 LINE",
"1026 1462 LINE",
"1026 1208 LINE",
"494 1208 LINE",
"494 887 LINE",
"989 887 LINE",
"989 633 LINE",
"494 633 LINE",
"494 256 LINE",
"1026 256 LINE"
);
},
{
closed = 1;
nodes = (
"634 1579 LINE",
"550 1638 OFFCURVE",
"350 1798 OFFCURVE",
"259 1886 CURVE",
"259 1907 LINE",
"601 1907 LINE",
"643 1840 OFFCURVE",
"721 1739 OFFCURVE",
"836 1606 CURVE",
"836 1579 LINE"
);
}
);
width = 1147;
}
);
unicode = 00C8;
},
{
glyphname = Eacute;
layers = (
{
layerId = "F819D8FE-9E94-402B-BBDD-25FA288DB24B";
name = Bold;
paths = (
{
closed = 1;
nodes = (
"1026 0 LINE",
"184 0 LINE",
"184 1462 LINE",
"1026 1462 LINE",
"1026 1208 LINE",
"494 1208 LINE",
"494 887 LINE",
"989 887 LINE",
"989 633 LINE",
"494 633 LINE",
"494 256 LINE",
"1026 256 LINE"
);
},
{
closed = 1;
nodes = (
"424 1579 LINE",
"424 1606 LINE",
"539 1739 OFFCURVE",
"617 1840 OFFCURVE",
"659 1907 CURVE",
"1001 1907 LINE",
"1001 1886 LINE",
"932 1817 OFFCURVE",
"722 1646 OFFCURVE",
"627 1579 CURVE"
);
}
);
width = 1147;
}
);
unicode = 00C9;
},
{
glyphname = Ecircumflex;
layers = (
{
layerId = "F819D8FE-9E94-402B-BBDD-25FA288DB24B";
name = Bold;
paths = (
{
closed = 1;
nodes = (
"1026 0 LINE",
"184 0 LINE",
"184 1462 LINE",
"1026 1462 LINE",
"1026 1208 LINE",
"494 1208 LINE",
"494 887 LINE",
"989 887 LINE",
"989 633 LINE",
"494 633 LINE",
"494 256 LINE",
"1026 256 LINE"
);
},
{
closed = 1;
nodes = (
"841 1579 LINE",
"736 1641 OFFCURVE",
"658 1700 OFFCURVE",
"607 1755 CURVE",
"555 1701 OFFCURVE",
"479 1642 OFFCURVE",
"378 1579 CURVE",
"175 1579 LINE",
"175 1606 LINE",
"301 1732 OFFCURVE",
"386 1832 OFFCURVE",
"431 1907 CURVE",
"788 1907 LINE",
"829 1838 OFFCURVE",
"948 1699 OFFCURVE",
"1044 1606 CURVE",
"1044 1579 LINE"
);
}
);
width = 1147;
}
);
unicode = 00CA;
},
{
glyphname = Edieresis;
layers = (
{
layerId = "F819D8FE-9E94-402B-BBDD-25FA288DB24B";
name = Bold;
paths = (
{
closed = 1;
nodes = (
"1026 0 LINE",
"184 0 LINE",
"184 1462 LINE",
"1026 1462 LINE",
"1026 1208 LINE",
"494 1208 LINE",
"494 887 LINE",
"989 887 LINE",
"989 633 LINE",
"494 633 LINE",
"494 256 LINE",
"1026 256 LINE"
);
},
{
closed = 1;
nodes = (
"272 1830 OFFCURVE",
"326 1878 OFFCURVE",
"411 1878 CURVE SMOOTH",
"499 1878 OFFCURVE",
"552 1824 OFFCURVE",
"552 1743 CURVE SMOOTH",
"552 1663 OFFCURVE",
"498 1610 OFFCURVE",
"411 1610 CURVE SMOOTH",
"326 1610 OFFCURVE",
"272 1659 OFFCURVE",
"272 1743 CURVE SMOOTH"
);
},
{
closed = 1;
nodes = (
"675 1836 OFFCURVE",
"736 1878 OFFCURVE",
"816 1878 CURVE SMOOTH",
"903 1878 OFFCURVE",
"958 1827 OFFCURVE",
"958 1743 CURVE SMOOTH",
"958 1662 OFFCURVE",
"901 1610 OFFCURVE",
"816 1610 CURVE SMOOTH",
"736 1610 OFFCURVE",
"675 1652 OFFCURVE",
"675 1743 CURVE SMOOTH"
);
}
);
width = 1147;
}
);
unicode = 00CB;
},
{
glyphname = Igrave;
layers = (
{
layerId = "F819D8FE-9E94-402B-BBDD-25FA288DB24B";
name = Bold;
paths = (
{
closed = 1;
nodes = (
"184 0 LINE",
"184 1462 LINE",
"494 1462 LINE",
"494 0 LINE"
);
},
{
closed = 1;
nodes = (
"317 1579 LINE",
"233 1638 OFFCURVE",
"33 1798 OFFCURVE",
"-58 1886 CURVE",
"-58 1907 LINE",
"284 1907 LINE",
"326 1840 OFFCURVE",
"404 1739 OFFCURVE",
"519 1606 CURVE",
"519 1579 LINE"
);
}
);
width = 678;
}
);
unicode = 00CC;
},
{
glyphname = Iacute;
layers = (
{
layerId = "F819D8FE-9E94-402B-BBDD-25FA288DB24B";
name = Bold;
paths = (
{
closed = 1;
nodes = (
"184 0 LINE",
"184 1462 LINE",
"494 1462 LINE",
"494 0 LINE"
);
},
{
closed = 1;
nodes = (
"167 1579 LINE",
"167 1606 LINE",
"282 1739 OFFCURVE",
"360 1840 OFFCURVE",
"402 1907 CURVE",
"744 1907 LINE",
"744 1886 LINE",
"675 1817 OFFCURVE",
"465 1646 OFFCURVE",
"370 1579 CURVE"
);
}
);
width = 678;
}
);
unicode = 00CD;
},
{
glyphname = Icircumflex;
layers = (
{
layerId = "F819D8FE-9E94-402B-BBDD-25FA288DB24B";
name = Bold;
paths = (
{
closed = 1;
nodes = (
"184 0 LINE",
"184 1462 LINE",
"494 1462 LINE",
"494 0 LINE"
);
},
{
closed = 1;
nodes = (
"570 1579 LINE",
"465 1641 OFFCURVE",
"387 1700 OFFCURVE",
"336 1755 CURVE",
"284 1701 OFFCURVE",
"208 1642 OFFCURVE",
"107 1579 CURVE",
"-96 1579 LINE",
"-96 1606 LINE",
"30 1732 OFFCURVE",
"115 1832 OFFCURVE",
"160 1907 CURVE",
"517 1907 LINE",
"558 1838 OFFCURVE",
"677 1699 OFFCURVE",
"773 1606 CURVE",
"773 1579 LINE"
);
}
);
width = 678;
}
);
unicode = 00CE;
},
{
glyphname = Idieresis;
layers = (
{
layerId = "F819D8FE-9E94-402B-BBDD-25FA288DB24B";
name = Bold;
paths = (
{
closed = 1;
nodes = (
"184 0 LINE",
"184 1462 LINE",
"494 1462 LINE",
"494 0 LINE"
);
},
{
closed = 1;
nodes = (
"-3 1830 OFFCURVE",
"51 1878 OFFCURVE",
"136 1878 CURVE SMOOTH",
"224 1878 OFFCURVE",
"277 1824 OFFCURVE",
"277 1743 CURVE SMOOTH",
"277 1663 OFFCURVE",
"223 1610 OFFCURVE",
"136 1610 CURVE SMOOTH",
"51 1610 OFFCURVE",
"-3 1659 OFFCURVE",
"-3 1743 CURVE SMOOTH"
);
},
{
closed = 1;
nodes = (
"400 1836 OFFCURVE",
"461 1878 OFFCURVE",
"541 1878 CURVE SMOOTH",
"628 1878 OFFCURVE",
"683 1827 OFFCURVE",
"683 1743 CURVE SMOOTH",
"683 1662 OFFCURVE",
"626 1610 OFFCURVE",
"541 1610 CURVE SMOOTH",
"461 1610 OFFCURVE",
"400 1652 OFFCURVE",
"400 1743 CURVE SMOOTH"
);
}
);
width = 678;
}
);
unicode = 00CF;
},
{
glyphname = Eth;
layers = (
{
layerId = "F819D8FE-9E94-402B-BBDD-25FA288DB24B";
name = Bold;
paths = (
{
closed = 1;
nodes = (
"47 850 LINE",
"184 850 LINE",
"184 1462 LINE",
"643 1462 LINE SMOOTH",
"1120 1462 OFFCURVE",
"1397 1197 OFFCURVE",
"1397 745 CURVE SMOOTH",
"1397 264 OFFCURVE",
"1115 0 OFFCURVE",
"598 0 CURVE SMOOTH",
"184 0 LINE",
"184 596 LINE",
"47 596 LINE"
);
},
{
closed = 1;
nodes = (
"1075 1046 OFFCURVE",
"937 1208 OFFCURVE",
"657 1208 CURVE SMOOTH",
"494 1208 LINE",
"494 850 LINE",
"731 850 LINE",
"731 596 LINE",
"494 596 LINE",
"494 256 LINE",
"625 256 LINE SMOOTH",
"925 256 OFFCURVE",
"1075 416 OFFCURVE",
"1075 737 CURVE SMOOTH"
);
}
);
width = 1516;
}
);
unicode = 00D0;
},
{
glyphname = Ntilde;
layers = (
{
layerId = "F819D8FE-9E94-402B-BBDD-25FA288DB24B";
name = Bold;
paths = (
{
closed = 1;
nodes = (
"1481 0 LINE",
"1087 0 LINE",
"451 1106 LINE",
"442 1106 LINE",
"455 911 OFFCURVE",
"461 771 OFFCURVE",
"461 688 CURVE SMOOTH",
"461 0 LINE",
"184 0 LINE",
"184 1462 LINE",
"575 1462 LINE",
"1210 367 LINE",
"1217 367 LINE",
"1207 557 OFFCURVE",
"1202 691 OFFCURVE",
"1202 770 CURVE SMOOTH",
"1202 1462 LINE",
"1481 1462 LINE"
);
},
{
closed = 1;
nodes = (
"627 1684 OFFCURVE",
"584 1649 OFFCURVE",
"567 1577 CURVE",
"418 1577 LINE",
"433 1770 OFFCURVE",
"533 1886 OFFCURVE",
"690 1886 CURVE SMOOTH",
"745 1886 OFFCURVE",
"797 1860 OFFCURVE",
"849 1834 CURVE SMOOTH",
"900 1808 OFFCURVE",
"949 1782 OFFCURVE",
"997 1782 CURVE SMOOTH",
"1038 1782 OFFCURVE",
"1081 1816 OFFCURVE",
"1098 1888 CURVE",
"1247 1888 LINE",
"1232 1695 OFFCURVE",
"1130 1579 OFFCURVE",
"975 1579 CURVE SMOOTH",
"920 1579 OFFCURVE",
"868 1606 OFFCURVE",
"817 1632 CURVE SMOOTH",
"765 1658 OFFCURVE",
"716 1684 OFFCURVE",
"668 1684 CURVE SMOOTH"
);
}
);
width = 1665;
}
);
unicode = 00D1;
},
{
glyphname = Ograve;
layers = (
{
layerId = "F819D8FE-9E94-402B-BBDD-25FA288DB24B";
name = Bold;
paths = (
{
closed = 1;
nodes = (
"1511 249 OFFCURVE",
"1263 -20 OFFCURVE",
"815 -20 CURVE SMOOTH",
"367 -20 OFFCURVE",
"119 248 OFFCURVE",
"119 735 CURVE SMOOTH",
"119 1222 OFFCURVE",
"368 1485 OFFCURVE",
"817 1485 CURVE SMOOTH",
"1266 1485 OFFCURVE",
"1511 1218 OFFCURVE",
"1511 733 CURVE SMOOTH"
);
},
{
closed = 1;
nodes = (
"444 406 OFFCURVE",
"568 240 OFFCURVE",
"815 240 CURVE SMOOTH",
"1062 240 OFFCURVE",
"1186 404 OFFCURVE",
"1186 733 CURVE SMOOTH",
"1186 1062 OFFCURVE",
"1063 1227 OFFCURVE",
"817 1227 CURVE SMOOTH",
"570 1227 OFFCURVE",
"444 1060 OFFCURVE",
"444 733 CURVE SMOOTH"
);
},
{
closed = 1;
nodes = (
"824 1579 LINE",
"740 1638 OFFCURVE",
"540 1798 OFFCURVE",
"449 1886 CURVE",
"449 1907 LINE",
"791 1907 LINE",
"833 1840 OFFCURVE",
"911 1739 OFFCURVE",
"1026 1606 CURVE",
"1026 1579 LINE"
);
}
);
width = 1630;
}
);
unicode = 00D2;
},
{
glyphname = Oacute;
layers = (
{
layerId = "F819D8FE-9E94-402B-BBDD-25FA288DB24B";
name = Bold;
paths = (
{
closed = 1;
nodes = (
"1511 249 OFFCURVE",
"1263 -20 OFFCURVE",
"815 -20 CURVE SMOOTH",
"367 -20 OFFCURVE",
"119 248 OFFCURVE",
"119 735 CURVE SMOOTH",
"119 1222 OFFCURVE",
"368 1485 OFFCURVE",
"817 1485 CURVE SMOOTH",
"1266 1485 OFFCURVE",
"1511 1218 OFFCURVE",
"1511 733 CURVE SMOOTH"
);
},
{
closed = 1;
nodes = (
"444 406 OFFCURVE",
"568 240 OFFCURVE",
"815 240 CURVE SMOOTH",
"1062 240 OFFCURVE",
"1186 404 OFFCURVE",
"1186 733 CURVE SMOOTH",
"1186 1062 OFFCURVE",
"1063 1227 OFFCURVE",
"817 1227 CURVE SMOOTH",
"570 1227 OFFCURVE",
"444 1060 OFFCURVE",
"444 733 CURVE SMOOTH"
);
},
{
closed = 1;
nodes = (
"658 1579 LINE",
"658 1606 LINE",
"773 1739 OFFCURVE",
"851 1840 OFFCURVE",
"893 1907 CURVE",
"1235 1907 LINE",
"1235 1886 LINE",
"1166 1817 OFFCURVE",
"956 1646 OFFCURVE",
"861 1579 CURVE"
);
}
);
width = 1630;
}
);
unicode = 00D3;
},
{
glyphname = Ocircumflex;
layers = (
{
layerId = "F819D8FE-9E94-402B-BBDD-25FA288DB24B";
name = Bold;
paths = (
{
closed = 1;
nodes = (
"1511 249 OFFCURVE",
"1263 -20 OFFCURVE",
"815 -20 CURVE SMOOTH",
"367 -20 OFFCURVE",
"119 248 OFFCURVE",
"119 735 CURVE SMOOTH",
"119 1222 OFFCURVE",
"368 1485 OFFCURVE",
"817 1485 CURVE SMOOTH",
"1266 1485 OFFCURVE",
"1511 1218 OFFCURVE",
"1511 733 CURVE SMOOTH"
);
},
{
closed = 1;
nodes = (
"444 406 OFFCURVE",
"568 240 OFFCURVE",
"815 240 CURVE SMOOTH",
"1062 240 OFFCURVE",
"1186 404 OFFCURVE",
"1186 733 CURVE SMOOTH",
"1186 1062 OFFCURVE",
"1063 1227 OFFCURVE",
"817 1227 CURVE SMOOTH",
"570 1227 OFFCURVE",
"444 1060 OFFCURVE",
"444 733 CURVE SMOOTH"
);
},
{
closed = 1;
nodes = (
"1047 1579 LINE",
"942 1641 OFFCURVE",
"864 1700 OFFCURVE",
"813 1755 CURVE",
"761 1701 OFFCURVE",
"685 1642 OFFCURVE",
"584 1579 CURVE",
"381 1579 LINE",
"381 1606 LINE",
"507 1732 OFFCURVE",
"592 1832 OFFCURVE",
"637 1907 CURVE",
"994 1907 LINE",
"1035 1838 OFFCURVE",
"1154 1699 OFFCURVE",
"1250 1606 CURVE",
"1250 1579 LINE"
);
}
);
width = 1630;
}
);
unicode = 00D4;
},
{
glyphname = Otilde;
layers = (
{
layerId = "F819D8FE-9E94-402B-BBDD-25FA288DB24B";
name = Bold;
paths = (
{
closed = 1;
nodes = (
"1511 249 OFFCURVE",
"1263 -20 OFFCURVE",
"815 -20 CURVE SMOOTH",
"367 -20 OFFCURVE",
"119 248 OFFCURVE",
"119 735 CURVE SMOOTH",
"119 1222 OFFCURVE",
"368 1485 OFFCURVE",
"817 1485 CURVE SMOOTH",
"1266 1485 OFFCURVE",
"1511 1218 OFFCURVE",
"1511 733 CURVE SMOOTH"
);
},
{
closed = 1;
nodes = (
"444 406 OFFCURVE",
"568 240 OFFCURVE",
"815 240 CURVE SMOOTH",
"1062 240 OFFCURVE",
"1186 404 OFFCURVE",
"1186 733 CURVE SMOOTH",
"1186 1062 OFFCURVE",
"1063 1227 OFFCURVE",
"817 1227 CURVE SMOOTH",
"570 1227 OFFCURVE",
"444 1060 OFFCURVE",
"444 733 CURVE SMOOTH"
);
},
{
closed = 1;
nodes = (
"611 1684 OFFCURVE",
"568 1649 OFFCURVE",
"551 1577 CURVE",
"402 1577 LINE",
"417 1770 OFFCURVE",
"517 1886 OFFCURVE",
"674 1886 CURVE SMOOTH",
"729 1886 OFFCURVE",
"781 1860 OFFCURVE",
"833 1834 CURVE SMOOTH",
"884 1808 OFFCURVE",
"933 1782 OFFCURVE",
"981 1782 CURVE SMOOTH",
"1022 1782 OFFCURVE",
"1065 1816 OFFCURVE",
"1082 1888 CURVE",
"1231 1888 LINE",
"1216 1695 OFFCURVE",
"1114 1579 OFFCURVE",
"959 1579 CURVE SMOOTH",
"904 1579 OFFCURVE",
"852 1606 OFFCURVE",
"801 1632 CURVE SMOOTH",
"749 1658 OFFCURVE",
"700 1684 OFFCURVE",
"652 1684 CURVE SMOOTH"
);
}
);
width = 1630;
}
);
unicode = 00D5;
},
{
glyphname = Odieresis;
layers = (
{
layerId = "F819D8FE-9E94-402B-BBDD-25FA288DB24B";
name = Bold;
paths = (
{
closed = 1;
nodes = (
"1511 249 OFFCURVE",
"1263 -20 OFFCURVE",
"815 -20 CURVE SMOOTH",
"367 -20 OFFCURVE",
"119 248 OFFCURVE",
"119 735 CURVE SMOOTH",
"119 1222 OFFCURVE",
"368 1485 OFFCURVE",
"817 1485 CURVE SMOOTH",
"1266 1485 OFFCURVE",
"1511 1218 OFFCURVE",
"1511 733 CURVE SMOOTH"
);
},
{
closed = 1;
nodes = (
"444 406 OFFCURVE",
"568 240 OFFCURVE",
"815 240 CURVE SMOOTH",
"1062 240 OFFCURVE",
"1186 404 OFFCURVE",
"1186 733 CURVE SMOOTH",
"1186 1062 OFFCURVE",
"1063 1227 OFFCURVE",
"817 1227 CURVE SMOOTH",
"570 1227 OFFCURVE",
"444 1060 OFFCURVE",
"444 733 CURVE SMOOTH"
);
},
{
closed = 1;
nodes = (
"474 1830 OFFCURVE",
"528 1878 OFFCURVE",
"613 1878 CURVE SMOOTH",
"701 1878 OFFCURVE",
"754 1824 OFFCURVE",
"754 1743 CURVE SMOOTH",
"754 1663 OFFCURVE",
"700 1610 OFFCURVE",
"613 1610 CURVE SMOOTH",
"528 1610 OFFCURVE",
"474 1659 OFFCURVE",
"474 1743 CURVE SMOOTH"
);
},
{
closed = 1;
nodes = (
"877 1836 OFFCURVE",
"938 1878 OFFCURVE",
"1018 1878 CURVE SMOOTH",
"1105 1878 OFFCURVE",
"1160 1827 OFFCURVE",
"1160 1743 CURVE SMOOTH",
"1160 1662 OFFCURVE",
"1103 1610 OFFCURVE",
"1018 1610 CURVE SMOOTH",
"938 1610 OFFCURVE",
"877 1652 OFFCURVE",
"877 1743 CURVE SMOOTH"
);
}
);
width = 1630;
}
);
unicode = 00D6;
},
{
glyphname = multiply;
layers = (
{
layerId = "F819D8FE-9E94-402B-BBDD-25FA288DB24B";
name = Bold;
paths = (
{
closed = 1;
nodes = (
"428 723 LINE",
"129 1024 LINE",
"281 1178 LINE",
"582 879 LINE",
"887 1178 LINE",
"1040 1028 LINE",
"735 723 LINE",
"1036 420 LINE",
"887 268 LINE",
"582 569 LINE",
"281 270 LINE",
"131 422 LINE"
);
}
);
width = 1169;
}
);
unicode = 00D7;
},
{
glyphname = Oslash;
layers = (
{
layerId = "F819D8FE-9E94-402B-BBDD-25FA288DB24B";
name = Bold;
paths = (
{
closed = 1;
nodes = (
"1511 249 OFFCURVE",
"1263 -20 OFFCURVE",
"815 -20 CURVE SMOOTH",
"684 -20 OFFCURVE",
"572 2 OFFCURVE",
"479 45 CURVE",
"389 -90 LINE",
"227 18 LINE",
"317 154 LINE",
"185 283 OFFCURVE",
"119 477 OFFCURVE",
"119 735 CURVE SMOOTH",
"119 1222 OFFCURVE",
"368 1485 OFFCURVE",
"817 1485 CURVE SMOOTH",
"949 1485 OFFCURVE",
"1064 1462 OFFCURVE",
"1161 1415 CURVE",
"1245 1540 LINE",
"1405 1436 LINE",
"1317 1305 LINE",
"1446 1176 OFFCURVE",
"1511 985 OFFCURVE",
"1511 733 CURVE SMOOTH"
);
},
{
closed = 1;
nodes = (
"444 606 OFFCURVE",
"463 503 OFFCURVE",
"500 426 CURVE",
"1006 1182 LINE",
"950 1212 OFFCURVE",
"887 1227 OFFCURVE",
"817 1227 CURVE SMOOTH",
"570 1227 OFFCURVE",
"444 1060 OFFCURVE",
"444 733 CURVE SMOOTH"
);
},
{
closed = 1;
nodes = (
"1186 853 OFFCURVE",
"1169 952 OFFCURVE",
"1135 1030 CURVE",
"635 279 LINE",
"686 253 OFFCURVE",
"746 240 OFFCURVE",
"815 240 CURVE SMOOTH",
"1062 240 OFFCURVE",
"1186 404 OFFCURVE",
"1186 733 CURVE SMOOTH"
);
}
);
width = 1630;
}
);
unicode = 00D8;
},
{
glyphname = Ugrave;
layers = (
{
layerId = "F819D8FE-9E94-402B-BBDD-25FA288DB24B";
name = Bold;
paths = (
{
closed = 1;
nodes = (
"1374 1462 LINE",
"1374 516 LINE SMOOTH",
"1374 300 OFFCURVE",
"1275 132 OFFCURVE",
"1092 45 CURVE SMOOTH",
"1001 2 OFFCURVE",
"893 -20 OFFCURVE",
"768 -20 CURVE SMOOTH",
"392 -20 OFFCURVE",
"174 185 OFFCURVE",
"174 520 CURVE SMOOTH",
"174 1462 LINE",
"483 1462 LINE",
"483 567 LINE SMOOTH",
"483 342 OFFCURVE",
"567 240 OFFCURVE",
"776 240 CURVE SMOOTH",
"979 240 OFFCURVE",
"1065 342 OFFCURVE",
"1065 569 CURVE SMOOTH",
"1065 1462 LINE"
);
},
{
closed = 1;
nodes = (
"750 1579 LINE",
"666 1638 OFFCURVE",
"466 1798 OFFCURVE",
"375 1886 CURVE",
"375 1907 LINE",
"717 1907 LINE",
"759 1840 OFFCURVE",
"837 1739 OFFCURVE",
"952 1606 CURVE",
"952 1579 LINE"
);
}
);
width = 1548;
}
);
unicode = 00D9;
},
{
glyphname = Uacute;
layers = (
{
layerId = "F819D8FE-9E94-402B-BBDD-25FA288DB24B";
name = Bold;
paths = (
{
closed = 1;
nodes = (
"1374 1462 LINE",
"1374 516 LINE SMOOTH",
"1374 300 OFFCURVE",
"1275 132 OFFCURVE",
"1092 45 CURVE SMOOTH",
"1001 2 OFFCURVE",
"893 -20 OFFCURVE",
"768 -20 CURVE SMOOTH",
"392 -20 OFFCURVE",
"174 185 OFFCURVE",
"174 520 CURVE SMOOTH",
"174 1462 LINE",
"483 1462 LINE",
"483 567 LINE SMOOTH",
"483 342 OFFCURVE",
"567 240 OFFCURVE",
"776 240 CURVE SMOOTH",
"979 240 OFFCURVE",
"1065 342 OFFCURVE",
"1065 569 CURVE SMOOTH",
"1065 1462 LINE"
);
},
{
closed = 1;
nodes = (
"602 1579 LINE",
"602 1606 LINE",
"717 1739 OFFCURVE",
"795 1840 OFFCURVE",
"837 1907 CURVE",
"1179 1907 LINE",
"1179 1886 LINE",
"1110 1817 OFFCURVE",
"900 1646 OFFCURVE",
"805 1579 CURVE"
);
}
);
width = 1548;
}
);
unicode = 00DA;
},
{
glyphname = Ucircumflex;
layers = (
{
layerId = "F819D8FE-9E94-402B-BBDD-25FA288DB24B";
name = Bold;
paths = (
{
closed = 1;
nodes = (
"1374 1462 LINE",
"1374 516 LINE SMOOTH",
"1374 300 OFFCURVE",
"1275 132 OFFCURVE",
"1092 45 CURVE SMOOTH",
"1001 2 OFFCURVE",
"893 -20 OFFCURVE",
"768 -20 CURVE SMOOTH",
"392 -20 OFFCURVE",
"174 185 OFFCURVE",
"174 520 CURVE SMOOTH",
"174 1462 LINE",
"483 1462 LINE",
"483 567 LINE SMOOTH",
"483 342 OFFCURVE",
"567 240 OFFCURVE",
"776 240 CURVE SMOOTH",
"979 240 OFFCURVE",
"1065 342 OFFCURVE",
"1065 569 CURVE SMOOTH",
"1065 1462 LINE"
);
},
{
closed = 1;
nodes = (
"1006 1579 LINE",
"901 1641 OFFCURVE",
"823 1700 OFFCURVE",
"772 1755 CURVE",
"720 1701 OFFCURVE",
"644 1642 OFFCURVE",
"543 1579 CURVE",
"340 1579 LINE",
"340 1606 LINE",
"466 1732 OFFCURVE",
"551 1832 OFFCURVE",
"596 1907 CURVE",
"953 1907 LINE",
"994 1838 OFFCURVE",
"1113 1699 OFFCURVE",
"1209 1606 CURVE",
"1209 1579 LINE"
);
}
);
width = 1548;
}
);
unicode = 00DB;
},
{
glyphname = Udieresis;
layers = (
{
layerId = "F819D8FE-9E94-402B-BBDD-25FA288DB24B";
name = Bold;
paths = (
{
closed = 1;
nodes = (
"1374 1462 LINE",
"1374 516 LINE SMOOTH",
"1374 300 OFFCURVE",
"1275 132 OFFCURVE",
"1092 45 CURVE SMOOTH",
"1001 2 OFFCURVE",
"893 -20 OFFCURVE",
"768 -20 CURVE SMOOTH",
"392 -20 OFFCURVE",
"174 185 OFFCURVE",
"174 520 CURVE SMOOTH",
"174 1462 LINE",
"483 1462 LINE",
"483 567 LINE SMOOTH",
"483 342 OFFCURVE",
"567 240 OFFCURVE",
"776 240 CURVE SMOOTH",
"979 240 OFFCURVE",
"1065 342 OFFCURVE",
"1065 569 CURVE SMOOTH",
"1065 1462 LINE"
);
},
{
closed = 1;
nodes = (
"433 1830 OFFCURVE",
"487 1878 OFFCURVE",
"572 1878 CURVE SMOOTH",
"660 1878 OFFCURVE",
"713 1824 OFFCURVE",
"713 1743 CURVE SMOOTH",
"713 1663 OFFCURVE",
"659 1610 OFFCURVE",
"572 1610 CURVE SMOOTH",
"487 1610 OFFCURVE",
"433 1659 OFFCURVE",
"433 1743 CURVE SMOOTH"
);
},
{
closed = 1;
nodes = (
"836 1836 OFFCURVE",
"897 1878 OFFCURVE",
"977 1878 CURVE SMOOTH",
"1064 1878 OFFCURVE",
"1119 1827 OFFCURVE",
"1119 1743 CURVE SMOOTH",
"1119 1662 OFFCURVE",
"1062 1610 OFFCURVE",
"977 1610 CURVE SMOOTH",
"897 1610 OFFCURVE",
"836 1652 OFFCURVE",
"836 1743 CURVE SMOOTH"
);
}
);
width = 1548;
}
);
unicode = 00DC;
},
{
glyphname = Yacute;
layers = (
{
layerId = "F819D8FE-9E94-402B-BBDD-25FA288DB24B";
name = Bold;
paths = (
{
closed = 1;
nodes = (
"639 860 LINE",
"944 1462 LINE",
"1278 1462 LINE",
"793 569 LINE",
"793 0 LINE",
"485 0 LINE",
"485 559 LINE",
"0 1462 LINE",
"336 1462 LINE"
);
},
{
closed = 1;
nodes = (
"461 1579 LINE",
"461 1606 LINE",
"576 1739 OFFCURVE",
"654 1840 OFFCURVE",
"696 1907 CURVE",
"1038 1907 LINE",
"1038 1886 LINE",
"969 1817 OFFCURVE",
"759 1646 OFFCURVE",
"664 1579 CURVE"
);
}
);
width = 1278;
}
);
unicode = 00DD;
},
{
glyphname = Thorn;
layers = (
{
layerId = "F819D8FE-9E94-402B-BBDD-25FA288DB24B";
name = Bold;
paths = (
{
closed = 1;
nodes = (
"1194 465 OFFCURVE",
"996 293 OFFCURVE",
"647 293 CURVE SMOOTH",
"494 293 LINE",
"494 0 LINE",
"184 0 LINE",
"184 1462 LINE",
"494 1462 LINE",
"494 1233 LINE",
"672 1233 LINE SMOOTH",
"1011 1233 OFFCURVE",
"1194 1070 OFFCURVE",
"1194 770 CURVE SMOOTH"
);
},
{
closed = 1;
nodes = (
"494 543 LINE",
"594 543 LINE SMOOTH",
"787 543 OFFCURVE",
"881 607 OFFCURVE",
"881 770 CURVE SMOOTH",
"881 913 OFFCURVE",
"799 981 OFFCURVE",
"618 981 CURVE SMOOTH",
"494 981 LINE"
);
}
);
width = 1286;
}
);
unicode = 00DE;
},
{
glyphname = germandbls;
layers = (
{
layerId = "F819D8FE-9E94-402B-BBDD-25FA288DB24B";
name = Bold;
paths = (
{
closed = 1;
nodes = (
"1249 1156 OFFCURVE",
"1218 1093 OFFCURVE",
"1175 1042 CURVE SMOOTH",
"1132 991 OFFCURVE",
"1080 954 OFFCURVE",
"1037 922 CURVE SMOOTH",
"994 890 OFFCURVE",
"963 863 OFFCURVE",
"963 834 CURVE SMOOTH",
"963 816 OFFCURVE",
"972 798 OFFCURVE",
"990 781 CURVE SMOOTH",
"1007 764 OFFCURVE",
"1038 742 OFFCURVE",
"1082 715 CURVE SMOOTH",
"1179 654 OFFCURVE",
"1246 608 OFFCURVE",
"1281 575 CURVE SMOOTH",
"1351 510 OFFCURVE",
"1384 430 OFFCURVE",
"1384 326 CURVE SMOOTH",
"1384 97 OFFCURVE",
"1227 -20 OFFCURVE",
"924 -20 CURVE SMOOTH",
"792 -20 OFFCURVE",
"701 -2 OFFCURVE",
"621 43 CURVE",
"621 285 LINE",
"692 237 OFFCURVE",
"818 199 OFFCURVE",
"903 199 CURVE SMOOTH",
"1015 199 OFFCURVE",
"1071 240 OFFCURVE",
"1071 322 CURVE SMOOTH",
"1071 377 OFFCURVE",
"1053 404 OFFCURVE",
"998 444 CURVE SMOOTH",
"971 464 OFFCURVE",
"932 488 OFFCURVE",
"883 516 CURVE SMOOTH",
"715 612 OFFCURVE",
"659 680 OFFCURVE",
"659 788 CURVE SMOOTH",
"659 873 OFFCURVE",
"706 942 OFFCURVE",
"799 1007 CURVE SMOOTH",
"902 1080 OFFCURVE",
"938 1127 OFFCURVE",
"938 1188 CURVE SMOOTH",
"938 1268 OFFCURVE",
"844 1329 OFFCURVE",
"711 1329 CURVE SMOOTH",
"556 1329 OFFCURVE",
"465 1256 OFFCURVE",
"465 1128 CURVE SMOOTH",
"465 0 LINE",
"160 0 LINE",
"160 1139 LINE SMOOTH",
"160 1407 OFFCURVE",
"367 1567 OFFCURVE",
"711 1567 CURVE SMOOTH",
"1036 1567 OFFCURVE",
"1249 1440 OFFCURVE",
"1249 1241 CURVE SMOOTH"
);
}
);
width = 1456;
}
);
unicode = 00DF;
},
{
glyphname = agrave;
layers = (
{
layerId = "F819D8FE-9E94-402B-BBDD-25FA288DB24B";
name = Bold;
paths = (
{
closed = 1;
nodes = (
"870 0 LINE",
"811 152 LINE",
"803 152 LINE",
"700 23 OFFCURVE",
"607 -20 OFFCURVE",
"432 -20 CURVE SMOOTH",
"217 -20 OFFCURVE",
"86 107 OFFCURVE",
"86 334 CURVE SMOOTH",
"86 571 OFFCURVE",
"251 678 OFFCURVE",
"586 690 CURVE SMOOTH",
"780 696 LINE",
"780 745 LINE SMOOTH",
"780 858 OFFCURVE",
"722 915 OFFCURVE",
"606 915 CURVE SMOOTH",
"517 915 OFFCURVE",
"412 888 OFFCURVE",
"291 834 CURVE",
"190 1040 LINE",
"319 1107 OFFCURVE",
"461 1141 OFFCURVE",
"618 1141 CURVE SMOOTH",
"918 1141 OFFCURVE",
"1083 1012 OFFCURVE",
"1083 745 CURVE SMOOTH",
"1083 0 LINE"
);
},
{
closed = 1;
nodes = (
"780 518 LINE",
"662 514 LINE SMOOTH",
"485 509 OFFCURVE",
"399 452 OFFCURVE",
"399 332 CURVE SMOOTH",
"399 246 OFFCURVE",
"448 203 OFFCURVE",
"547 203 CURVE SMOOTH",
"688 203 OFFCURVE",
"780 291 OFFCURVE",
"780 426 CURVE SMOOTH"
);
},
{
closed = 1;
nodes = (
"614 1241 LINE",
"530 1300 OFFCURVE",
"330 1460 OFFCURVE",
"239 1548 CURVE",
"239 1569 LINE",
"581 1569 LINE",
"623 1502 OFFCURVE",
"701 1401 OFFCURVE",
"816 1268 CURVE",
"816 1241 LINE"
);
}
);
width = 1237;
}
);
unicode = 00E0;
},
{
glyphname = aacute;
layers = (
{
layerId = "F819D8FE-9E94-402B-BBDD-25FA288DB24B";
name = Bold;
paths = (
{
closed = 1;
nodes = (
"870 0 LINE",
"811 152 LINE",
"803 152 LINE",
"700 23 OFFCURVE",
"607 -20 OFFCURVE",
"432 -20 CURVE SMOOTH",
"217 -20 OFFCURVE",
"86 107 OFFCURVE",
"86 334 CURVE SMOOTH",
"86 571 OFFCURVE",
"251 678 OFFCURVE",
"586 690 CURVE SMOOTH",
"780 696 LINE",
"780 745 LINE SMOOTH",
"780 858 OFFCURVE",
"722 915 OFFCURVE",
"606 915 CURVE SMOOTH",
"517 915 OFFCURVE",
"412 888 OFFCURVE",
"291 834 CURVE",
"190 1040 LINE",
"319 1107 OFFCURVE",
"461 1141 OFFCURVE",
"618 1141 CURVE SMOOTH",
"918 1141 OFFCURVE",
"1083 1012 OFFCURVE",
"1083 745 CURVE SMOOTH",
"1083 0 LINE"
);
},
{
closed = 1;
nodes = (
"780 518 LINE",
"662 514 LINE SMOOTH",
"485 509 OFFCURVE",
"399 452 OFFCURVE",
"399 332 CURVE SMOOTH",
"399 246 OFFCURVE",
"448 203 OFFCURVE",
"547 203 CURVE SMOOTH",
"688 203 OFFCURVE",
"780 291 OFFCURVE",
"780 426 CURVE SMOOTH"
);
},
{
closed = 1;
nodes = (
"441 1241 LINE",
"441 1268 LINE",
"556 1401 OFFCURVE",
"634 1502 OFFCURVE",
"676 1569 CURVE",
"1018 1569 LINE",
"1018 1548 LINE",
"949 1479 OFFCURVE",
"739 1308 OFFCURVE",
"644 1241 CURVE"
);
}
);
width = 1237;
}
);
unicode = 00E1;
},
{
glyphname = acircumflex;
layers = (
{
layerId = "F819D8FE-9E94-402B-BBDD-25FA288DB24B";
name = Bold;
paths = (
{
closed = 1;
nodes = (
"870 0 LINE",
"811 152 LINE",
"803 152 LINE",
"700 23 OFFCURVE",
"607 -20 OFFCURVE",
"432 -20 CURVE SMOOTH",
"217 -20 OFFCURVE",
"86 107 OFFCURVE",
"86 334 CURVE SMOOTH",
"86 571 OFFCURVE",
"251 678 OFFCURVE",
"586 690 CURVE SMOOTH",
"780 696 LINE",
"780 745 LINE SMOOTH",
"780 858 OFFCURVE",
"722 915 OFFCURVE",
"606 915 CURVE SMOOTH",
"517 915 OFFCURVE",
"412 888 OFFCURVE",
"291 834 CURVE",
"190 1040 LINE",
"319 1107 OFFCURVE",
"461 1141 OFFCURVE",
"618 1141 CURVE SMOOTH",
"918 1141 OFFCURVE",
"1083 1012 OFFCURVE",
"1083 745 CURVE SMOOTH",
"1083 0 LINE"
);
},
{
closed = 1;
nodes = (
"780 518 LINE",
"662 514 LINE SMOOTH",
"485 509 OFFCURVE",
"399 452 OFFCURVE",
"399 332 CURVE SMOOTH",
"399 246 OFFCURVE",
"448 203 OFFCURVE",
"547 203 CURVE SMOOTH",
"688 203 OFFCURVE",
"780 291 OFFCURVE",
"780 426 CURVE SMOOTH"
);
},
{
closed = 1;
nodes = (
"843 1240 LINE",
"738 1302 OFFCURVE",
"660 1361 OFFCURVE",
"609 1416 CURVE",
"557 1362 OFFCURVE",
"481 1303 OFFCURVE",
"380 1240 CURVE",
"177 1240 LINE",
"177 1267 LINE",
"303 1393 OFFCURVE",
"388 1493 OFFCURVE",
"433 1568 CURVE",
"790 1568 LINE",
"831 1499 OFFCURVE",
"950 1360 OFFCURVE",
"1046 1267 CURVE",
"1046 1240 LINE"
);
}
);
width = 1237;
}
);
unicode = 00E2;
},
{
glyphname = atilde;
layers = (
{
layerId = "F819D8FE-9E94-402B-BBDD-25FA288DB24B";
name = Bold;
paths = (
{
closed = 1;
nodes = (
"870 0 LINE",
"811 152 LINE",
"803 152 LINE",
"700 23 OFFCURVE",
"607 -20 OFFCURVE",
"432 -20 CURVE SMOOTH",
"217 -20 OFFCURVE",
"86 107 OFFCURVE",
"86 334 CURVE SMOOTH",
"86 571 OFFCURVE",
"251 678 OFFCURVE",
"586 690 CURVE SMOOTH",
"780 696 LINE",
"780 745 LINE SMOOTH",
"780 858 OFFCURVE",
"722 915 OFFCURVE",
"606 915 CURVE SMOOTH",
"517 915 OFFCURVE",
"412 888 OFFCURVE",
"291 834 CURVE",
"190 1040 LINE",
"319 1107 OFFCURVE",
"461 1141 OFFCURVE",
"618 1141 CURVE SMOOTH",
"918 1141 OFFCURVE",
"1083 1012 OFFCURVE",
"1083 745 CURVE SMOOTH",
"1083 0 LINE"
);
},
{
closed = 1;
nodes = (
"780 518 LINE",
"662 514 LINE SMOOTH",
"485 509 OFFCURVE",
"399 452 OFFCURVE",
"399 332 CURVE SMOOTH",
"399 246 OFFCURVE",
"448 203 OFFCURVE",
"547 203 CURVE SMOOTH",
"688 203 OFFCURVE",
"780 291 OFFCURVE",
"780 426 CURVE SMOOTH"
);
},
{
closed = 1;
nodes = (
"426 1346 OFFCURVE",
"383 1311 OFFCURVE",
"366 1239 CURVE",
"217 1239 LINE",
"232 1432 OFFCURVE",
"332 1548 OFFCURVE",
"489 1548 CURVE SMOOTH",
"544 1548 OFFCURVE",
"596 1522 OFFCURVE",
"648 1496 CURVE SMOOTH",
"699 1470 OFFCURVE",
"748 1444 OFFCURVE",
"796 1444 CURVE SMOOTH",
"837 1444 OFFCURVE",
"880 1478 OFFCURVE",
"897 1550 CURVE",
"1046 1550 LINE",
"1031 1357 OFFCURVE",
"929 1241 OFFCURVE",
"774 1241 CURVE SMOOTH",
"719 1241 OFFCURVE",
"667 1268 OFFCURVE",
"616 1294 CURVE SMOOTH",
"564 1320 OFFCURVE",
"515 1346 OFFCURVE",
"467 1346 CURVE SMOOTH"
);
}
);
width = 1237;
}
);
unicode = 00E3;
},
{
glyphname = adieresis;
layers = (
{
layerId = "F819D8FE-9E94-402B-BBDD-25FA288DB24B";
name = Bold;
paths = (
{
closed = 1;
nodes = (
"870 0 LINE",
"811 152 LINE",
"803 152 LINE",
"700 23 OFFCURVE",
"607 -20 OFFCURVE",
"432 -20 CURVE SMOOTH",
"217 -20 OFFCURVE",
"86 107 OFFCURVE",
"86 334 CURVE SMOOTH",
"86 571 OFFCURVE",
"251 678 OFFCURVE",
"586 690 CURVE SMOOTH",
"780 696 LINE",
"780 745 LINE SMOOTH",
"780 858 OFFCURVE",
"722 915 OFFCURVE",
"606 915 CURVE SMOOTH",
"517 915 OFFCURVE",
"412 888 OFFCURVE",
"291 834 CURVE",
"190 1040 LINE",
"319 1107 OFFCURVE",
"461 1141 OFFCURVE",
"618 1141 CURVE SMOOTH",
"918 1141 OFFCURVE",
"1083 1012 OFFCURVE",
"1083 745 CURVE SMOOTH",
"1083 0 LINE"
);
},
{
closed = 1;
nodes = (
"780 518 LINE",
"662 514 LINE SMOOTH",
"485 509 OFFCURVE",
"399 452 OFFCURVE",
"399 332 CURVE SMOOTH",
"399 246 OFFCURVE",
"448 203 OFFCURVE",
"547 203 CURVE SMOOTH",
"688 203 OFFCURVE",
"780 291 OFFCURVE",
"780 426 CURVE SMOOTH"
);
},
{
closed = 1;
nodes = (
"285 1492 OFFCURVE",
"339 1540 OFFCURVE",
"424 1540 CURVE SMOOTH",
"512 1540 OFFCURVE",
"565 1486 OFFCURVE",
"565 1405 CURVE SMOOTH",
"565 1325 OFFCURVE",
"511 1272 OFFCURVE",
"424 1272 CURVE SMOOTH",
"339 1272 OFFCURVE",
"285 1321 OFFCURVE",
"285 1405 CURVE SMOOTH"
);
},
{
closed = 1;
nodes = (
"688 1498 OFFCURVE",
"749 1540 OFFCURVE",
"829 1540 CURVE SMOOTH",
"916 1540 OFFCURVE",
"971 1489 OFFCURVE",
"971 1405 CURVE SMOOTH",
"971 1324 OFFCURVE",
"914 1272 OFFCURVE",
"829 1272 CURVE SMOOTH",
"749 1272 OFFCURVE",
"688 1314 OFFCURVE",
"688 1405 CURVE SMOOTH"
);
}
);
width = 1237;
}
);
unicode = 00E4;
},
{
glyphname = aring;
layers = (
{
layerId = "F819D8FE-9E94-402B-BBDD-25FA288DB24B";
name = Bold;
paths = (
{
closed = 1;
nodes = (
"870 0 LINE",
"811 152 LINE",
"803 152 LINE",
"700 23 OFFCURVE",
"607 -20 OFFCURVE",
"432 -20 CURVE SMOOTH",
"217 -20 OFFCURVE",
"86 107 OFFCURVE",
"86 334 CURVE SMOOTH",
"86 571 OFFCURVE",
"251 678 OFFCURVE",
"586 690 CURVE SMOOTH",
"780 696 LINE",
"780 745 LINE SMOOTH",
"780 858 OFFCURVE",
"722 915 OFFCURVE",
"606 915 CURVE SMOOTH",
"517 915 OFFCURVE",
"412 888 OFFCURVE",
"291 834 CURVE",
"190 1040 LINE",
"319 1107 OFFCURVE",
"461 1141 OFFCURVE",
"618 1141 CURVE SMOOTH",
"918 1141 OFFCURVE",
"1083 1012 OFFCURVE",
"1083 745 CURVE SMOOTH",
"1083 0 LINE"
);
},
{
closed = 1;
nodes = (
"780 518 LINE",
"662 514 LINE SMOOTH",
"485 509 OFFCURVE",
"399 452 OFFCURVE",
"399 332 CURVE SMOOTH",
"399 246 OFFCURVE",
"448 203 OFFCURVE",
"547 203 CURVE SMOOTH",
"688 203 OFFCURVE",
"780 291 OFFCURVE",
"780 426 CURVE SMOOTH"
);
},
{
closed = 1;
nodes = (
"883 1335 OFFCURVE",
"778 1239 OFFCURVE",
"629 1239 CURVE SMOOTH",
"480 1239 OFFCURVE",
"381 1330 OFFCURVE",
"381 1477 CURVE SMOOTH",
"381 1621 OFFCURVE",
"478 1714 OFFCURVE",
"629 1714 CURVE SMOOTH",
"776 1714 OFFCURVE",
"883 1616 OFFCURVE",
"883 1479 CURVE SMOOTH"
);
},
{
closed = 1;
nodes = (
"725 1537 OFFCURVE",
"685 1573 OFFCURVE",
"629 1573 CURVE SMOOTH",
"573 1573 OFFCURVE",
"533 1537 OFFCURVE",
"533 1477 CURVE SMOOTH",
"533 1417 OFFCURVE",
"565 1380 OFFCURVE",
"629 1380 CURVE SMOOTH",
"685 1380 OFFCURVE",
"725 1417 OFFCURVE",
"725 1477 CURVE SMOOTH"
);
}
);
width = 1237;
}
);
unicode = 00E5;
},
{
glyphname = ae;
layers = (
{
layerId = "F819D8FE-9E94-402B-BBDD-25FA288DB24B";
name = Bold;
paths = (
{
closed = 1;
nodes = (
"1146 -20 OFFCURVE",
"991 46 OFFCURVE",
"895 186 CURVE",
"764 30 OFFCURVE",
"653 -20 OFFCURVE",
"442 -20 CURVE SMOOTH",
"227 -20 OFFCURVE",
"86 114 OFFCURVE",
"86 334 CURVE SMOOTH",
"86 571 OFFCURVE",
"248 678 OFFCURVE",
"569 690 CURVE SMOOTH",
"760 696 LINE",
"760 780 LINE SMOOTH",
"760 872 OFFCURVE",
"697 915 OFFCURVE",
"594 915 CURVE SMOOTH",
"501 915 OFFCURVE",
"399 889 OFFCURVE",
"289 838 CURVE",
"190 1040 LINE",
"316 1107 OFFCURVE",
"457 1141 OFFCURVE",
"612 1141 CURVE SMOOTH",
"763 1141 OFFCURVE",
"877 1097 OFFCURVE",
"954 1010 CURVE",
"1042 1095 OFFCURVE",
"1153 1139 OFFCURVE",
"1313 1139 CURVE SMOOTH",
"1608 1139 OFFCURVE",
"1790 942 OFFCURVE",
"1790 631 CURVE SMOOTH",
"1790 483 LINE",
"1067 483 LINE",
"1074 310 OFFCURVE",
"1173 207 OFFCURVE",
"1346 207 CURVE SMOOTH",
"1477 207 OFFCURVE",
"1603 236 OFFCURVE",
"1726 295 CURVE",
"1726 59 LINE",
"1621 7 OFFCURVE",
"1508 -20 OFFCURVE",
"1329 -20 CURVE SMOOTH"
);
},
{
closed = 1;
nodes = (
"760 518 LINE",
"647 514 LINE SMOOTH",
"482 509 OFFCURVE",
"399 453 OFFCURVE",
"399 332 CURVE SMOOTH",
"399 246 OFFCURVE",
"446 203 OFFCURVE",
"539 203 CURVE SMOOTH",
"674 203 OFFCURVE",
"760 291 OFFCURVE",
"760 426 CURVE SMOOTH"
);
},
{
closed = 1;
nodes = (
"1162 922 OFFCURVE",
"1084 843 OFFCURVE",
"1073 686 CURVE",
"1503 686 LINE",
"1500 835 OFFCURVE",
"1424 922 OFFCURVE",
"1307 922 CURVE SMOOTH"
);
}
);
width = 1878;
}
);
unicode = 00E6;
},
{
glyphname = ccedilla;
layers = (
{
layerId = "F819D8FE-9E94-402B-BBDD-25FA288DB24B";
name = Bold;
paths = (
{
closed = 1;
nodes = (
"266 -20 OFFCURVE",
"92 171 OFFCURVE",
"92 553 CURVE SMOOTH",
"92 933 OFFCURVE",
"288 1139 OFFCURVE",
"641 1139 CURVE SMOOTH",
"770 1139 OFFCURVE",
"886 1114 OFFCURVE",
"989 1063 CURVE",
"899 827 LINE",
"803 866 OFFCURVE",
"724 893 OFFCURVE",
"641 893 CURVE SMOOTH",
"482 893 OFFCURVE",
"403 780 OFFCURVE",
"403 555 CURVE SMOOTH",
"403 336 OFFCURVE",
"482 227 OFFCURVE",
"641 227 CURVE SMOOTH",
"758 227 OFFCURVE",
"854 257 OFFCURVE",
"954 324 CURVE",
"954 63 LINE",
"855 0 OFFCURVE",
"767 -20 OFFCURVE",
"614 -20 CURVE SMOOTH"
);
},
{
closed = 1;
nodes = (
"805 -421 OFFCURVE",
"707 -492 OFFCURVE",
"496 -492 CURVE SMOOTH",
"444 -492 OFFCURVE",
"395 -485 OFFCURVE",
"350 -471 CURVE",
"350 -303 LINE",
"386 -312 OFFCURVE",
"460 -324 OFFCURVE",
"493 -324 CURVE SMOOTH",
"541 -324 OFFCURVE",
"565 -303 OFFCURVE",
"565 -262 CURVE SMOOTH",
"565 -207 OFFCURVE",
"510 -171 OFFCURVE",
"399 -154 CURVE",
"477 0 LINE",
"670 0 LINE",
"643 -61 LINE",
"742 -93 OFFCURVE",
"805 -165 OFFCURVE",
"805 -250 CURVE SMOOTH"
);
}
);
width = 1053;
}
);
unicode = 00E7;
},
{
glyphname = egrave;
layers = (
{
layerId = "F819D8FE-9E94-402B-BBDD-25FA288DB24B";
name = Bold;
paths = (
{
closed = 1;
nodes = (
"494 922 OFFCURVE",
"419 837 OFFCURVE",
"408 686 CURVE",
"836 686 LINE",
"833 837 OFFCURVE",
"752 922 OFFCURVE",
"623 922 CURVE SMOOTH"
);
},
{
closed = 1;
nodes = (
"306 -20 OFFCURVE",
"92 187 OFFCURVE",
"92 551 CURVE SMOOTH",
"92 926 OFFCURVE",
"290 1139 OFFCURVE",
"621 1139 CURVE SMOOTH",
"937 1139 OFFCURVE",
"1122 948 OFFCURVE",
"1122 631 CURVE SMOOTH",
"1122 483 LINE",
"401 483 LINE",
"408 310 OFFCURVE",
"507 207 OFFCURVE",
"680 207 CURVE SMOOTH",
"815 207 OFFCURVE",
"928 234 OFFCURVE",
"1059 295 CURVE",
"1059 59 LINE",
"952 6 OFFCURVE",
"841 -20 OFFCURVE",
"666 -20 CURVE SMOOTH"
);
},
{
closed = 1;
nodes = (
"620 1241 LINE",
"536 1300 OFFCURVE",
"336 1460 OFFCURVE",
"245 1548 CURVE",
"245 1569 LINE",
"587 1569 LINE",
"629 1502 OFFCURVE",
"707 1401 OFFCURVE",
"822 1268 CURVE",
"822 1241 LINE"
);
}
);
width = 1210;
}
);
unicode = 00E8;
},
{
glyphname = eacute;
layers = (
{
layerId = "F819D8FE-9E94-402B-BBDD-25FA288DB24B";
name = Bold;
paths = (
{
closed = 1;
nodes = (
"494 922 OFFCURVE",
"419 837 OFFCURVE",
"408 686 CURVE",
"836 686 LINE",
"833 837 OFFCURVE",
"752 922 OFFCURVE",
"623 922 CURVE SMOOTH"
);
},
{
closed = 1;
nodes = (
"306 -20 OFFCURVE",
"92 187 OFFCURVE",
"92 551 CURVE SMOOTH",
"92 926 OFFCURVE",
"290 1139 OFFCURVE",
"621 1139 CURVE SMOOTH",
"937 1139 OFFCURVE",
"1122 948 OFFCURVE",
"1122 631 CURVE SMOOTH",
"1122 483 LINE",
"401 483 LINE",
"408 310 OFFCURVE",
"507 207 OFFCURVE",
"680 207 CURVE SMOOTH",
"815 207 OFFCURVE",
"928 234 OFFCURVE",
"1059 295 CURVE",
"1059 59 LINE",
"952 6 OFFCURVE",
"841 -20 OFFCURVE",
"666 -20 CURVE SMOOTH"
);
},
{
closed = 1;
nodes = (
"447 1241 LINE",
"447 1268 LINE",
"562 1401 OFFCURVE",
"640 1502 OFFCURVE",
"682 1569 CURVE",
"1024 1569 LINE",
"1024 1548 LINE",
"955 1479 OFFCURVE",
"745 1308 OFFCURVE",
"650 1241 CURVE"
);
}
);
width = 1210;
}
);
unicode = 00E9;
},
{
glyphname = ecircumflex;
layers = (
{
layerId = "F819D8FE-9E94-402B-BBDD-25FA288DB24B";
name = Bold;
paths = (
{
closed = 1;
nodes = (
"494 922 OFFCURVE",
"419 837 OFFCURVE",
"408 686 CURVE",
"836 686 LINE",
"833 837 OFFCURVE",
"752 922 OFFCURVE",
"623 922 CURVE SMOOTH"
);
},
{
closed = 1;
nodes = (
"306 -20 OFFCURVE",
"92 187 OFFCURVE",
"92 551 CURVE SMOOTH",
"92 926 OFFCURVE",
"290 1139 OFFCURVE",
"621 1139 CURVE SMOOTH",
"937 1139 OFFCURVE",
"1122 948 OFFCURVE",
"1122 631 CURVE SMOOTH",
"1122 483 LINE",
"401 483 LINE",
"408 310 OFFCURVE",
"507 207 OFFCURVE",
"680 207 CURVE SMOOTH",
"815 207 OFFCURVE",
"928 234 OFFCURVE",
"1059 295 CURVE",
"1059 59 LINE",
"952 6 OFFCURVE",
"841 -20 OFFCURVE",
"666 -20 CURVE SMOOTH"
);
},
{
closed = 1;
nodes = (
"860 1241 LINE",
"755 1303 OFFCURVE",
"677 1362 OFFCURVE",
"626 1417 CURVE",
"574 1363 OFFCURVE",
"498 1304 OFFCURVE",
"397 1241 CURVE",
"194 1241 LINE",
"194 1268 LINE",
"320 1394 OFFCURVE",
"405 1494 OFFCURVE",
"450 1569 CURVE",
"807 1569 LINE",
"848 1500 OFFCURVE",
"967 1361 OFFCURVE",
"1063 1268 CURVE",
"1063 1241 LINE"
);
}
);
width = 1210;
}
);
unicode = 00EA;
},
{
glyphname = edieresis;
layers = (
{
layerId = "F819D8FE-9E94-402B-BBDD-25FA288DB24B";
name = Bold;
paths = (
{
closed = 1;
nodes = (
"494 922 OFFCURVE",
"419 837 OFFCURVE",
"408 686 CURVE",
"836 686 LINE",
"833 837 OFFCURVE",
"752 922 OFFCURVE",
"623 922 CURVE SMOOTH"
);
},
{
closed = 1;
nodes = (
"306 -20 OFFCURVE",
"92 187 OFFCURVE",
"92 551 CURVE SMOOTH",
"92 926 OFFCURVE",
"290 1139 OFFCURVE",
"621 1139 CURVE SMOOTH",
"937 1139 OFFCURVE",
"1122 948 OFFCURVE",
"1122 631 CURVE SMOOTH",
"1122 483 LINE",
"401 483 LINE",
"408 310 OFFCURVE",
"507 207 OFFCURVE",
"680 207 CURVE SMOOTH",
"815 207 OFFCURVE",
"928 234 OFFCURVE",
"1059 295 CURVE",
"1059 59 LINE",
"952 6 OFFCURVE",
"841 -20 OFFCURVE",
"666 -20 CURVE SMOOTH"
);
},
{
closed = 1;
nodes = (
"297 1492 OFFCURVE",
"351 1540 OFFCURVE",
"436 1540 CURVE SMOOTH",
"524 1540 OFFCURVE",
"577 1486 OFFCURVE",
"577 1405 CURVE SMOOTH",
"577 1325 OFFCURVE",
"523 1272 OFFCURVE",
"436 1272 CURVE SMOOTH",
"351 1272 OFFCURVE",
"297 1321 OFFCURVE",
"297 1405 CURVE SMOOTH"
);
},
{
closed = 1;
nodes = (
"700 1498 OFFCURVE",
"761 1540 OFFCURVE",
"841 1540 CURVE SMOOTH",
"928 1540 OFFCURVE",
"983 1489 OFFCURVE",
"983 1405 CURVE SMOOTH",
"983 1324 OFFCURVE",
"926 1272 OFFCURVE",
"841 1272 CURVE SMOOTH",
"761 1272 OFFCURVE",
"700 1314 OFFCURVE",
"700 1405 CURVE SMOOTH"
);
}
);
width = 1210;
}
);
unicode = 00EB;
},
{
glyphname = igrave;
layers = (
{
layerId = "F819D8FE-9E94-402B-BBDD-25FA288DB24B";
name = Bold;
paths = (
{
closed = 1;
nodes = (
"465 0 LINE",
"160 0 LINE",
"160 1118 LINE",
"465 1118 LINE"
);
},
{
closed = 1;
nodes = (
"274 1241 LINE",
"190 1300 OFFCURVE",
"-10 1460 OFFCURVE",
"-101 1548 CURVE",
"-101 1569 LINE",
"241 1569 LINE",
"283 1502 OFFCURVE",
"361 1401 OFFCURVE",
"476 1268 CURVE",
"476 1241 LINE"
);
}
);
width = 625;
}
);
unicode = 00EC;
},
{
glyphname = iacute;
layers = (
{
layerId = "F819D8FE-9E94-402B-BBDD-25FA288DB24B";
name = Bold;
paths = (
{
closed = 1;
nodes = (
"465 0 LINE",
"160 0 LINE",
"160 1118 LINE",
"465 1118 LINE"
);
},
{
closed = 1;
nodes = (
"145 1241 LINE",
"145 1268 LINE",
"260 1401 OFFCURVE",
"338 1502 OFFCURVE",
"380 1569 CURVE",
"722 1569 LINE",
"722 1548 LINE",
"653 1479 OFFCURVE",
"443 1308 OFFCURVE",
"348 1241 CURVE"
);
}
);
width = 625;
}
);
unicode = 00ED;
},
{
glyphname = icircumflex;
layers = (
{
layerId = "F819D8FE-9E94-402B-BBDD-25FA288DB24B";
name = Bold;
paths = (
{
closed = 1;
nodes = (
"465 0 LINE",
"160 0 LINE",
"160 1118 LINE",
"465 1118 LINE"
);
},
{
closed = 1;
nodes = (
"544 1241 LINE",
"439 1303 OFFCURVE",
"361 1362 OFFCURVE",
"310 1417 CURVE",
"258 1363 OFFCURVE",
"182 1304 OFFCURVE",
"81 1241 CURVE",
"-122 1241 LINE",
"-122 1268 LINE",
"4 1394 OFFCURVE",
"89 1494 OFFCURVE",
"134 1569 CURVE",
"491 1569 LINE",
"532 1500 OFFCURVE",
"651 1361 OFFCURVE",
"747 1268 CURVE",
"747 1241 LINE"
);
}
);
width = 625;
}
);
unicode = 00EE;
},
{
glyphname = idieresis;
layers = (
{
layerId = "F819D8FE-9E94-402B-BBDD-25FA288DB24B";
name = Bold;
paths = (
{
closed = 1;
nodes = (
"465 0 LINE",
"160 0 LINE",
"160 1118 LINE",
"465 1118 LINE"
);
},
{
closed = 1;
nodes = (
"-29 1492 OFFCURVE",
"25 1540 OFFCURVE",
"110 1540 CURVE SMOOTH",
"198 1540 OFFCURVE",
"251 1486 OFFCURVE",
"251 1405 CURVE SMOOTH",
"251 1325 OFFCURVE",
"197 1272 OFFCURVE",
"110 1272 CURVE SMOOTH",
"25 1272 OFFCURVE",
"-29 1321 OFFCURVE",
"-29 1405 CURVE SMOOTH"
);
},
{
closed = 1;
nodes = (
"374 1498 OFFCURVE",
"435 1540 OFFCURVE",
"515 1540 CURVE SMOOTH",
"602 1540 OFFCURVE",
"657 1489 OFFCURVE",
"657 1405 CURVE SMOOTH",
"657 1324 OFFCURVE",
"600 1272 OFFCURVE",
"515 1272 CURVE SMOOTH",
"435 1272 OFFCURVE",
"374 1314 OFFCURVE",
"374 1405 CURVE SMOOTH"
);
}
);
width = 625;
}
);
unicode = 00EF;
},
{
glyphname = eth;
layers = (
{
layerId = "F819D8FE-9E94-402B-BBDD-25FA288DB24B";
name = Bold;
paths = (
{
closed = 1;
nodes = (
"510 1303 LINE",
"457 1338 OFFCURVE",
"406 1369 OFFCURVE",
"358 1395 CURVE",
"459 1571 LINE",
"555 1528 OFFCURVE",
"641 1481 OFFCURVE",
"717 1430 CURVE",
"942 1569 LINE",
"1042 1415 LINE",
"872 1311 LINE",
"1080 1120 OFFCURVE",
"1176 882 OFFCURVE",
"1176 573 CURVE SMOOTH",
"1176 200 OFFCURVE",
"971 -20 OFFCURVE",
"631 -20 CURVE SMOOTH",
"304 -20 OFFCURVE",
"92 176 OFFCURVE",
"92 489 CURVE SMOOTH",
"92 800 OFFCURVE",
"278 995 OFFCURVE",
"573 995 CURVE SMOOTH",
"710 995 OFFCURVE",
"801 962 OFFCURVE",
"848 897 CURVE",
"856 901 LINE",
"811 1009 OFFCURVE",
"747 1103 OFFCURVE",
"664 1182 CURVE",
"434 1040 LINE",
"334 1196 LINE"
);
},
{
closed = 1;
nodes = (
"864 676 OFFCURVE",
"778 770 OFFCURVE",
"635 770 CURVE SMOOTH",
"474 770 OFFCURVE",
"403 682 OFFCURVE",
"403 487 CURVE SMOOTH",
"403 300 OFFCURVE",
"486 205 OFFCURVE",
"635 205 CURVE SMOOTH",
"799 205 OFFCURVE",
"864 315 OFFCURVE",
"864 532 CURVE SMOOTH"
);
}
);
width = 1268;
}
);
unicode = 00F0;
},
{
glyphname = ntilde;
layers = (
{
layerId = "F819D8FE-9E94-402B-BBDD-25FA288DB24B";
name = Bold;
paths = (
{
closed = 1;
nodes = (
"1192 0 LINE",
"887 0 LINE",
"887 653 LINE SMOOTH",
"887 814 OFFCURVE",
"832 895 OFFCURVE",
"707 895 CURVE SMOOTH",
"536 895 OFFCURVE",
"465 790 OFFCURVE",
"465 526 CURVE SMOOTH",
"465 0 LINE",
"160 0 LINE",
"160 1118 LINE",
"393 1118 LINE",
"434 975 LINE",
"451 975 LINE",
"519 1083 OFFCURVE",
"643 1139 OFFCURVE",
"795 1139 CURVE SMOOTH",
"1055 1139 OFFCURVE",
"1192 994 OFFCURVE",
"1192 729 CURVE SMOOTH"
);
},
{
closed = 1;
nodes = (
"467 1346 OFFCURVE",
"424 1311 OFFCURVE",
"407 1239 CURVE",
"258 1239 LINE",
"273 1432 OFFCURVE",
"373 1548 OFFCURVE",
"530 1548 CURVE SMOOTH",
"585 1548 OFFCURVE",
"637 1522 OFFCURVE",
"689 1496 CURVE SMOOTH",
"740 1470 OFFCURVE",
"789 1444 OFFCURVE",
"837 1444 CURVE SMOOTH",
"878 1444 OFFCURVE",
"921 1478 OFFCURVE",
"938 1550 CURVE",
"1087 1550 LINE",
"1072 1357 OFFCURVE",
"970 1241 OFFCURVE",
"815 1241 CURVE SMOOTH",
"760 1241 OFFCURVE",
"708 1268 OFFCURVE",
"657 1294 CURVE SMOOTH",
"605 1320 OFFCURVE",
"556 1346 OFFCURVE",
"508 1346 CURVE SMOOTH"
);
}
);
width = 1346;
}
);
unicode = 00F1;
},
{
glyphname = ograve;
layers = (
{
layerId = "F819D8FE-9E94-402B-BBDD-25FA288DB24B";
name = Bold;
paths = (
{
closed = 1;
nodes = (
"403 340 OFFCURVE",
"471 225 OFFCURVE",
"635 225 CURVE SMOOTH",
"798 225 OFFCURVE",
"864 338 OFFCURVE",
"864 561 CURVE SMOOTH",
"864 782 OFFCURVE",
"797 893 OFFCURVE",
"633 893 CURVE SMOOTH",
"470 893 OFFCURVE",
"403 784 OFFCURVE",
"403 561 CURVE SMOOTH"
);
},
{
closed = 1;
nodes = (
"1176 197 OFFCURVE",
"974 -20 OFFCURVE",
"631 -20 CURVE SMOOTH",
"416 -20 OFFCURVE",
"246 77 OFFCURVE",
"158 253 CURVE SMOOTH",
"114 341 OFFCURVE",
"92 444 OFFCURVE",
"92 561 CURVE SMOOTH",
"92 926 OFFCURVE",
"292 1139 OFFCURVE",
"637 1139 CURVE SMOOTH",
"852 1139 OFFCURVE",
"1022 1043 OFFCURVE",
"1110 868 CURVE SMOOTH",
"1154 781 OFFCURVE",
"1176 678 OFFCURVE",
"1176 561 CURVE SMOOTH"
);
},
{
closed = 1;
nodes = (
"612 1241 LINE",
"528 1300 OFFCURVE",
"328 1460 OFFCURVE",
"237 1548 CURVE",
"237 1569 LINE",
"579 1569 LINE",
"621 1502 OFFCURVE",
"699 1401 OFFCURVE",
"814 1268 CURVE",
"814 1241 LINE"
);
}
);
width = 1268;
}
);
unicode = 00F2;
},
{
glyphname = oacute;
layers = (
{
layerId = "F819D8FE-9E94-402B-BBDD-25FA288DB24B";
name = Bold;
paths = (
{
closed = 1;
nodes = (
"403 340 OFFCURVE",
"471 225 OFFCURVE",
"635 225 CURVE SMOOTH",
"798 225 OFFCURVE",
"864 338 OFFCURVE",
"864 561 CURVE SMOOTH",
"864 782 OFFCURVE",
"797 893 OFFCURVE",
"633 893 CURVE SMOOTH",
"470 893 OFFCURVE",
"403 784 OFFCURVE",
"403 561 CURVE SMOOTH"
);
},
{
closed = 1;
nodes = (
"1176 197 OFFCURVE",
"974 -20 OFFCURVE",
"631 -20 CURVE SMOOTH",
"416 -20 OFFCURVE",
"246 77 OFFCURVE",
"158 253 CURVE SMOOTH",
"114 341 OFFCURVE",
"92 444 OFFCURVE",
"92 561 CURVE SMOOTH",
"92 926 OFFCURVE",
"292 1139 OFFCURVE",
"637 1139 CURVE SMOOTH",
"852 1139 OFFCURVE",
"1022 1043 OFFCURVE",
"1110 868 CURVE SMOOTH",
"1154 781 OFFCURVE",
"1176 678 OFFCURVE",
"1176 561 CURVE SMOOTH"
);
},
{
closed = 1;
nodes = (
"467 1241 LINE",
"467 1268 LINE",
"582 1401 OFFCURVE",
"660 1502 OFFCURVE",
"702 1569 CURVE",
"1044 1569 LINE",
"1044 1548 LINE",
"975 1479 OFFCURVE",
"765 1308 OFFCURVE",
"670 1241 CURVE"
);
}
);
width = 1268;
}
);
unicode = 00F3;
},
{
glyphname = ocircumflex;
layers = (
{
layerId = "F819D8FE-9E94-402B-BBDD-25FA288DB24B";
name = Bold;
paths = (
{
closed = 1;
nodes = (
"403 340 OFFCURVE",
"471 225 OFFCURVE",
"635 225 CURVE SMOOTH",
"798 225 OFFCURVE",
"864 338 OFFCURVE",
"864 561 CURVE SMOOTH",
"864 782 OFFCURVE",
"797 893 OFFCURVE",
"633 893 CURVE SMOOTH",
"470 893 OFFCURVE",
"403 784 OFFCURVE",
"403 561 CURVE SMOOTH"
);
},
{
closed = 1;
nodes = (
"1176 197 OFFCURVE",
"974 -20 OFFCURVE",
"631 -20 CURVE SMOOTH",
"416 -20 OFFCURVE",
"246 77 OFFCURVE",
"158 253 CURVE SMOOTH",
"114 341 OFFCURVE",
"92 444 OFFCURVE",
"92 561 CURVE SMOOTH",
"92 926 OFFCURVE",
"292 1139 OFFCURVE",
"637 1139 CURVE SMOOTH",
"852 1139 OFFCURVE",
"1022 1043 OFFCURVE",
"1110 868 CURVE SMOOTH",
"1154 781 OFFCURVE",
"1176 678 OFFCURVE",
"1176 561 CURVE SMOOTH"
);
},
{
closed = 1;
nodes = (
"864 1241 LINE",
"759 1303 OFFCURVE",
"681 1362 OFFCURVE",
"630 1417 CURVE",
"578 1363 OFFCURVE",
"502 1304 OFFCURVE",
"401 1241 CURVE",
"198 1241 LINE",
"198 1268 LINE",
"324 1394 OFFCURVE",
"409 1494 OFFCURVE",
"454 1569 CURVE",
"811 1569 LINE",
"852 1500 OFFCURVE",
"971 1361 OFFCURVE",
"1067 1268 CURVE",
"1067 1241 LINE"
);
}
);
width = 1268;
}
);
unicode = 00F4;
},
{
glyphname = otilde;
layers = (
{
layerId = "F819D8FE-9E94-402B-BBDD-25FA288DB24B";
name = Bold;
paths = (
{
closed = 1;
nodes = (
"403 340 OFFCURVE",
"471 225 OFFCURVE",
"635 225 CURVE SMOOTH",
"798 225 OFFCURVE",
"864 338 OFFCURVE",
"864 561 CURVE SMOOTH",
"864 782 OFFCURVE",
"797 893 OFFCURVE",
"633 893 CURVE SMOOTH",
"470 893 OFFCURVE",
"403 784 OFFCURVE",
"403 561 CURVE SMOOTH"
);
},
{
closed = 1;
nodes = (
"1176 197 OFFCURVE",
"974 -20 OFFCURVE",
"631 -20 CURVE SMOOTH",
"416 -20 OFFCURVE",
"246 77 OFFCURVE",
"158 253 CURVE SMOOTH",
"114 341 OFFCURVE",
"92 444 OFFCURVE",
"92 561 CURVE SMOOTH",
"92 926 OFFCURVE",
"292 1139 OFFCURVE",
"637 1139 CURVE SMOOTH",
"852 1139 OFFCURVE",
"1022 1043 OFFCURVE",
"1110 868 CURVE SMOOTH",
"1154 781 OFFCURVE",
"1176 678 OFFCURVE",
"1176 561 CURVE SMOOTH"
);
},
{
closed = 1;
nodes = (
"428 1346 OFFCURVE",
"385 1311 OFFCURVE",
"368 1239 CURVE",
"219 1239 LINE",
"234 1432 OFFCURVE",
"334 1548 OFFCURVE",
"491 1548 CURVE SMOOTH",
"546 1548 OFFCURVE",
"598 1522 OFFCURVE",
"650 1496 CURVE SMOOTH",
"701 1470 OFFCURVE",
"750 1444 OFFCURVE",
"798 1444 CURVE SMOOTH",
"839 1444 OFFCURVE",
"882 1478 OFFCURVE",
"899 1550 CURVE",
"1048 1550 LINE",
"1033 1357 OFFCURVE",
"931 1241 OFFCURVE",
"776 1241 CURVE SMOOTH",
"721 1241 OFFCURVE",
"669 1268 OFFCURVE",
"618 1294 CURVE SMOOTH",
"566 1320 OFFCURVE",
"517 1346 OFFCURVE",
"469 1346 CURVE SMOOTH"
);
}
);
width = 1268;
}
);
unicode = 00F5;
},
{
glyphname = odieresis;
layers = (
{
layerId = "F819D8FE-9E94-402B-BBDD-25FA288DB24B";
name = Bold;
paths = (
{
closed = 1;
nodes = (
"403 340 OFFCURVE",
"471 225 OFFCURVE",
"635 225 CURVE SMOOTH",
"798 225 OFFCURVE",
"864 338 OFFCURVE",
"864 561 CURVE SMOOTH",
"864 782 OFFCURVE",
"797 893 OFFCURVE",
"633 893 CURVE SMOOTH",
"470 893 OFFCURVE",
"403 784 OFFCURVE",
"403 561 CURVE SMOOTH"
);
},
{
closed = 1;
nodes = (
"1176 197 OFFCURVE",
"974 -20 OFFCURVE",
"631 -20 CURVE SMOOTH",
"416 -20 OFFCURVE",
"246 77 OFFCURVE",
"158 253 CURVE SMOOTH",
"114 341 OFFCURVE",
"92 444 OFFCURVE",
"92 561 CURVE SMOOTH",
"92 926 OFFCURVE",
"292 1139 OFFCURVE",
"637 1139 CURVE SMOOTH",
"852 1139 OFFCURVE",
"1022 1043 OFFCURVE",
"1110 868 CURVE SMOOTH",
"1154 781 OFFCURVE",
"1176 678 OFFCURVE",
"1176 561 CURVE SMOOTH"
);
},
{
closed = 1;
nodes = (
"291 1492 OFFCURVE",
"345 1540 OFFCURVE",
"430 1540 CURVE SMOOTH",
"518 1540 OFFCURVE",
"571 1486 OFFCURVE",
"571 1405 CURVE SMOOTH",
"571 1325 OFFCURVE",
"517 1272 OFFCURVE",
"430 1272 CURVE SMOOTH",
"345 1272 OFFCURVE",
"291 1321 OFFCURVE",
"291 1405 CURVE SMOOTH"
);
},
{
closed = 1;
nodes = (
"694 1498 OFFCURVE",
"755 1540 OFFCURVE",
"835 1540 CURVE SMOOTH",
"922 1540 OFFCURVE",
"977 1489 OFFCURVE",
"977 1405 CURVE SMOOTH",
"977 1324 OFFCURVE",
"920 1272 OFFCURVE",
"835 1272 CURVE SMOOTH",
"755 1272 OFFCURVE",
"694 1314 OFFCURVE",
"694 1405 CURVE SMOOTH"
);
}
);
width = 1268;
}
);
unicode = 00F6;
},
{
glyphname = divide;
layers = (
{
layerId = "F819D8FE-9E94-402B-BBDD-25FA288DB24B";
name = Bold;
paths = (
{
closed = 1;
nodes = (
"88 612 LINE",
"88 831 LINE",
"1081 831 LINE",
"1081 612 LINE"
);
},
{
closed = 1;
nodes = (
"444 474 OFFCURVE",
"496 524 OFFCURVE",
"584 524 CURVE SMOOTH",
"672 524 OFFCURVE",
"723 470 OFFCURVE",
"723 373 CURVE SMOOTH",
"723 280 OFFCURVE",
"671 221 OFFCURVE",
"584 221 CURVE SMOOTH",
"497 221 OFFCURVE",
"444 274 OFFCURVE",
"444 373 CURVE SMOOTH"
);
},
{
closed = 1;
nodes = (
"444 1171 OFFCURVE",
"496 1223 OFFCURVE",
"584 1223 CURVE SMOOTH",
"673 1223 OFFCURVE",
"723 1166 OFFCURVE",
"723 1071 CURVE SMOOTH",
"723 978 OFFCURVE",
"671 920 OFFCURVE",
"584 920 CURVE SMOOTH",
"497 920 OFFCURVE",
"444 974 OFFCURVE",
"444 1071 CURVE SMOOTH"
);
}
);
width = 1169;
}
);
unicode = 00F7;
},
{
glyphname = oslash;
layers = (
{
layerId = "F819D8FE-9E94-402B-BBDD-25FA288DB24B";
name = Bold;
paths = (
{
closed = 1;
nodes = (
"1176 197 OFFCURVE",
"974 -20 OFFCURVE",
"631 -20 CURVE SMOOTH",
"547 -20 OFFCURVE",
"469 -5 OFFCURVE",
"397 25 CURVE",
"330 -76 LINE",
"176 29 LINE",
"244 129 LINE",
"143 233 OFFCURVE",
"92 377 OFFCURVE",
"92 561 CURVE SMOOTH",
"92 926 OFFCURVE",
"292 1139 OFFCURVE",
"637 1139 CURVE SMOOTH",
"725 1139 OFFCURVE",
"808 1122 OFFCURVE",
"885 1087 CURVE",
"940 1169 LINE",
"1092 1061 LINE",
"1034 977 LINE",
"1129 874 OFFCURVE",
"1176 735 OFFCURVE",
"1176 561 CURVE SMOOTH"
);
},
{
closed = 1;
nodes = (
"403 498 OFFCURVE",
"409 443 OFFCURVE",
"422 395 CURVE",
"739 870 LINE",
"710 885 OFFCURVE",
"675 893 OFFCURVE",
"633 893 CURVE SMOOTH",
"470 893 OFFCURVE",
"403 784 OFFCURVE",
"403 561 CURVE SMOOTH"
);
},
{
closed = 1;
nodes = (
"864 615 OFFCURVE",
"860 662 OFFCURVE",
"852 702 CURVE",
"543 240 LINE",
"568 230 OFFCURVE",
"599 225 OFFCURVE",
"635 225 CURVE SMOOTH",
"798 225 OFFCURVE",
"864 338 OFFCURVE",
"864 561 CURVE SMOOTH"
);
}
);
width = 1268;
}
);
unicode = 00F8;
},
{
glyphname = ugrave;
layers = (
{
layerId = "F819D8FE-9E94-402B-BBDD-25FA288DB24B";
name = Bold;
paths = (
{
closed = 1;
nodes = (
"952 0 LINE",
"911 143 LINE",
"895 143 LINE",
"830 39 OFFCURVE",
"704 -20 OFFCURVE",
"551 -20 CURVE SMOOTH",
"288 -20 OFFCURVE",
"154 125 OFFCURVE",
"154 389 CURVE SMOOTH",
"154 1118 LINE",
"459 1118 LINE",
"459 465 LINE SMOOTH",
"459 304 OFFCURVE",
"514 223 OFFCURVE",
"639 223 CURVE SMOOTH",
"810 223 OFFCURVE",
"881 328 OFFCURVE",
"881 592 CURVE SMOOTH",
"881 1118 LINE",
"1186 1118 LINE",
"1186 0 LINE"
);
},
{
closed = 1;
nodes = (
"620 1241 LINE",
"536 1300 OFFCURVE",
"336 1460 OFFCURVE",
"245 1548 CURVE",
"245 1569 LINE",
"587 1569 LINE",
"629 1502 OFFCURVE",
"707 1401 OFFCURVE",
"822 1268 CURVE",
"822 1241 LINE"
);
}
);
width = 1346;
}
);
unicode = 00F9;
},
{
glyphname = uacute;
layers = (
{
layerId = "F819D8FE-9E94-402B-BBDD-25FA288DB24B";
name = Bold;
paths = (
{
closed = 1;
nodes = (
"952 0 LINE",
"911 143 LINE",
"895 143 LINE",
"830 39 OFFCURVE",
"704 -20 OFFCURVE",
"551 -20 CURVE SMOOTH",
"288 -20 OFFCURVE",
"154 125 OFFCURVE",
"154 389 CURVE SMOOTH",
"154 1118 LINE",
"459 1118 LINE",
"459 465 LINE SMOOTH",
"459 304 OFFCURVE",
"514 223 OFFCURVE",
"639 223 CURVE SMOOTH",
"810 223 OFFCURVE",
"881 328 OFFCURVE",
"881 592 CURVE SMOOTH",
"881 1118 LINE",
"1186 1118 LINE",
"1186 0 LINE"
);
},
{
closed = 1;
nodes = (
"498 1241 LINE",
"498 1268 LINE",
"613 1401 OFFCURVE",
"691 1502 OFFCURVE",
"733 1569 CURVE",
"1075 1569 LINE",
"1075 1548 LINE",
"1006 1479 OFFCURVE",
"796 1308 OFFCURVE",
"701 1241 CURVE"
);
}
);
width = 1346;
}
);
unicode = 00FA;
},
{
glyphname = ucircumflex;
layers = (
{
layerId = "F819D8FE-9E94-402B-BBDD-25FA288DB24B";
name = Bold;
paths = (
{
closed = 1;
nodes = (
"952 0 LINE",
"911 143 LINE",
"895 143 LINE",
"830 39 OFFCURVE",
"704 -20 OFFCURVE",
"551 -20 CURVE SMOOTH",
"288 -20 OFFCURVE",
"154 125 OFFCURVE",
"154 389 CURVE SMOOTH",
"154 1118 LINE",
"459 1118 LINE",
"459 465 LINE SMOOTH",
"459 304 OFFCURVE",
"514 223 OFFCURVE",
"639 223 CURVE SMOOTH",
"810 223 OFFCURVE",
"881 328 OFFCURVE",
"881 592 CURVE SMOOTH",
"881 1118 LINE",
"1186 1118 LINE",
"1186 0 LINE"
);
},
{
closed = 1;
nodes = (
"901 1241 LINE",
"796 1303 OFFCURVE",
"718 1362 OFFCURVE",
"667 1417 CURVE",
"615 1363 OFFCURVE",
"539 1304 OFFCURVE",
"438 1241 CURVE",
"235 1241 LINE",
"235 1268 LINE",
"361 1394 OFFCURVE",
"446 1494 OFFCURVE",
"491 1569 CURVE",
"848 1569 LINE",
"889 1500 OFFCURVE",
"1008 1361 OFFCURVE",
"1104 1268 CURVE",
"1104 1241 LINE"
);
}
);
width = 1346;
}
);
unicode = 00FB;
},
{
glyphname = udieresis;
layers = (
{
layerId = "F819D8FE-9E94-402B-BBDD-25FA288DB24B";
name = Bold;
paths = (
{
closed = 1;
nodes = (
"952 0 LINE",
"911 143 LINE",
"895 143 LINE",
"830 39 OFFCURVE",
"704 -20 OFFCURVE",
"551 -20 CURVE SMOOTH",
"288 -20 OFFCURVE",
"154 125 OFFCURVE",
"154 389 CURVE SMOOTH",
"154 1118 LINE",
"459 1118 LINE",
"459 465 LINE SMOOTH",
"459 304 OFFCURVE",
"514 223 OFFCURVE",
"639 223 CURVE SMOOTH",
"810 223 OFFCURVE",
"881 328 OFFCURVE",
"881 592 CURVE SMOOTH",
"881 1118 LINE",
"1186 1118 LINE",
"1186 0 LINE"
);
},
{
closed = 1;
nodes = (
"326 1492 OFFCURVE",
"380 1540 OFFCURVE",
"465 1540 CURVE SMOOTH",
"553 1540 OFFCURVE",
"606 1486 OFFCURVE",
"606 1405 CURVE SMOOTH",
"606 1325 OFFCURVE",
"552 1272 OFFCURVE",
"465 1272 CURVE SMOOTH",
"380 1272 OFFCURVE",
"326 1321 OFFCURVE",
"326 1405 CURVE SMOOTH"
);
},
{
closed = 1;
nodes = (
"729 1498 OFFCURVE",
"790 1540 OFFCURVE",
"870 1540 CURVE SMOOTH",
"957 1540 OFFCURVE",
"1012 1489 OFFCURVE",
"1012 1405 CURVE SMOOTH",
"1012 1324 OFFCURVE",
"955 1272 OFFCURVE",
"870 1272 CURVE SMOOTH",
"790 1272 OFFCURVE",
"729 1314 OFFCURVE",
"729 1405 CURVE SMOOTH"
);
}
);
width = 1346;
}
);
unicode = 00FC;
},
{
glyphname = yacute;
layers = (
{
layerId = "F819D8FE-9E94-402B-BBDD-25FA288DB24B";
name = Bold;
paths = (
{
closed = 1;
nodes = (
"0 1118 LINE",
"334 1118 LINE",
"545 489 LINE SMOOTH",
"563 434 OFFCURVE",
"575 370 OFFCURVE",
"582 295 CURVE",
"588 295 LINE",
"595 364 OFFCURVE",
"610 428 OFFCURVE",
"631 489 CURVE SMOOTH",
"838 1118 LINE",
"1165 1118 LINE",
"692 -143 LINE SMOOTH",
"605 -376 OFFCURVE",
"440 -492 OFFCURVE",
"225 -492 CURVE SMOOTH",
"172 -492 OFFCURVE",
"121 -486 OFFCURVE",
"70 -475 CURVE",
"70 -233 LINE",
"107 -242 OFFCURVE",
"147 -246 OFFCURVE",
"190 -246 CURVE SMOOTH",
"298 -246 OFFCURVE",
"381 -180 OFFCURVE",
"426 -47 CURVE SMOOTH",
"444 8 LINE"
);
},
{
closed = 1;
nodes = (
"393 1241 LINE",
"393 1268 LINE",
"508 1401 OFFCURVE",
"586 1502 OFFCURVE",
"628 1569 CURVE",
"970 1569 LINE",
"970 1548 LINE",
"901 1479 OFFCURVE",
"691 1308 OFFCURVE",
"596 1241 CURVE"
);
}
);
width = 1165;
}
);
unicode = 00FD;
},
{
glyphname = thorn;
layers = (
{
layerId = "F819D8FE-9E94-402B-BBDD-25FA288DB24B";
name = Bold;
paths = (
{
closed = 1;
nodes = (
"465 973 LINE",
"532 1081 OFFCURVE",
"642 1139 OFFCURVE",
"782 1139 CURVE SMOOTH",
"1046 1139 OFFCURVE",
"1204 920 OFFCURVE",
"1204 561 CURVE SMOOTH",
"1204 197 OFFCURVE",
"1047 -20 OFFCURVE",
"782 -20 CURVE SMOOTH",
"640 -20 OFFCURVE",
"534 26 OFFCURVE",
"465 117 CURVE",
"451 117 LINE",
"458 55 LINE",
"465 -39 LINE",
"465 -492 LINE",
"160 -492 LINE",
"160 1556 LINE",
"465 1556 LINE",
"465 1165 LINE",
"458 1045 LINE",
"451 973 LINE"
);
},
{
closed = 1;
nodes = (
"533 895 OFFCURVE",
"468 809 OFFCURVE",
"465 596 CURVE SMOOTH",
"465 563 LINE SMOOTH",
"465 323 OFFCURVE",
"533 227 OFFCURVE",
"688 227 CURVE SMOOTH",
"825 227 OFFCURVE",
"893 340 OFFCURVE",
"893 565 CURVE SMOOTH",
"893 785 OFFCURVE",
"828 895 OFFCURVE",
"684 895 CURVE SMOOTH"
);
}
);
width = 1296;
}
);
unicode = 00FE;
},
{
glyphname = ydieresis;
layers = (
{
layerId = "F819D8FE-9E94-402B-BBDD-25FA288DB24B";
name = Bold;
paths = (
{
closed = 1;
nodes = (
"0 1118 LINE",
"334 1118 LINE",
"545 489 LINE SMOOTH",
"563 434 OFFCURVE",
"575 370 OFFCURVE",
"582 295 CURVE",
"588 295 LINE",
"595 364 OFFCURVE",
"610 428 OFFCURVE",
"631 489 CURVE SMOOTH",
"838 1118 LINE",
"1165 1118 LINE",
"692 -143 LINE SMOOTH",
"605 -376 OFFCURVE",
"440 -492 OFFCURVE",
"225 -492 CURVE SMOOTH",
"172 -492 OFFCURVE",
"121 -486 OFFCURVE",
"70 -475 CURVE",
"70 -233 LINE",
"107 -242 OFFCURVE",
"147 -246 OFFCURVE",
"190 -246 CURVE SMOOTH",
"298 -246 OFFCURVE",
"381 -180 OFFCURVE",
"426 -47 CURVE SMOOTH",
"444 8 LINE"
);
},
{
closed = 1;
nodes = (
"243 1492 OFFCURVE",
"297 1540 OFFCURVE",
"382 1540 CURVE SMOOTH",
"470 1540 OFFCURVE",
"523 1486 OFFCURVE",
"523 1405 CURVE SMOOTH",
"523 1325 OFFCURVE",
"469 1272 OFFCURVE",
"382 1272 CURVE SMOOTH",
"297 1272 OFFCURVE",
"243 1321 OFFCURVE",
"243 1405 CURVE SMOOTH"
);
},
{
closed = 1;
nodes = (
"646 1498 OFFCURVE",
"707 1540 OFFCURVE",
"787 1540 CURVE SMOOTH",
"874 1540 OFFCURVE",
"929 1489 OFFCURVE",
"929 1405 CURVE SMOOTH",
"929 1324 OFFCURVE",
"872 1272 OFFCURVE",
"787 1272 CURVE SMOOTH",
"707 1272 OFFCURVE",
"646 1314 OFFCURVE",
"646 1405 CURVE SMOOTH"
);
}
);
width = 1165;
}
);
unicode = 00FF;
},
{
glyphname = Amacron;
layers = (
{
layerId = "F819D8FE-9E94-402B-BBDD-25FA288DB24B";
name = Bold;
paths = (
{
closed = 1;
nodes = (
"1079 0 LINE",
"973 348 LINE",
"440 348 LINE",
"334 0 LINE",
"0 0 LINE",
"516 1468 LINE",
"895 1468 LINE",
"1413 0 LINE"
);
},
{
closed = 1;
nodes = (
"899 608 LINE",
"801 923 OFFCURVE",
"746 1102 OFFCURVE",
"734 1143 CURVE SMOOTH",
"721 1184 OFFCURVE",
"712 1217 OFFCURVE",
"707 1241 CURVE",
"685 1156 OFFCURVE",
"622 945 OFFCURVE",
"518 608 CURVE"
);
},
{
closed = 1;
nodes = (
"371 1790 LINE",
"1049 1790 LINE",
"1049 1579 LINE",
"371 1579 LINE"
);
}
);
width = 1413;
}
);
unicode = 0100;
},
{
glyphname = amacron;
layers = (
{
layerId = "F819D8FE-9E94-402B-BBDD-25FA288DB24B";
name = Bold;
paths = (
{
closed = 1;
nodes = (
"870 0 LINE",
"811 152 LINE",
"803 152 LINE",
"700 23 OFFCURVE",
"607 -20 OFFCURVE",
"432 -20 CURVE SMOOTH",
"217 -20 OFFCURVE",
"86 107 OFFCURVE",
"86 334 CURVE SMOOTH",
"86 571 OFFCURVE",
"251 678 OFFCURVE",
"586 690 CURVE SMOOTH",
"780 696 LINE",
"780 745 LINE SMOOTH",
"780 858 OFFCURVE",
"722 915 OFFCURVE",
"606 915 CURVE SMOOTH",
"517 915 OFFCURVE",
"412 888 OFFCURVE",
"291 834 CURVE",
"190 1040 LINE",
"319 1107 OFFCURVE",
"461 1141 OFFCURVE",
"618 1141 CURVE SMOOTH",
"918 1141 OFFCURVE",
"1083 1012 OFFCURVE",
"1083 745 CURVE SMOOTH",
"1083 0 LINE"
);
},
{
closed = 1;
nodes = (
"780 518 LINE",
"662 514 LINE SMOOTH",
"485 509 OFFCURVE",
"399 452 OFFCURVE",
"399 332 CURVE SMOOTH",
"399 246 OFFCURVE",
"448 203 OFFCURVE",
"547 203 CURVE SMOOTH",
"688 203 OFFCURVE",
"780 291 OFFCURVE",
"780 426 CURVE SMOOTH"
);
},
{
closed = 1;
nodes = (
"293 1452 LINE",
"971 1452 LINE",
"971 1241 LINE",
"293 1241 LINE"
);
}
);
width = 1237;
}
);
unicode = 0101;
},
{
glyphname = Abreve;
layers = (
{
layerId = "F819D8FE-9E94-402B-BBDD-25FA288DB24B";
name = Bold;
paths = (
{
closed = 1;
nodes = (
"1079 0 LINE",
"973 348 LINE",
"440 348 LINE",
"334 0 LINE",
"0 0 LINE",
"516 1468 LINE",
"895 1468 LINE",
"1413 0 LINE"
);
},
{
closed = 1;
nodes = (
"899 608 LINE",
"801 923 OFFCURVE",
"746 1102 OFFCURVE",
"734 1143 CURVE SMOOTH",
"721 1184 OFFCURVE",
"712 1217 OFFCURVE",
"707 1241 CURVE",
"685 1156 OFFCURVE",
"622 945 OFFCURVE",
"518 608 CURVE"
);
},
{
closed = 1;
nodes = (
"1100 1917 LINE",
"1084 1712 OFFCURVE",
"923 1579 OFFCURVE",
"702 1579 CURVE SMOOTH",
"470 1579 OFFCURVE",
"324 1709 OFFCURVE",
"313 1917 CURVE",
"483 1917 LINE",
"488 1854 OFFCURVE",
"520 1820 OFFCURVE",
"577 1804 CURVE SMOOTH",
"605 1796 OFFCURVE",
"647 1792 OFFCURVE",
"704 1792 CURVE SMOOTH",
"841 1792 OFFCURVE",
"915 1834 OFFCURVE",
"926 1917 CURVE"
);
}
);
width = 1413;
}
);
unicode = 0102;
},
{
glyphname = abreve;
layers = (
{
layerId = "F819D8FE-9E94-402B-BBDD-25FA288DB24B";
name = Bold;
paths = (
{
closed = 1;
nodes = (
"870 0 LINE",
"811 152 LINE",
"803 152 LINE",
"700 23 OFFCURVE",
"607 -20 OFFCURVE",
"432 -20 CURVE SMOOTH",
"217 -20 OFFCURVE",
"86 107 OFFCURVE",
"86 334 CURVE SMOOTH",
"86 571 OFFCURVE",
"251 678 OFFCURVE",
"586 690 CURVE SMOOTH",
"780 696 LINE",
"780 745 LINE SMOOTH",
"780 858 OFFCURVE",
"722 915 OFFCURVE",
"606 915 CURVE SMOOTH",
"517 915 OFFCURVE",
"412 888 OFFCURVE",
"291 834 CURVE",
"190 1040 LINE",
"319 1107 OFFCURVE",
"461 1141 OFFCURVE",
"618 1141 CURVE SMOOTH",
"918 1141 OFFCURVE",
"1083 1012 OFFCURVE",
"1083 745 CURVE SMOOTH",
"1083 0 LINE"
);
},
{
closed = 1;
nodes = (
"780 518 LINE",
"662 514 LINE SMOOTH",
"485 509 OFFCURVE",
"399 452 OFFCURVE",
"399 332 CURVE SMOOTH",
"399 246 OFFCURVE",
"448 203 OFFCURVE",
"547 203 CURVE SMOOTH",
"688 203 OFFCURVE",
"780 291 OFFCURVE",
"780 426 CURVE SMOOTH"
);
},
{
closed = 1;
nodes = (
"1026 1579 LINE",
"1010 1374 OFFCURVE",
"849 1241 OFFCURVE",
"628 1241 CURVE SMOOTH",
"396 1241 OFFCURVE",
"250 1371 OFFCURVE",
"239 1579 CURVE",
"409 1579 LINE",
"414 1516 OFFCURVE",
"446 1482 OFFCURVE",
"503 1466 CURVE SMOOTH",
"531 1458 OFFCURVE",
"573 1454 OFFCURVE",
"630 1454 CURVE SMOOTH",
"767 1454 OFFCURVE",
"841 1496 OFFCURVE",
"852 1579 CURVE"
);
}
);
width = 1237;
}
);
unicode = 0103;
},
{
glyphname = Aogonek;
layers = (
{
layerId = "F819D8FE-9E94-402B-BBDD-25FA288DB24B";
name = Bold;
paths = (
{
closed = 1;
nodes = (
"1079 0 LINE",
"973 348 LINE",
"440 348 LINE",
"334 0 LINE",
"0 0 LINE",
"516 1468 LINE",
"895 1468 LINE",
"1413 0 LINE"
);
},
{
closed = 1;
nodes = (
"899 608 LINE",
"801 923 OFFCURVE",
"746 1102 OFFCURVE",
"734 1143 CURVE SMOOTH",
"721 1184 OFFCURVE",
"712 1217 OFFCURVE",
"707 1241 CURVE",
"685 1156 OFFCURVE",
"622 945 OFFCURVE",
"518 608 CURVE"
);
},
{
closed = 1;
nodes = (
"1112 -283 OFFCURVE",
"1145 -309 OFFCURVE",
"1192 -309 CURVE SMOOTH",
"1229 -309 OFFCURVE",
"1267 -303 OFFCURVE",
"1307 -291 CURVE",
"1307 -469 LINE",
"1252 -484 OFFCURVE",
"1200 -492 OFFCURVE",
"1151 -492 CURVE SMOOTH",
"1000 -492 OFFCURVE",
"901 -399 OFFCURVE",
"901 -262 CURVE SMOOTH",
"901 -173 OFFCURVE",
"942 -103 OFFCURVE",
"1081 0 CURVE",
"1260 0 LINE",
"1167 -88 OFFCURVE",
"1112 -158 OFFCURVE",
"1112 -227 CURVE SMOOTH"
);
}
);
width = 1413;
}
);
unicode = 0104;
},
{
glyphname = aogonek;
layers = (
{
layerId = "F819D8FE-9E94-402B-BBDD-25FA288DB24B";
name = Bold;
paths = (
{
closed = 1;
nodes = (
"870 0 LINE",
"811 152 LINE",
"803 152 LINE",
"700 23 OFFCURVE",
"607 -20 OFFCURVE",
"432 -20 CURVE SMOOTH",
"217 -20 OFFCURVE",
"86 107 OFFCURVE",
"86 334 CURVE SMOOTH",
"86 571 OFFCURVE",
"251 678 OFFCURVE",
"586 690 CURVE SMOOTH",
"780 696 LINE",
"780 745 LINE SMOOTH",
"780 858 OFFCURVE",
"722 915 OFFCURVE",
"606 915 CURVE SMOOTH",
"517 915 OFFCURVE",
"412 888 OFFCURVE",
"291 834 CURVE",
"190 1040 LINE",
"319 1107 OFFCURVE",
"461 1141 OFFCURVE",
"618 1141 CURVE SMOOTH",
"918 1141 OFFCURVE",
"1083 1012 OFFCURVE",
"1083 745 CURVE SMOOTH",
"1083 0 LINE"
);
},
{
closed = 1;
nodes = (
"780 518 LINE",
"662 514 LINE SMOOTH",
"485 509 OFFCURVE",
"399 452 OFFCURVE",
"399 332 CURVE SMOOTH",
"399 246 OFFCURVE",
"448 203 OFFCURVE",
"547 203 CURVE SMOOTH",
"688 203 OFFCURVE",
"780 291 OFFCURVE",
"780 426 CURVE SMOOTH"
);
},
{
closed = 1;
nodes = (
"905 -283 OFFCURVE",
"938 -309 OFFCURVE",
"985 -309 CURVE SMOOTH",
"1022 -309 OFFCURVE",
"1060 -303 OFFCURVE",
"1100 -291 CURVE",
"1100 -469 LINE",
"1045 -484 OFFCURVE",
"993 -492 OFFCURVE",
"944 -492 CURVE SMOOTH",
"793 -492 OFFCURVE",
"694 -399 OFFCURVE",
"694 -262 CURVE SMOOTH",
"694 -173 OFFCURVE",
"735 -103 OFFCURVE",
"874 0 CURVE",
"1053 0 LINE",
"960 -88 OFFCURVE",
"905 -158 OFFCURVE",
"905 -227 CURVE SMOOTH"
);
}
);
width = 1237;
}
);
unicode = 0105;
},
{
glyphname = Cacute;
layers = (
{
layerId = "F819D8FE-9E94-402B-BBDD-25FA288DB24B";
name = Bold;
paths = (
{
closed = 1;
nodes = (
"572 1225 OFFCURVE",
"438 1040 OFFCURVE",
"438 727 CURVE SMOOTH",
"438 401 OFFCURVE",
"560 238 OFFCURVE",
"805 238 CURVE SMOOTH",
"908 238 OFFCURVE",
"1032 264 OFFCURVE",
"1178 315 CURVE",
"1178 55 LINE",
"1058 5 OFFCURVE",
"924 -20 OFFCURVE",
"776 -20 CURVE SMOOTH",
"351 -20 OFFCURVE",
"119 246 OFFCURVE",
"119 729 CURVE SMOOTH",
"119 1033 OFFCURVE",
"233 1270 OFFCURVE",
"441 1392 CURVE SMOOTH",
"544 1453 OFFCURVE",
"666 1483 OFFCURVE",
"805 1483 CURVE SMOOTH",
"947 1483 OFFCURVE",
"1090 1449 OFFCURVE",
"1233 1380 CURVE",
"1133 1128 LINE",
"1024 1180 OFFCURVE",
"912 1225 OFFCURVE",
"805 1225 CURVE SMOOTH"
);
},
{
closed = 1;
nodes = (
"598 1579 LINE",
"598 1606 LINE",
"713 1739 OFFCURVE",
"791 1840 OFFCURVE",
"833 1907 CURVE",
"1175 1907 LINE",
"1175 1886 LINE",
"1106 1817 OFFCURVE",
"896 1646 OFFCURVE",
"801 1579 CURVE"
);
}
);
width = 1305;
}
);
unicode = 0106;
},
{
glyphname = cacute;
layers = (
{
layerId = "F819D8FE-9E94-402B-BBDD-25FA288DB24B";
name = Bold;
paths = (
{
closed = 1;
nodes = (
"266 -20 OFFCURVE",
"92 171 OFFCURVE",
"92 553 CURVE SMOOTH",
"92 933 OFFCURVE",
"288 1139 OFFCURVE",
"641 1139 CURVE SMOOTH",
"770 1139 OFFCURVE",
"886 1114 OFFCURVE",
"989 1063 CURVE",
"899 827 LINE",
"803 866 OFFCURVE",
"724 893 OFFCURVE",
"641 893 CURVE SMOOTH",
"482 893 OFFCURVE",
"403 780 OFFCURVE",
"403 555 CURVE SMOOTH",
"403 336 OFFCURVE",
"482 227 OFFCURVE",
"641 227 CURVE SMOOTH",
"758 227 OFFCURVE",
"854 257 OFFCURVE",
"954 324 CURVE",
"954 63 LINE",
"855 0 OFFCURVE",
"767 -20 OFFCURVE",
"614 -20 CURVE SMOOTH"
);
},
{
closed = 1;
nodes = (
"443 1241 LINE",
"443 1268 LINE",
"558 1401 OFFCURVE",
"636 1502 OFFCURVE",
"678 1569 CURVE",
"1020 1569 LINE",
"1020 1548 LINE",
"951 1479 OFFCURVE",
"741 1308 OFFCURVE",
"646 1241 CURVE"
);
}
);
width = 1053;
}
);
unicode = 0107;
},
{
glyphname = Ccircumflex;
layers = (
{
layerId = "F819D8FE-9E94-402B-BBDD-25FA288DB24B";
name = Bold;
paths = (
{
closed = 1;
nodes = (
"572 1225 OFFCURVE",
"438 1040 OFFCURVE",
"438 727 CURVE SMOOTH",
"438 401 OFFCURVE",
"560 238 OFFCURVE",
"805 238 CURVE SMOOTH",
"908 238 OFFCURVE",
"1032 264 OFFCURVE",
"1178 315 CURVE",
"1178 55 LINE",
"1058 5 OFFCURVE",
"924 -20 OFFCURVE",
"776 -20 CURVE SMOOTH",
"351 -20 OFFCURVE",
"119 246 OFFCURVE",
"119 729 CURVE SMOOTH",
"119 1033 OFFCURVE",
"233 1270 OFFCURVE",
"441 1392 CURVE SMOOTH",
"544 1453 OFFCURVE",
"666 1483 OFFCURVE",
"805 1483 CURVE SMOOTH",
"947 1483 OFFCURVE",
"1090 1449 OFFCURVE",
"1233 1380 CURVE",
"1133 1128 LINE",
"1024 1180 OFFCURVE",
"912 1225 OFFCURVE",
"805 1225 CURVE SMOOTH"
);
},
{
closed = 1;
nodes = (
"1022 1579 LINE",
"917 1641 OFFCURVE",
"839 1700 OFFCURVE",
"788 1755 CURVE",
"736 1701 OFFCURVE",
"660 1642 OFFCURVE",
"559 1579 CURVE",
"356 1579 LINE",
"356 1606 LINE",
"482 1732 OFFCURVE",
"567 1832 OFFCURVE",
"612 1907 CURVE",
"969 1907 LINE",
"1010 1838 OFFCURVE",
"1129 1699 OFFCURVE",
"1225 1606 CURVE",
"1225 1579 LINE"
);
}
);
width = 1305;
}
);
unicode = 0108;
},
{
glyphname = ccircumflex;
layers = (
{
layerId = "F819D8FE-9E94-402B-BBDD-25FA288DB24B";
name = Bold;
paths = (
{
closed = 1;
nodes = (
"266 -20 OFFCURVE",
"92 171 OFFCURVE",
"92 553 CURVE SMOOTH",
"92 933 OFFCURVE",
"288 1139 OFFCURVE",
"641 1139 CURVE SMOOTH",
"770 1139 OFFCURVE",
"886 1114 OFFCURVE",
"989 1063 CURVE",
"899 827 LINE",
"803 866 OFFCURVE",
"724 893 OFFCURVE",
"641 893 CURVE SMOOTH",
"482 893 OFFCURVE",
"403 780 OFFCURVE",
"403 555 CURVE SMOOTH",
"403 336 OFFCURVE",
"482 227 OFFCURVE",
"641 227 CURVE SMOOTH",
"758 227 OFFCURVE",
"854 257 OFFCURVE",
"954 324 CURVE",
"954 63 LINE",
"855 0 OFFCURVE",
"767 -20 OFFCURVE",
"614 -20 CURVE SMOOTH"
);
},
{
closed = 1;
nodes = (
"835 1241 LINE",
"730 1303 OFFCURVE",
"652 1362 OFFCURVE",
"601 1417 CURVE",
"549 1363 OFFCURVE",
"473 1304 OFFCURVE",
"372 1241 CURVE",
"169 1241 LINE",
"169 1268 LINE",
"295 1394 OFFCURVE",
"380 1494 OFFCURVE",
"425 1569 CURVE",
"782 1569 LINE",
"823 1500 OFFCURVE",
"942 1361 OFFCURVE",
"1038 1268 CURVE",
"1038 1241 LINE"
);
}
);
width = 1053;
}
);
unicode = 0109;
},
{
glyphname = Cdot;
layers = (
{
layerId = "F819D8FE-9E94-402B-BBDD-25FA288DB24B";
name = Bold;
paths = (
{
closed = 1;
nodes = (
"572 1225 OFFCURVE",
"438 1040 OFFCURVE",
"438 727 CURVE SMOOTH",
"438 401 OFFCURVE",
"560 238 OFFCURVE",
"805 238 CURVE SMOOTH",
"908 238 OFFCURVE",
"1032 264 OFFCURVE",
"1178 315 CURVE",
"1178 55 LINE",
"1058 5 OFFCURVE",
"924 -20 OFFCURVE",
"776 -20 CURVE SMOOTH",
"351 -20 OFFCURVE",
"119 246 OFFCURVE",
"119 729 CURVE SMOOTH",
"119 1033 OFFCURVE",
"233 1270 OFFCURVE",
"441 1392 CURVE SMOOTH",
"544 1453 OFFCURVE",
"666 1483 OFFCURVE",
"805 1483 CURVE SMOOTH",
"947 1483 OFFCURVE",
"1090 1449 OFFCURVE",
"1233 1380 CURVE",
"1133 1128 LINE",
"1024 1180 OFFCURVE",
"912 1225 OFFCURVE",
"805 1225 CURVE SMOOTH"
);
},
{
closed = 1;
nodes = (
"620 1844 OFFCURVE",
"675 1894 OFFCURVE",
"786 1894 CURVE SMOOTH",
"897 1894 OFFCURVE",
"952 1844 OFFCURVE",
"952 1745 CURVE SMOOTH",
"952 1650 OFFCURVE",
"897 1595 OFFCURVE",
"786 1595 CURVE SMOOTH",
"675 1595 OFFCURVE",
"620 1645 OFFCURVE",
"620 1745 CURVE SMOOTH"
);
}
);
width = 1305;
}
);
unicode = 010A;
},
{
glyphname = cdot;
layers = (
{
layerId = "F819D8FE-9E94-402B-BBDD-25FA288DB24B";
name = Bold;
paths = (
{
closed = 1;
nodes = (
"266 -20 OFFCURVE",
"92 171 OFFCURVE",
"92 553 CURVE SMOOTH",
"92 933 OFFCURVE",
"288 1139 OFFCURVE",
"641 1139 CURVE SMOOTH",
"770 1139 OFFCURVE",
"886 1114 OFFCURVE",
"989 1063 CURVE",
"899 827 LINE",
"803 866 OFFCURVE",
"724 893 OFFCURVE",
"641 893 CURVE SMOOTH",
"482 893 OFFCURVE",
"403 780 OFFCURVE",
"403 555 CURVE SMOOTH",
"403 336 OFFCURVE",
"482 227 OFFCURVE",
"641 227 CURVE SMOOTH",
"758 227 OFFCURVE",
"854 257 OFFCURVE",
"954 324 CURVE",
"954 63 LINE",
"855 0 OFFCURVE",
"767 -20 OFFCURVE",
"614 -20 CURVE SMOOTH"
);
},
{
closed = 1;
nodes = (
"462 1506 OFFCURVE",
"517 1556 OFFCURVE",
"628 1556 CURVE SMOOTH",
"739 1556 OFFCURVE",
"794 1506 OFFCURVE",
"794 1407 CURVE SMOOTH",
"794 1312 OFFCURVE",
"739 1257 OFFCURVE",
"628 1257 CURVE SMOOTH",
"517 1257 OFFCURVE",
"462 1307 OFFCURVE",
"462 1407 CURVE SMOOTH"
);
}
);
width = 1053;
}
);
unicode = 010B;
},
{
glyphname = Ccaron;
layers = (
{
layerId = "F819D8FE-9E94-402B-BBDD-25FA288DB24B";
name = Bold;
paths = (
{
closed = 1;
nodes = (
"572 1225 OFFCURVE",
"438 1040 OFFCURVE",
"438 727 CURVE SMOOTH",
"438 401 OFFCURVE",
"560 238 OFFCURVE",
"805 238 CURVE SMOOTH",
"908 238 OFFCURVE",
"1032 264 OFFCURVE",
"1178 315 CURVE",
"1178 55 LINE",
"1058 5 OFFCURVE",
"924 -20 OFFCURVE",
"776 -20 CURVE SMOOTH",
"351 -20 OFFCURVE",
"119 246 OFFCURVE",
"119 729 CURVE SMOOTH",
"119 1033 OFFCURVE",
"233 1270 OFFCURVE",
"441 1392 CURVE SMOOTH",
"544 1453 OFFCURVE",
"666 1483 OFFCURVE",
"805 1483 CURVE SMOOTH",
"947 1483 OFFCURVE",
"1090 1449 OFFCURVE",
"1233 1380 CURVE",
"1133 1128 LINE",
"1024 1180 OFFCURVE",
"912 1225 OFFCURVE",
"805 1225 CURVE SMOOTH"
);
},
{
closed = 1;
nodes = (
"1227 1907 LINE",
"1227 1880 LINE",
"1115 1768 OFFCURVE",
"1012 1646 OFFCURVE",
"971 1579 CURVE",
"614 1579 LINE",
"595 1610 OFFCURVE",
"567 1648 OFFCURVE",
"531 1692 CURVE SMOOTH",
"495 1735 OFFCURVE",
"437 1798 OFFCURVE",
"358 1880 CURVE",
"358 1907 LINE",
"561 1907 LINE",
"659 1845 OFFCURVE",
"735 1786 OFFCURVE",
"790 1731 CURVE",
"846 1789 OFFCURVE",
"924 1848 OFFCURVE",
"1024 1907 CURVE"
);
}
);
width = 1305;
}
);
unicode = 010C;
},
{
glyphname = ccaron;
layers = (
{
layerId = "F819D8FE-9E94-402B-BBDD-25FA288DB24B";
name = Bold;
paths = (
{
closed = 1;
nodes = (
"266 -20 OFFCURVE",
"92 171 OFFCURVE",
"92 553 CURVE SMOOTH",
"92 933 OFFCURVE",
"288 1139 OFFCURVE",
"641 1139 CURVE SMOOTH",
"770 1139 OFFCURVE",
"886 1114 OFFCURVE",
"989 1063 CURVE",
"899 827 LINE",
"803 866 OFFCURVE",
"724 893 OFFCURVE",
"641 893 CURVE SMOOTH",
"482 893 OFFCURVE",
"403 780 OFFCURVE",
"403 555 CURVE SMOOTH",
"403 336 OFFCURVE",
"482 227 OFFCURVE",
"641 227 CURVE SMOOTH",
"758 227 OFFCURVE",
"854 257 OFFCURVE",
"954 324 CURVE",
"954 63 LINE",
"855 0 OFFCURVE",
"767 -20 OFFCURVE",
"614 -20 CURVE SMOOTH"
);
},
{
closed = 1;
nodes = (
"1055 1569 LINE",
"1055 1542 LINE",
"943 1430 OFFCURVE",
"840 1308 OFFCURVE",
"799 1241 CURVE",
"442 1241 LINE",
"423 1272 OFFCURVE",
"395 1310 OFFCURVE",
"359 1354 CURVE SMOOTH",
"323 1397 OFFCURVE",
"265 1460 OFFCURVE",
"186 1542 CURVE",
"186 1569 LINE",
"389 1569 LINE",
"487 1507 OFFCURVE",
"563 1448 OFFCURVE",
"618 1393 CURVE",
"674 1451 OFFCURVE",
"752 1510 OFFCURVE",
"852 1569 CURVE"
);
}
);
width = 1053;
}
);
unicode = 010D;
},
{
glyphname = Dcaron;
layers = (
{
layerId = "F819D8FE-9E94-402B-BBDD-25FA288DB24B";
name = Bold;
paths = (
{
closed = 1;
nodes = (
"1397 264 OFFCURVE",
"1115 0 OFFCURVE",
"598 0 CURVE SMOOTH",
"184 0 LINE",
"184 1462 LINE",
"643 1462 LINE SMOOTH",
"1120 1462 OFFCURVE",
"1397 1197 OFFCURVE",
"1397 745 CURVE SMOOTH"
);
},
{
closed = 1;
nodes = (
"1075 1051 OFFCURVE",
"936 1208 OFFCURVE",
"659 1208 CURVE SMOOTH",
"494 1208 LINE",
"494 256 LINE",
"627 256 LINE SMOOTH",
"926 256 OFFCURVE",
"1075 416 OFFCURVE",
"1075 737 CURVE SMOOTH"
);
},
{
closed = 1;
nodes = (
"1159 1907 LINE",
"1159 1880 LINE",
"1047 1768 OFFCURVE",
"944 1646 OFFCURVE",
"903 1579 CURVE",
"546 1579 LINE",
"527 1610 OFFCURVE",
"499 1648 OFFCURVE",
"463 1692 CURVE SMOOTH",
"427 1735 OFFCURVE",
"369 1798 OFFCURVE",
"290 1880 CURVE",
"290 1907 LINE",
"493 1907 LINE",
"591 1845 OFFCURVE",
"667 1786 OFFCURVE",
"722 1731 CURVE",
"778 1789 OFFCURVE",
"856 1848 OFFCURVE",
"956 1907 CURVE"
);
}
);
width = 1516;
}
);
unicode = 010E;
},
{
glyphname = dcaron;
layers = (
{
layerId = "F819D8FE-9E94-402B-BBDD-25FA288DB24B";
name = Bold;
paths = (
{
closed = 1;
nodes = (
"251 -20 OFFCURVE",
"92 196 OFFCURVE",
"92 557 CURVE SMOOTH",
"92 924 OFFCURVE",
"254 1139 OFFCURVE",
"522 1139 CURVE SMOOTH",
"663 1139 OFFCURVE",
"770 1084 OFFCURVE",
"844 975 CURVE",
"854 975 LINE",
"839 1058 OFFCURVE",
"831 1133 OFFCURVE",
"831 1198 CURVE SMOOTH",
"831 1556 LINE",
"1137 1556 LINE",
"1137 0 LINE",
"903 0 LINE",
"844 145 LINE",
"831 145 LINE",
"762 35 OFFCURVE",
"656 -20 OFFCURVE",
"514 -20 CURVE SMOOTH"
);
},
{
closed = 1;
nodes = (
"777 223 OFFCURVE",
"845 305 OFFCURVE",
"852 522 CURVE SMOOTH",
"852 555 LINE SMOOTH",
"852 795 OFFCURVE",
"783 891 OFFCURVE",
"616 891 CURVE SMOOTH",
"480 891 OFFCURVE",
"401 773 OFFCURVE",
"401 553 CURVE SMOOTH",
"401 333 OFFCURVE",
"480 223 OFFCURVE",
"621 223 CURVE SMOOTH"
);
},
{
closed = 1;
nodes = (
"1229 1255 LINE",
"1249 1320 OFFCURVE",
"1280 1471 OFFCURVE",
"1291 1556 CURVE",
"1573 1556 LINE",
"1573 1536 LINE",
"1520 1419 OFFCURVE",
"1464 1316 OFFCURVE",
"1407 1229 CURVE",
"1229 1229 LINE"
);
}
);
width = 1296;
}
);
unicode = 010F;
},
{
glyphname = Dcroat;
layers = (
{
layerId = "F819D8FE-9E94-402B-BBDD-25FA288DB24B";
name = Bold;
paths = (
{
closed = 1;
nodes = (
"47 850 LINE",
"184 850 LINE",
"184 1462 LINE",
"643 1462 LINE SMOOTH",
"1120 1462 OFFCURVE",
"1397 1197 OFFCURVE",
"1397 745 CURVE SMOOTH",
"1397 264 OFFCURVE",
"1115 0 OFFCURVE",
"598 0 CURVE SMOOTH",
"184 0 LINE",
"184 596 LINE",
"47 596 LINE"
);
},
{
closed = 1;
nodes = (
"1075 1046 OFFCURVE",
"937 1208 OFFCURVE",
"657 1208 CURVE SMOOTH",
"494 1208 LINE",
"494 850 LINE",
"731 850 LINE",
"731 596 LINE",
"494 596 LINE",
"494 256 LINE",
"625 256 LINE SMOOTH",
"925 256 OFFCURVE",
"1075 416 OFFCURVE",
"1075 737 CURVE SMOOTH"
);
}
);
width = 1516;
}
);
unicode = 0110;
},
{
glyphname = dcroat;
layers = (
{
layerId = "F819D8FE-9E94-402B-BBDD-25FA288DB24B";
name = Bold;
paths = (
{
closed = 1;
nodes = (
"248 -20 OFFCURVE",
"92 182 OFFCURVE",
"92 526 CURVE SMOOTH",
"92 902 OFFCURVE",
"215 1077 OFFCURVE",
"514 1077 CURVE SMOOTH",
"658 1077 OFFCURVE",
"773 1020 OFFCURVE",
"844 913 CURVE",
"854 913 LINE",
"839 1000 OFFCURVE",
"831 1078 OFFCURVE",
"831 1145 CURVE SMOOTH",
"831 1196 LINE",
"516 1196 LINE",
"516 1395 LINE",
"831 1395 LINE",
"831 1556 LINE",
"1137 1556 LINE",
"1137 1395 LINE",
"1292 1395 LINE",
"1292 1196 LINE",
"1137 1196 LINE",
"1137 0 LINE",
"889 0 LINE",
"825 145 LINE",
"813 145 LINE",
"744 35 OFFCURVE",
"641 -20 OFFCURVE",
"504 -20 CURVE SMOOTH"
);
},
{
closed = 1;
nodes = (
"780 223 OFFCURVE",
"847 296 OFFCURVE",
"852 496 CURVE SMOOTH",
"852 524 LINE SMOOTH",
"852 759 OFFCURVE",
"795 829 OFFCURVE",
"618 829 CURVE SMOOTH",
"470 829 OFFCURVE",
"424 747 OFFCURVE",
"424 522 CURVE SMOOTH",
"424 323 OFFCURVE",
"488 223 OFFCURVE",
"633 223 CURVE SMOOTH"
);
}
);
width = 1329;
}
);
unicode = 0111;
},
{
glyphname = Emacron;
layers = (
{
layerId = "F819D8FE-9E94-402B-BBDD-25FA288DB24B";
name = Bold;
paths = (
{
closed = 1;
nodes = (
"1026 0 LINE",
"184 0 LINE",
"184 1462 LINE",
"1026 1462 LINE",
"1026 1208 LINE",
"494 1208 LINE",
"494 887 LINE",
"989 887 LINE",
"989 633 LINE",
"494 633 LINE",
"494 256 LINE",
"1026 256 LINE"
);
},
{
closed = 1;
nodes = (
"274 1790 LINE",
"952 1790 LINE",
"952 1579 LINE",
"274 1579 LINE"
);
}
);
width = 1147;
}
);
unicode = 0112;
},
{
glyphname = emacron;
layers = (
{
layerId = "F819D8FE-9E94-402B-BBDD-25FA288DB24B";
name = Bold;
paths = (
{
closed = 1;
nodes = (
"494 922 OFFCURVE",
"419 837 OFFCURVE",
"408 686 CURVE",
"836 686 LINE",
"833 837 OFFCURVE",
"752 922 OFFCURVE",
"623 922 CURVE SMOOTH"
);
},
{
closed = 1;
nodes = (
"306 -20 OFFCURVE",
"92 187 OFFCURVE",
"92 551 CURVE SMOOTH",
"92 926 OFFCURVE",
"290 1139 OFFCURVE",
"621 1139 CURVE SMOOTH",
"937 1139 OFFCURVE",
"1122 948 OFFCURVE",
"1122 631 CURVE SMOOTH",
"1122 483 LINE",
"401 483 LINE",
"408 310 OFFCURVE",
"507 207 OFFCURVE",
"680 207 CURVE SMOOTH",
"815 207 OFFCURVE",
"928 234 OFFCURVE",
"1059 295 CURVE",
"1059 59 LINE",
"952 6 OFFCURVE",
"841 -20 OFFCURVE",
"666 -20 CURVE SMOOTH"
);
},
{
closed = 1;
nodes = (
"278 1452 LINE",
"956 1452 LINE",
"956 1241 LINE",
"278 1241 LINE"
);
}
);
width = 1210;
}
);
unicode = 0113;
},
{
glyphname = Ebreve;
layers = (
{
layerId = "F819D8FE-9E94-402B-BBDD-25FA288DB24B";
name = Bold;
paths = (
{
closed = 1;
nodes = (
"1026 0 LINE",
"184 0 LINE",
"184 1462 LINE",
"1026 1462 LINE",
"1026 1208 LINE",
"494 1208 LINE",
"494 887 LINE",
"989 887 LINE",
"989 633 LINE",
"494 633 LINE",
"494 256 LINE",
"1026 256 LINE"
);
},
{
closed = 1;
nodes = (
"992 1917 LINE",
"976 1712 OFFCURVE",
"815 1579 OFFCURVE",
"594 1579 CURVE SMOOTH",
"362 1579 OFFCURVE",
"216 1709 OFFCURVE",
"205 1917 CURVE",
"375 1917 LINE",
"380 1854 OFFCURVE",
"412 1820 OFFCURVE",
"469 1804 CURVE SMOOTH",
"497 1796 OFFCURVE",
"539 1792 OFFCURVE",
"596 1792 CURVE SMOOTH",
"733 1792 OFFCURVE",
"807 1834 OFFCURVE",
"818 1917 CURVE"
);
}
);
width = 1147;
}
);
unicode = 0114;
},
{
glyphname = ebreve;
layers = (
{
layerId = "F819D8FE-9E94-402B-BBDD-25FA288DB24B";
name = Bold;
paths = (
{
closed = 1;
nodes = (
"494 922 OFFCURVE",
"419 837 OFFCURVE",
"408 686 CURVE",
"836 686 LINE",
"833 837 OFFCURVE",
"752 922 OFFCURVE",
"623 922 CURVE SMOOTH"
);
},
{
closed = 1;
nodes = (
"306 -20 OFFCURVE",
"92 187 OFFCURVE",
"92 551 CURVE SMOOTH",
"92 926 OFFCURVE",
"290 1139 OFFCURVE",
"621 1139 CURVE SMOOTH",
"937 1139 OFFCURVE",
"1122 948 OFFCURVE",
"1122 631 CURVE SMOOTH",
"1122 483 LINE",
"401 483 LINE",
"408 310 OFFCURVE",
"507 207 OFFCURVE",
"680 207 CURVE SMOOTH",
"815 207 OFFCURVE",
"928 234 OFFCURVE",
"1059 295 CURVE",
"1059 59 LINE",
"952 6 OFFCURVE",
"841 -20 OFFCURVE",
"666 -20 CURVE SMOOTH"
);
},
{
closed = 1;
nodes = (
"1014 1579 LINE",
"998 1374 OFFCURVE",
"837 1241 OFFCURVE",
"616 1241 CURVE SMOOTH",
"384 1241 OFFCURVE",
"238 1371 OFFCURVE",
"227 1579 CURVE",
"397 1579 LINE",
"402 1516 OFFCURVE",
"434 1482 OFFCURVE",
"491 1466 CURVE SMOOTH",
"519 1458 OFFCURVE",
"561 1454 OFFCURVE",
"618 1454 CURVE SMOOTH",
"755 1454 OFFCURVE",
"829 1496 OFFCURVE",
"840 1579 CURVE"
);
}
);
width = 1210;
}
);
unicode = 0115;
},
{
glyphname = Edotaccent;
layers = (
{
layerId = "F819D8FE-9E94-402B-BBDD-25FA288DB24B";
name = Bold;
paths = (
{
closed = 1;
nodes = (
"1026 0 LINE",
"184 0 LINE",
"184 1462 LINE",
"1026 1462 LINE",
"1026 1208 LINE",
"494 1208 LINE",
"494 887 LINE",
"989 887 LINE",
"989 633 LINE",
"494 633 LINE",
"494 256 LINE",
"1026 256 LINE"
);
},
{
closed = 1;
nodes = (
"450 1815 OFFCURVE",
"505 1865 OFFCURVE",
"616 1865 CURVE SMOOTH",
"727 1865 OFFCURVE",
"782 1815 OFFCURVE",
"782 1716 CURVE SMOOTH",
"782 1621 OFFCURVE",
"727 1566 OFFCURVE",
"616 1566 CURVE SMOOTH",
"505 1566 OFFCURVE",
"450 1616 OFFCURVE",
"450 1716 CURVE SMOOTH"
);
}
);
width = 1147;
}
);
unicode = 0116;
},
{
glyphname = edotaccent;
layers = (
{
layerId = "F819D8FE-9E94-402B-BBDD-25FA288DB24B";
name = Bold;
paths = (
{
closed = 1;
nodes = (
"494 922 OFFCURVE",
"419 837 OFFCURVE",
"408 686 CURVE",
"836 686 LINE",
"833 837 OFFCURVE",
"752 922 OFFCURVE",
"623 922 CURVE SMOOTH"
);
},
{
closed = 1;
nodes = (
"306 -20 OFFCURVE",
"92 187 OFFCURVE",
"92 551 CURVE SMOOTH",
"92 926 OFFCURVE",
"290 1139 OFFCURVE",
"621 1139 CURVE SMOOTH",
"937 1139 OFFCURVE",
"1122 948 OFFCURVE",
"1122 631 CURVE SMOOTH",
"1122 483 LINE",
"401 483 LINE",
"408 310 OFFCURVE",
"507 207 OFFCURVE",
"680 207 CURVE SMOOTH",
"815 207 OFFCURVE",
"928 234 OFFCURVE",
"1059 295 CURVE",
"1059 59 LINE",
"952 6 OFFCURVE",
"841 -20 OFFCURVE",
"666 -20 CURVE SMOOTH"
);
},
{
closed = 1;
nodes = (
"466 1506 OFFCURVE",
"521 1556 OFFCURVE",
"632 1556 CURVE SMOOTH",
"743 1556 OFFCURVE",
"798 1506 OFFCURVE",
"798 1407 CURVE SMOOTH",
"798 1312 OFFCURVE",
"743 1257 OFFCURVE",
"632 1257 CURVE SMOOTH",
"521 1257 OFFCURVE",
"466 1307 OFFCURVE",
"466 1407 CURVE SMOOTH"
);
}
);
width = 1210;
}
);
unicode = 0117;
},
{
glyphname = Eogonek;
layers = (
{
layerId = "F819D8FE-9E94-402B-BBDD-25FA288DB24B";
name = Bold;
paths = (
{
closed = 1;
nodes = (
"1026 0 LINE",
"184 0 LINE",
"184 1462 LINE",
"1026 1462 LINE",
"1026 1208 LINE",
"494 1208 LINE",
"494 887 LINE",
"989 887 LINE",
"989 633 LINE",
"494 633 LINE",
"494 256 LINE",
"1026 256 LINE"
);
},
{
closed = 1;
nodes = (
"786 -283 OFFCURVE",
"819 -309 OFFCURVE",
"866 -309 CURVE SMOOTH",
"903 -309 OFFCURVE",
"941 -303 OFFCURVE",
"981 -291 CURVE",
"981 -469 LINE",
"926 -484 OFFCURVE",
"874 -492 OFFCURVE",
"825 -492 CURVE SMOOTH",
"674 -492 OFFCURVE",
"575 -399 OFFCURVE",
"575 -262 CURVE SMOOTH",
"575 -173 OFFCURVE",
"616 -103 OFFCURVE",
"755 0 CURVE",
"934 0 LINE",
"841 -88 OFFCURVE",
"786 -158 OFFCURVE",
"786 -227 CURVE SMOOTH"
);
}
);
width = 1147;
}
);
unicode = 0118;
},
{
glyphname = eogonek;
layers = (
{
layerId = "F819D8FE-9E94-402B-BBDD-25FA288DB24B";
name = Bold;
paths = (
{
closed = 1;
nodes = (
"494 922 OFFCURVE",
"419 837 OFFCURVE",
"408 686 CURVE",
"836 686 LINE",
"833 837 OFFCURVE",
"752 922 OFFCURVE",
"623 922 CURVE SMOOTH"
);
},
{
closed = 1;
nodes = (
"306 -20 OFFCURVE",
"92 187 OFFCURVE",
"92 551 CURVE SMOOTH",
"92 926 OFFCURVE",
"290 1139 OFFCURVE",
"621 1139 CURVE SMOOTH",
"937 1139 OFFCURVE",
"1122 948 OFFCURVE",
"1122 631 CURVE SMOOTH",
"1122 483 LINE",
"401 483 LINE",
"408 310 OFFCURVE",
"507 207 OFFCURVE",
"680 207 CURVE SMOOTH",
"815 207 OFFCURVE",
"928 234 OFFCURVE",
"1059 295 CURVE",
"1059 59 LINE",
"952 6 OFFCURVE",
"841 -20 OFFCURVE",
"666 -20 CURVE SMOOTH"
);
},
{
closed = 1;
nodes = (
"796 -263 OFFCURVE",
"829 -289 OFFCURVE",
"876 -289 CURVE SMOOTH",
"913 -289 OFFCURVE",
"951 -283 OFFCURVE",
"991 -271 CURVE",
"991 -449 LINE",
"936 -464 OFFCURVE",
"884 -472 OFFCURVE",
"835 -472 CURVE SMOOTH",
"684 -472 OFFCURVE",
"585 -379 OFFCURVE",
"585 -242 CURVE SMOOTH",
"585 -153 OFFCURVE",
"626 -83 OFFCURVE",
"765 20 CURVE",
"944 20 LINE",
"851 -68 OFFCURVE",
"796 -138 OFFCURVE",
"796 -207 CURVE SMOOTH"
);
}
);
width = 1210;
}
);
unicode = 0119;
},
{
glyphname = Ecaron;
layers = (
{
layerId = "F819D8FE-9E94-402B-BBDD-25FA288DB24B";
name = Bold;
paths = (
{
closed = 1;
nodes = (
"1026 0 LINE",
"184 0 LINE",
"184 1462 LINE",
"1026 1462 LINE",
"1026 1208 LINE",
"494 1208 LINE",
"494 887 LINE",
"989 887 LINE",
"989 633 LINE",
"494 633 LINE",
"494 256 LINE",
"1026 256 LINE"
);
},
{
closed = 1;
nodes = (
"1044 1907 LINE",
"1044 1880 LINE",
"932 1768 OFFCURVE",
"829 1646 OFFCURVE",
"788 1579 CURVE",
"431 1579 LINE",
"412 1610 OFFCURVE",
"384 1648 OFFCURVE",
"348 1692 CURVE SMOOTH",
"312 1735 OFFCURVE",
"254 1798 OFFCURVE",
"175 1880 CURVE",
"175 1907 LINE",
"378 1907 LINE",
"476 1845 OFFCURVE",
"552 1786 OFFCURVE",
"607 1731 CURVE",
"663 1789 OFFCURVE",
"741 1848 OFFCURVE",
"841 1907 CURVE"
);
}
);
width = 1147;
}
);
unicode = 011A;
},
{
glyphname = ecaron;
layers = (
{
layerId = "F819D8FE-9E94-402B-BBDD-25FA288DB24B";
name = Bold;
paths = (
{
closed = 1;
nodes = (
"494 922 OFFCURVE",
"419 837 OFFCURVE",
"408 686 CURVE",
"836 686 LINE",
"833 837 OFFCURVE",
"752 922 OFFCURVE",
"623 922 CURVE SMOOTH"
);
},
{
closed = 1;
nodes = (
"306 -20 OFFCURVE",
"92 187 OFFCURVE",
"92 551 CURVE SMOOTH",
"92 926 OFFCURVE",
"290 1139 OFFCURVE",
"621 1139 CURVE SMOOTH",
"937 1139 OFFCURVE",
"1122 948 OFFCURVE",
"1122 631 CURVE SMOOTH",
"1122 483 LINE",
"401 483 LINE",
"408 310 OFFCURVE",
"507 207 OFFCURVE",
"680 207 CURVE SMOOTH",
"815 207 OFFCURVE",
"928 234 OFFCURVE",
"1059 295 CURVE",
"1059 59 LINE",
"952 6 OFFCURVE",
"841 -20 OFFCURVE",
"666 -20 CURVE SMOOTH"
);
},
{
closed = 1;
nodes = (
"1057 1569 LINE",
"1057 1542 LINE",
"945 1430 OFFCURVE",
"842 1308 OFFCURVE",
"801 1241 CURVE",
"444 1241 LINE",
"425 1272 OFFCURVE",
"397 1310 OFFCURVE",
"361 1354 CURVE SMOOTH",
"325 1397 OFFCURVE",
"267 1460 OFFCURVE",
"188 1542 CURVE",
"188 1569 LINE",
"391 1569 LINE",
"489 1507 OFFCURVE",
"565 1448 OFFCURVE",
"620 1393 CURVE",
"676 1451 OFFCURVE",
"754 1510 OFFCURVE",
"854 1569 CURVE"
);
}
);
width = 1210;
}
);
unicode = 011B;
},
{
glyphname = Gcircumflex;
layers = (
{
layerId = "F819D8FE-9E94-402B-BBDD-25FA288DB24B";
name = Bold;
paths = (
{
closed = 1;
nodes = (
"739 821 LINE",
"1319 821 LINE",
"1319 63 LINE",
"1131 2 OFFCURVE",
"972 -20 OFFCURVE",
"799 -20 CURVE SMOOTH",
"358 -20 OFFCURVE",
"119 248 OFFCURVE",
"119 733 CURVE SMOOTH",
"119 1205 OFFCURVE",
"404 1483 OFFCURVE",
"883 1483 CURVE SMOOTH",
"1033 1483 OFFCURVE",
"1178 1453 OFFCURVE",
"1317 1393 CURVE",
"1214 1145 LINE",
"1107 1198 OFFCURVE",
"996 1225 OFFCURVE",
"881 1225 CURVE SMOOTH",
"613 1225 OFFCURVE",
"438 1031 OFFCURVE",
"438 727 CURVE SMOOTH",
"438 410 OFFCURVE",
"571 238 OFFCURVE",
"819 238 CURVE SMOOTH",
"884 238 OFFCURVE",
"949 245 OFFCURVE",
"1016 258 CURVE",
"1016 563 LINE",
"739 563 LINE"
);
},
{
closed = 1;
nodes = (
"1036 1579 LINE",
"931 1641 OFFCURVE",
"853 1700 OFFCURVE",
"802 1755 CURVE",
"750 1701 OFFCURVE",
"674 1642 OFFCURVE",
"573 1579 CURVE",
"370 1579 LINE",
"370 1606 LINE",
"496 1732 OFFCURVE",
"581 1832 OFFCURVE",
"626 1907 CURVE",
"983 1907 LINE",
"1024 1838 OFFCURVE",
"1143 1699 OFFCURVE",
"1239 1606 CURVE",
"1239 1579 LINE"
);
}
);
width = 1483;
}
);
unicode = 011C;
},
{
glyphname = gcircumflex;
layers = (
{
layerId = "F819D8FE-9E94-402B-BBDD-25FA288DB24B";
name = Bold;
paths = (
{
closed = 1;
nodes = (
"1133 1118 LINE",
"1133 963 LINE",
"958 918 LINE",
"990 868 OFFCURVE",
"1006 812 OFFCURVE",
"1006 750 CURVE SMOOTH",
"1006 510 OFFCURVE",
"829 369 OFFCURVE",
"532 369 CURVE",
"477 372 LINE",
"432 377 LINE",
"401 353 OFFCURVE",
"385 326 OFFCURVE",
"385 297 CURVE SMOOTH",
"385 253 OFFCURVE",
"441 231 OFFCURVE",
"553 231 CURVE SMOOTH",
"743 231 LINE SMOOTH",
"988 231 OFFCURVE",
"1120 124 OFFCURVE",
"1120 -80 CURVE SMOOTH",
"1120 -341 OFFCURVE",
"895 -492 OFFCURVE",
"487 -492 CURVE SMOOTH",
"175 -492 OFFCURVE",
"6 -378 OFFCURVE",
"6 -182 CURVE SMOOTH",
"6 -47 OFFCURVE",
"91 45 OFFCURVE",
"254 84 CURVE",
"191 111 OFFCURVE",
"137 178 OFFCURVE",
"137 246 CURVE SMOOTH",
"137 331 OFFCURVE",
"188 381 OFFCURVE",
"281 436 CURVE",
"164 487 OFFCURVE",
"90 604 OFFCURVE",
"90 756 CURVE SMOOTH",
"90 1000 OFFCURVE",
"254 1139 OFFCURVE",
"549 1139 CURVE SMOOTH",
"612 1139 OFFCURVE",
"719 1123 OFFCURVE",
"743 1118 CURVE"
);
},
{
closed = 1;
nodes = (
"270 -242 OFFCURVE",
"355 -293 OFFCURVE",
"500 -293 CURVE SMOOTH",
"719 -293 OFFCURVE",
"850 -229 OFFCURVE",
"850 -125 CURVE SMOOTH",
"850 -41 OFFCURVE",
"778 -14 OFFCURVE",
"625 -14 CURVE SMOOTH",
"467 -14 LINE SMOOTH",
"355 -14 OFFCURVE",
"270 -71 OFFCURVE",
"270 -158 CURVE SMOOTH"
);
},
{
closed = 1;
nodes = (
"381 631 OFFCURVE",
"436 555 OFFCURVE",
"549 555 CURVE SMOOTH",
"664 555 OFFCURVE",
"715 631 OFFCURVE",
"715 752 CURVE SMOOTH",
"715 887 OFFCURVE",
"660 954 OFFCURVE",
"549 954 CURVE SMOOTH",
"437 954 OFFCURVE",
"381 887 OFFCURVE",
"381 752 CURVE SMOOTH"
);
},
{
closed = 1;
nodes = (
"816 1241 LINE",
"711 1303 OFFCURVE",
"633 1362 OFFCURVE",
"582 1417 CURVE",
"530 1363 OFFCURVE",
"454 1304 OFFCURVE",
"353 1241 CURVE",
"150 1241 LINE",
"150 1268 LINE",
"276 1394 OFFCURVE",
"361 1494 OFFCURVE",
"406 1569 CURVE",
"763 1569 LINE",
"804 1500 OFFCURVE",
"923 1361 OFFCURVE",
"1019 1268 CURVE",
"1019 1241 LINE"
);
}
);
width = 1157;
}
);
unicode = 011D;
},
{
glyphname = Gbreve;
layers = (
{
layerId = "F819D8FE-9E94-402B-BBDD-25FA288DB24B";
name = Bold;
paths = (
{
closed = 1;
nodes = (
"739 821 LINE",
"1319 821 LINE",
"1319 63 LINE",
"1131 2 OFFCURVE",
"972 -20 OFFCURVE",
"799 -20 CURVE SMOOTH",
"358 -20 OFFCURVE",
"119 248 OFFCURVE",
"119 733 CURVE SMOOTH",
"119 1205 OFFCURVE",
"404 1483 OFFCURVE",
"883 1483 CURVE SMOOTH",
"1033 1483 OFFCURVE",
"1178 1453 OFFCURVE",
"1317 1393 CURVE",
"1214 1145 LINE",
"1107 1198 OFFCURVE",
"996 1225 OFFCURVE",
"881 1225 CURVE SMOOTH",
"613 1225 OFFCURVE",
"438 1031 OFFCURVE",
"438 727 CURVE SMOOTH",
"438 410 OFFCURVE",
"571 238 OFFCURVE",
"819 238 CURVE SMOOTH",
"884 238 OFFCURVE",
"949 245 OFFCURVE",
"1016 258 CURVE",
"1016 563 LINE",
"739 563 LINE"
);
},
{
closed = 1;
nodes = (
"1204 1917 LINE",
"1188 1712 OFFCURVE",
"1027 1579 OFFCURVE",
"806 1579 CURVE SMOOTH",
"574 1579 OFFCURVE",
"428 1709 OFFCURVE",
"417 1917 CURVE",
"587 1917 LINE",
"592 1854 OFFCURVE",
"624 1820 OFFCURVE",
"681 1804 CURVE SMOOTH",
"709 1796 OFFCURVE",
"751 1792 OFFCURVE",
"808 1792 CURVE SMOOTH",
"945 1792 OFFCURVE",
"1019 1834 OFFCURVE",
"1030 1917 CURVE"
);
}
);
width = 1483;
}
);
unicode = 011E;
},
{
glyphname = gbreve;
layers = (
{
layerId = "F819D8FE-9E94-402B-BBDD-25FA288DB24B";
name = Bold;
paths = (
{
closed = 1;
nodes = (
"1133 1118 LINE",
"1133 963 LINE",
"958 918 LINE",
"990 868 OFFCURVE",
"1006 812 OFFCURVE",
"1006 750 CURVE SMOOTH",
"1006 510 OFFCURVE",
"829 369 OFFCURVE",
"532 369 CURVE",
"477 372 LINE",
"432 377 LINE",
"401 353 OFFCURVE",
"385 326 OFFCURVE",
"385 297 CURVE SMOOTH",
"385 253 OFFCURVE",
"441 231 OFFCURVE",
"553 231 CURVE SMOOTH",
"743 231 LINE SMOOTH",
"988 231 OFFCURVE",
"1120 124 OFFCURVE",
"1120 -80 CURVE SMOOTH",
"1120 -341 OFFCURVE",
"895 -492 OFFCURVE",
"487 -492 CURVE SMOOTH",
"175 -492 OFFCURVE",
"6 -378 OFFCURVE",
"6 -182 CURVE SMOOTH",
"6 -47 OFFCURVE",
"91 45 OFFCURVE",
"254 84 CURVE",
"191 111 OFFCURVE",
"137 178 OFFCURVE",
"137 246 CURVE SMOOTH",
"137 331 OFFCURVE",
"188 381 OFFCURVE",
"281 436 CURVE",
"164 487 OFFCURVE",
"90 604 OFFCURVE",
"90 756 CURVE SMOOTH",
"90 1000 OFFCURVE",
"254 1139 OFFCURVE",
"549 1139 CURVE SMOOTH",
"612 1139 OFFCURVE",
"719 1123 OFFCURVE",
"743 1118 CURVE"
);
},
{
closed = 1;
nodes = (
"270 -242 OFFCURVE",
"355 -293 OFFCURVE",
"500 -293 CURVE SMOOTH",
"719 -293 OFFCURVE",
"850 -229 OFFCURVE",
"850 -125 CURVE SMOOTH",
"850 -41 OFFCURVE",
"778 -14 OFFCURVE",
"625 -14 CURVE SMOOTH",
"467 -14 LINE SMOOTH",
"355 -14 OFFCURVE",
"270 -71 OFFCURVE",
"270 -158 CURVE SMOOTH"
);
},
{
closed = 1;
nodes = (
"381 631 OFFCURVE",
"436 555 OFFCURVE",
"549 555 CURVE SMOOTH",
"664 555 OFFCURVE",
"715 631 OFFCURVE",
"715 752 CURVE SMOOTH",
"715 887 OFFCURVE",
"660 954 OFFCURVE",
"549 954 CURVE SMOOTH",
"437 954 OFFCURVE",
"381 887 OFFCURVE",
"381 752 CURVE SMOOTH"
);
},
{
closed = 1;
nodes = (
"984 1579 LINE",
"968 1374 OFFCURVE",
"807 1241 OFFCURVE",
"586 1241 CURVE SMOOTH",
"354 1241 OFFCURVE",
"208 1371 OFFCURVE",
"197 1579 CURVE",
"367 1579 LINE",
"372 1516 OFFCURVE",
"404 1482 OFFCURVE",
"461 1466 CURVE SMOOTH",
"489 1458 OFFCURVE",
"531 1454 OFFCURVE",
"588 1454 CURVE SMOOTH",
"725 1454 OFFCURVE",
"799 1496 OFFCURVE",
"810 1579 CURVE"
);
}
);
width = 1157;
}
);
unicode = 011F;
},
{
glyphname = Gdot;
layers = (
{
layerId = "F819D8FE-9E94-402B-BBDD-25FA288DB24B";
name = Bold;
paths = (
{
closed = 1;
nodes = (
"739 821 LINE",
"1319 821 LINE",
"1319 63 LINE",
"1131 2 OFFCURVE",
"972 -20 OFFCURVE",
"799 -20 CURVE SMOOTH",
"358 -20 OFFCURVE",
"119 248 OFFCURVE",
"119 733 CURVE SMOOTH",
"119 1205 OFFCURVE",
"404 1483 OFFCURVE",
"883 1483 CURVE SMOOTH",
"1033 1483 OFFCURVE",
"1178 1453 OFFCURVE",
"1317 1393 CURVE",
"1214 1145 LINE",
"1107 1198 OFFCURVE",
"996 1225 OFFCURVE",
"881 1225 CURVE SMOOTH",
"613 1225 OFFCURVE",
"438 1031 OFFCURVE",
"438 727 CURVE SMOOTH",
"438 410 OFFCURVE",
"571 238 OFFCURVE",
"819 238 CURVE SMOOTH",
"884 238 OFFCURVE",
"949 245 OFFCURVE",
"1016 258 CURVE",
"1016 563 LINE",
"739 563 LINE"
);
},
{
closed = 1;
nodes = (
"655 1844 OFFCURVE",
"710 1894 OFFCURVE",
"821 1894 CURVE SMOOTH",
"932 1894 OFFCURVE",
"987 1844 OFFCURVE",
"987 1745 CURVE SMOOTH",
"987 1650 OFFCURVE",
"932 1595 OFFCURVE",
"821 1595 CURVE SMOOTH",
"710 1595 OFFCURVE",
"655 1645 OFFCURVE",
"655 1745 CURVE SMOOTH"
);
}
);
width = 1483;
}
);
unicode = 0120;
},
{
glyphname = gdot;
layers = (
{
layerId = "F819D8FE-9E94-402B-BBDD-25FA288DB24B";
name = Bold;
paths = (
{
closed = 1;
nodes = (
"1133 1118 LINE",
"1133 963 LINE",
"958 918 LINE",
"990 868 OFFCURVE",
"1006 812 OFFCURVE",
"1006 750 CURVE SMOOTH",
"1006 510 OFFCURVE",
"829 369 OFFCURVE",
"532 369 CURVE",
"477 372 LINE",
"432 377 LINE",
"401 353 OFFCURVE",
"385 326 OFFCURVE",
"385 297 CURVE SMOOTH",
"385 253 OFFCURVE",
"441 231 OFFCURVE",
"553 231 CURVE SMOOTH",
"743 231 LINE SMOOTH",
"988 231 OFFCURVE",
"1120 124 OFFCURVE",
"1120 -80 CURVE SMOOTH",
"1120 -341 OFFCURVE",
"895 -492 OFFCURVE",
"487 -492 CURVE SMOOTH",
"175 -492 OFFCURVE",
"6 -378 OFFCURVE",
"6 -182 CURVE SMOOTH",
"6 -47 OFFCURVE",
"91 45 OFFCURVE",
"254 84 CURVE",
"191 111 OFFCURVE",
"137 178 OFFCURVE",
"137 246 CURVE SMOOTH",
"137 331 OFFCURVE",
"188 381 OFFCURVE",
"281 436 CURVE",
"164 487 OFFCURVE",
"90 604 OFFCURVE",
"90 756 CURVE SMOOTH",
"90 1000 OFFCURVE",
"254 1139 OFFCURVE",
"549 1139 CURVE SMOOTH",
"612 1139 OFFCURVE",
"719 1123 OFFCURVE",
"743 1118 CURVE"
);
},
{
closed = 1;
nodes = (
"270 -242 OFFCURVE",
"355 -293 OFFCURVE",
"500 -293 CURVE SMOOTH",
"719 -293 OFFCURVE",
"850 -229 OFFCURVE",
"850 -125 CURVE SMOOTH",
"850 -41 OFFCURVE",
"778 -14 OFFCURVE",
"625 -14 CURVE SMOOTH",
"467 -14 LINE SMOOTH",
"355 -14 OFFCURVE",
"270 -71 OFFCURVE",
"270 -158 CURVE SMOOTH"
);
},
{
closed = 1;
nodes = (
"381 631 OFFCURVE",
"436 555 OFFCURVE",
"549 555 CURVE SMOOTH",
"664 555 OFFCURVE",
"715 631 OFFCURVE",
"715 752 CURVE SMOOTH",
"715 887 OFFCURVE",
"660 954 OFFCURVE",
"549 954 CURVE SMOOTH",
"437 954 OFFCURVE",
"381 887 OFFCURVE",
"381 752 CURVE SMOOTH"
);
},
{
closed = 1;
nodes = (
"411 1506 OFFCURVE",
"466 1556 OFFCURVE",
"577 1556 CURVE SMOOTH",
"688 1556 OFFCURVE",
"743 1506 OFFCURVE",
"743 1407 CURVE SMOOTH",
"743 1312 OFFCURVE",
"688 1257 OFFCURVE",
"577 1257 CURVE SMOOTH",
"466 1257 OFFCURVE",
"411 1307 OFFCURVE",
"411 1407 CURVE SMOOTH"
);
}
);
width = 1157;
}
);
unicode = 0121;
},
{
glyphname = Gcommaaccent;
layers = (
{
layerId = "F819D8FE-9E94-402B-BBDD-25FA288DB24B";
name = Bold;
paths = (
{
closed = 1;
nodes = (
"739 821 LINE",
"1319 821 LINE",
"1319 63 LINE",
"1131 2 OFFCURVE",
"972 -20 OFFCURVE",
"799 -20 CURVE SMOOTH",
"358 -20 OFFCURVE",
"119 248 OFFCURVE",
"119 733 CURVE SMOOTH",
"119 1205 OFFCURVE",
"404 1483 OFFCURVE",
"883 1483 CURVE SMOOTH",
"1033 1483 OFFCURVE",
"1178 1453 OFFCURVE",
"1317 1393 CURVE",
"1214 1145 LINE",
"1107 1198 OFFCURVE",
"996 1225 OFFCURVE",
"881 1225 CURVE SMOOTH",
"613 1225 OFFCURVE",
"438 1031 OFFCURVE",
"438 727 CURVE SMOOTH",
"438 410 OFFCURVE",
"571 238 OFFCURVE",
"819 238 CURVE SMOOTH",
"884 238 OFFCURVE",
"949 245 OFFCURVE",
"1016 258 CURVE",
"1016 563 LINE",
"739 563 LINE"
);
},
{
closed = 1;
nodes = (
"629 -426 LINE",
"649 -361 OFFCURVE",
"680 -210 OFFCURVE",
"691 -125 CURVE",
"973 -125 LINE",
"973 -145 LINE",
"923 -257 OFFCURVE",
"868 -360 OFFCURVE",
"807 -453 CURVE",
"629 -453 LINE"
);
}
);
width = 1483;
}
);
unicode = 0122;
},
{
glyphname = gcommaaccent;
layers = (
{
layerId = "F819D8FE-9E94-402B-BBDD-25FA288DB24B";
name = Bold;
paths = (
{
closed = 1;
nodes = (
"1133 1118 LINE",
"1133 963 LINE",
"958 918 LINE",
"990 868 OFFCURVE",
"1006 812 OFFCURVE",
"1006 750 CURVE SMOOTH",
"1006 510 OFFCURVE",
"829 369 OFFCURVE",
"532 369 CURVE",
"477 372 LINE",
"432 377 LINE",
"401 353 OFFCURVE",
"385 326 OFFCURVE",
"385 297 CURVE SMOOTH",
"385 253 OFFCURVE",
"441 231 OFFCURVE",
"553 231 CURVE SMOOTH",
"743 231 LINE SMOOTH",
"988 231 OFFCURVE",
"1120 124 OFFCURVE",
"1120 -80 CURVE SMOOTH",
"1120 -341 OFFCURVE",
"895 -492 OFFCURVE",
"487 -492 CURVE SMOOTH",
"175 -492 OFFCURVE",
"6 -378 OFFCURVE",
"6 -182 CURVE SMOOTH",
"6 -47 OFFCURVE",
"91 45 OFFCURVE",
"254 84 CURVE",
"191 111 OFFCURVE",
"137 178 OFFCURVE",
"137 246 CURVE SMOOTH",
"137 331 OFFCURVE",
"188 381 OFFCURVE",
"281 436 CURVE",
"164 487 OFFCURVE",
"90 604 OFFCURVE",
"90 756 CURVE SMOOTH",
"90 1000 OFFCURVE",
"254 1139 OFFCURVE",
"549 1139 CURVE SMOOTH",
"612 1139 OFFCURVE",
"719 1123 OFFCURVE",
"743 1118 CURVE"
);
},
{
closed = 1;
nodes = (
"270 -242 OFFCURVE",
"355 -293 OFFCURVE",
"500 -293 CURVE SMOOTH",
"719 -293 OFFCURVE",
"850 -229 OFFCURVE",
"850 -125 CURVE SMOOTH",
"850 -41 OFFCURVE",
"778 -14 OFFCURVE",
"625 -14 CURVE SMOOTH",
"467 -14 LINE SMOOTH",
"355 -14 OFFCURVE",
"270 -71 OFFCURVE",
"270 -158 CURVE SMOOTH"
);
},
{
closed = 1;
nodes = (
"381 631 OFFCURVE",
"436 555 OFFCURVE",
"549 555 CURVE SMOOTH",
"664 555 OFFCURVE",
"715 631 OFFCURVE",
"715 752 CURVE SMOOTH",
"715 887 OFFCURVE",
"660 954 OFFCURVE",
"549 954 CURVE SMOOTH",
"437 954 OFFCURVE",
"381 887 OFFCURVE",
"381 752 CURVE SMOOTH"
);
},
{
closed = 1;
nodes = (
"768 1542 LINE",
"748 1477 OFFCURVE",
"717 1326 OFFCURVE",
"706 1241 CURVE",
"424 1241 LINE",
"424 1262 LINE",
"476 1375 OFFCURVE",
"531 1478 OFFCURVE",
"590 1569 CURVE",
"768 1569 LINE"
);
}
);
width = 1157;
}
);
unicode = 0123;
},
{
glyphname = Hcircumflex;
layers = (
{
layerId = "F819D8FE-9E94-402B-BBDD-25FA288DB24B";
name = Bold;
paths = (
{
closed = 1;
nodes = (
"1382 0 LINE",
"1073 0 LINE",
"1073 631 LINE",
"494 631 LINE",
"494 0 LINE",
"184 0 LINE",
"184 1462 LINE",
"494 1462 LINE",
"494 889 LINE",
"1073 889 LINE",
"1073 1462 LINE",
"1382 1462 LINE"
);
},
{
closed = 1;
nodes = (
"1012 1579 LINE",
"907 1641 OFFCURVE",
"829 1700 OFFCURVE",
"778 1755 CURVE",
"726 1701 OFFCURVE",
"650 1642 OFFCURVE",
"549 1579 CURVE",
"346 1579 LINE",
"346 1606 LINE",
"472 1732 OFFCURVE",
"557 1832 OFFCURVE",
"602 1907 CURVE",
"959 1907 LINE",
"1000 1838 OFFCURVE",
"1119 1699 OFFCURVE",
"1215 1606 CURVE",
"1215 1579 LINE"
);
}
);
width = 1567;
}
);
unicode = 0124;
},
{
glyphname = hcircumflex;
layers = (
{
layerId = "F819D8FE-9E94-402B-BBDD-25FA288DB24B";
name = Bold;
paths = (
{
closed = 1;
nodes = (
"1192 0 LINE",
"887 0 LINE",
"887 653 LINE SMOOTH",
"887 814 OFFCURVE",
"827 895 OFFCURVE",
"707 895 CURVE SMOOTH",
"536 895 OFFCURVE",
"465 786 OFFCURVE",
"465 526 CURVE SMOOTH",
"465 0 LINE",
"160 0 LINE",
"160 1556 LINE",
"465 1556 LINE",
"465 1239 LINE SMOOTH",
"465 1214 OFFCURVE",
"463 1156 OFFCURVE",
"458 1065 CURVE SMOOTH",
"451 975 LINE",
"467 975 LINE",
"535 1084 OFFCURVE",
"643 1139 OFFCURVE",
"791 1139 CURVE SMOOTH",
"1054 1139 OFFCURVE",
"1192 993 OFFCURVE",
"1192 729 CURVE SMOOTH"
);
},
{
closed = 1;
nodes = (
"905 1634 LINE",
"800 1696 OFFCURVE",
"722 1755 OFFCURVE",
"671 1810 CURVE",
"619 1756 OFFCURVE",
"543 1697 OFFCURVE",
"442 1634 CURVE",
"239 1634 LINE",
"239 1661 LINE",
"365 1787 OFFCURVE",
"450 1887 OFFCURVE",
"495 1962 CURVE",
"852 1962 LINE",
"893 1893 OFFCURVE",
"1012 1754 OFFCURVE",
"1108 1661 CURVE",
"1108 1634 LINE"
);
}
);
width = 1346;
}
);
unicode = 0125;
},
{
glyphname = Hbar;
layers = (
{
layerId = "F819D8FE-9E94-402B-BBDD-25FA288DB24B";
name = Bold;
paths = (
{
closed = 1;
nodes = (
"1382 1268 LINE",
"1567 1268 LINE",
"1567 1069 LINE",
"1382 1069 LINE",
"1382 0 LINE",
"1073 0 LINE",
"1073 631 LINE",
"494 631 LINE",
"494 0 LINE",
"184 0 LINE",
"184 1069 LINE",
"0 1069 LINE",
"0 1268 LINE",
"184 1268 LINE",
"184 1462 LINE",
"494 1462 LINE",
"494 1268 LINE",
"1073 1268 LINE",
"1073 1462 LINE",
"1382 1462 LINE"
);
},
{
closed = 1;
nodes = (
"1073 889 LINE",
"1073 1069 LINE",
"494 1069 LINE",
"494 889 LINE"
);
}
);
width = 1567;
}
);
unicode = 0126;
},
{
glyphname = hbar;
layers = (
{
layerId = "F819D8FE-9E94-402B-BBDD-25FA288DB24B";
name = Bold;
paths = (
{
closed = 1;
nodes = (
"1192 0 LINE",
"887 0 LINE",
"887 592 LINE SMOOTH",
"887 753 OFFCURVE",
"827 834 OFFCURVE",
"707 834 CURVE SMOOTH",
"538 834 OFFCURVE",
"465 724 OFFCURVE",
"465 465 CURVE SMOOTH",
"465 0 LINE",
"160 0 LINE",
"160 1196 LINE",
"4 1196 LINE",
"4 1395 LINE",
"160 1395 LINE",
"160 1556 LINE",
"465 1556 LINE",
"465 1395 LINE",
"780 1395 LINE",
"780 1196 LINE",
"465 1196 LINE",
"465 1178 LINE SMOOTH",
"465 1123 OFFCURVE",
"460 1034 OFFCURVE",
"451 913 CURVE",
"469 913 LINE",
"537 1022 OFFCURVE",
"645 1077 OFFCURVE",
"793 1077 CURVE SMOOTH",
"1056 1077 OFFCURVE",
"1192 933 OFFCURVE",
"1192 668 CURVE SMOOTH"
);
}
);
width = 1346;
}
);
unicode = 0127;
},
{
glyphname = Itilde;
layers = (
{
layerId = "F819D8FE-9E94-402B-BBDD-25FA288DB24B";
name = Bold;
paths = (
{
closed = 1;
nodes = (
"184 0 LINE",
"184 1462 LINE",
"494 1462 LINE",
"494 0 LINE"
);
},
{
closed = 1;
nodes = (
"134 1684 OFFCURVE",
"91 1649 OFFCURVE",
"74 1577 CURVE",
"-75 1577 LINE",
"-60 1770 OFFCURVE",
"40 1886 OFFCURVE",
"197 1886 CURVE SMOOTH",
"252 1886 OFFCURVE",
"304 1860 OFFCURVE",
"356 1834 CURVE SMOOTH",
"407 1808 OFFCURVE",
"456 1782 OFFCURVE",
"504 1782 CURVE SMOOTH",
"545 1782 OFFCURVE",
"588 1816 OFFCURVE",
"605 1888 CURVE",
"754 1888 LINE",
"739 1695 OFFCURVE",
"637 1579 OFFCURVE",
"482 1579 CURVE SMOOTH",
"427 1579 OFFCURVE",
"375 1606 OFFCURVE",
"324 1632 CURVE SMOOTH",
"272 1658 OFFCURVE",
"223 1684 OFFCURVE",
"175 1684 CURVE SMOOTH"
);
}
);
width = 678;
}
);
unicode = 0128;
},
{
glyphname = itilde;
layers = (
{
layerId = "F819D8FE-9E94-402B-BBDD-25FA288DB24B";
name = Bold;
paths = (
{
closed = 1;
nodes = (
"465 0 LINE",
"160 0 LINE",
"160 1118 LINE",
"465 1118 LINE"
);
},
{
closed = 1;
nodes = (
"108 1346 OFFCURVE",
"65 1311 OFFCURVE",
"48 1239 CURVE",
"-101 1239 LINE",
"-86 1432 OFFCURVE",
"14 1548 OFFCURVE",
"171 1548 CURVE SMOOTH",
"226 1548 OFFCURVE",
"278 1522 OFFCURVE",
"330 1496 CURVE SMOOTH",
"381 1470 OFFCURVE",
"430 1444 OFFCURVE",
"478 1444 CURVE SMOOTH",
"519 1444 OFFCURVE",
"562 1478 OFFCURVE",
"579 1550 CURVE",
"728 1550 LINE",
"713 1357 OFFCURVE",
"611 1241 OFFCURVE",
"456 1241 CURVE SMOOTH",
"401 1241 OFFCURVE",
"349 1268 OFFCURVE",
"298 1294 CURVE SMOOTH",
"246 1320 OFFCURVE",
"197 1346 OFFCURVE",
"149 1346 CURVE SMOOTH"
);
}
);
width = 625;
}
);
unicode = 0129;
},
{
glyphname = Imacron;
layers = (
{
layerId = "F819D8FE-9E94-402B-BBDD-25FA288DB24B";
name = Bold;
paths = (
{
closed = 1;
nodes = (
"184 0 LINE",
"184 1462 LINE",
"494 1462 LINE",
"494 0 LINE"
);
},
{
closed = 1;
nodes = (
"3 1790 LINE",
"681 1790 LINE",
"681 1579 LINE",
"3 1579 LINE"
);
}
);
width = 678;
}
);
unicode = 012A;
},
{
glyphname = imacron;
layers = (
{
layerId = "F819D8FE-9E94-402B-BBDD-25FA288DB24B";
name = Bold;
paths = (
{
closed = 1;
nodes = (
"465 0 LINE",
"160 0 LINE",
"160 1118 LINE",
"465 1118 LINE"
);
},
{
closed = 1;
nodes = (
"-23 1452 LINE",
"655 1452 LINE",
"655 1241 LINE",
"-23 1241 LINE"
);
}
);
width = 625;
}
);
unicode = 012B;
},
{
glyphname = Ibreve;
layers = (
{
layerId = "F819D8FE-9E94-402B-BBDD-25FA288DB24B";
name = Bold;
paths = (
{
closed = 1;
nodes = (
"184 0 LINE",
"184 1462 LINE",
"494 1462 LINE",
"494 0 LINE"
);
},
{
closed = 1;
nodes = (
"734 1917 LINE",
"718 1712 OFFCURVE",
"557 1579 OFFCURVE",
"336 1579 CURVE SMOOTH",
"104 1579 OFFCURVE",
"-42 1709 OFFCURVE",
"-53 1917 CURVE",
"117 1917 LINE",
"122 1854 OFFCURVE",
"154 1820 OFFCURVE",
"211 1804 CURVE SMOOTH",
"239 1796 OFFCURVE",
"281 1792 OFFCURVE",
"338 1792 CURVE SMOOTH",
"475 1792 OFFCURVE",
"549 1834 OFFCURVE",
"560 1917 CURVE"
);
}
);
width = 678;
}
);
unicode = 012C;
},
{
glyphname = ibreve;
layers = (
{
layerId = "F819D8FE-9E94-402B-BBDD-25FA288DB24B";
name = Bold;
paths = (
{
closed = 1;
nodes = (
"465 0 LINE",
"160 0 LINE",
"160 1118 LINE",
"465 1118 LINE"
);
},
{
closed = 1;
nodes = (
"706 1579 LINE",
"690 1374 OFFCURVE",
"529 1241 OFFCURVE",
"308 1241 CURVE SMOOTH",
"76 1241 OFFCURVE",
"-70 1371 OFFCURVE",
"-81 1579 CURVE",
"89 1579 LINE",
"94 1516 OFFCURVE",
"126 1482 OFFCURVE",
"183 1466 CURVE SMOOTH",
"211 1458 OFFCURVE",
"253 1454 OFFCURVE",
"310 1454 CURVE SMOOTH",
"447 1454 OFFCURVE",
"521 1496 OFFCURVE",
"532 1579 CURVE"
);
}
);
width = 625;
}
);
unicode = 012D;
},
{
glyphname = Iogonek;
layers = (
{
layerId = "F819D8FE-9E94-402B-BBDD-25FA288DB24B";
name = Bold;
paths = (
{
closed = 1;
nodes = (
"184 0 LINE",
"184 1462 LINE",
"494 1462 LINE",
"494 0 LINE"
);
},
{
closed = 1;
nodes = (
"321 -283 OFFCURVE",
"354 -309 OFFCURVE",
"401 -309 CURVE SMOOTH",
"438 -309 OFFCURVE",
"476 -303 OFFCURVE",
"516 -291 CURVE",
"516 -469 LINE",
"461 -484 OFFCURVE",
"409 -492 OFFCURVE",
"360 -492 CURVE SMOOTH",
"209 -492 OFFCURVE",
"110 -399 OFFCURVE",
"110 -262 CURVE SMOOTH",
"110 -173 OFFCURVE",
"151 -103 OFFCURVE",
"290 0 CURVE",
"469 0 LINE",
"376 -88 OFFCURVE",
"321 -158 OFFCURVE",
"321 -227 CURVE SMOOTH"
);
}
);
width = 678;
}
);
unicode = 012E;
},
